Hubballi-Regular-35-32.ufo
<glyph name="exclam" format="1">
  <advance width="337"/>
  <unicode hex="0021"/>
  <outline>
    <contour>
      <point x="132" y="276" type="curve" smooth="yes"/>
      <point x="139" y="554" type="line" smooth="yes"/>
      <point x="139" y="573"/>
      <point x="156" y="588"/>
      <point x="175" y="588" type="curve" smooth="yes"/>
      <point x="194" y="588"/>
      <point x="209" y="571"/>
      <point x="209" y="552" type="curve" smooth="yes"/>
      <point x="202" y="274" type="line" smooth="yes"/>
      <point x="202" y="255"/>
      <point x="185" y="240"/>
      <point x="166" y="240" type="curve" smooth="yes"/>
      <point x="147" y="240"/>
      <point x="132" y="257"/>
    </contour>
    <component base="period" xOffset="49"/>
    <component base="period" xOffset="49"/>
  </outline>
</glyph>
<glyph name="numbersign" format="1">
  <advance width="586"/>
  <unicode hex="0023"/>
  <outline>
    <contour>
      <point x="509" y="505" type="curve" smooth="yes"/>
      <point x="333" y="21" type="line" smooth="yes"/>
      <point x="326" y="3"/>
      <point x="306" y="-6"/>
      <point x="288" y="0" type="curve" smooth="yes"/>
      <point x="270" y="7"/>
      <point x="261" y="27"/>
      <point x="267" y="45" type="curve" smooth="yes"/>
      <point x="443" y="529" type="line" smooth="yes"/>
      <point x="450" y="547"/>
      <point x="470" y="556"/>
      <point x="488" y="550" type="curve" smooth="yes"/>
      <point x="506" y="543"/>
      <point x="515" y="523"/>
    </contour>
    <contour>
      <point x="309" y="505" type="curve" smooth="yes"/>
      <point x="133" y="21" type="line" smooth="yes"/>
      <point x="126" y="3"/>
      <point x="106" y="-6"/>
      <point x="88" y="0" type="curve" smooth="yes"/>
      <point x="70" y="7"/>
      <point x="61" y="27"/>
      <point x="67" y="45" type="curve" smooth="yes"/>
      <point x="243" y="529" type="line" smooth="yes"/>
      <point x="250" y="547"/>
      <point x="270" y="556"/>
      <point x="288" y="550" type="curve" smooth="yes"/>
      <point x="306" y="543"/>
      <point x="315" y="523"/>
    </contour>
    <contour>
      <point x="527" y="353" type="curve" smooth="yes"/>
      <point x="123" y="353" type="line" smooth="yes"/>
      <point x="104" y="353"/>
      <point x="88" y="369"/>
      <point x="88" y="388" type="curve" smooth="yes"/>
      <point x="88" y="407"/>
      <point x="104" y="423"/>
      <point x="123" y="423" type="curve" smooth="yes"/>
      <point x="527" y="423" type="line" smooth="yes"/>
      <point x="546" y="423"/>
      <point x="562" y="407"/>
      <point x="562" y="388" type="curve" smooth="yes"/>
      <point x="562" y="369"/>
      <point x="546" y="353"/>
    </contour>
    <contour>
      <point x="458" y="153" type="curve" smooth="yes"/>
      <point x="54" y="153" type="line" smooth="yes"/>
      <point x="35" y="153"/>
      <point x="19" y="169"/>
      <point x="19" y="188" type="curve" smooth="yes"/>
      <point x="19" y="207"/>
      <point x="35" y="223"/>
      <point x="54" y="223" type="curve" smooth="yes"/>
      <point x="458" y="223" type="line" smooth="yes"/>
      <point x="477" y="223"/>
      <point x="493" y="207"/>
      <point x="493" y="188" type="curve" smooth="yes"/>
      <point x="493" y="169"/>
      <point x="477" y="153"/>
    </contour>
  </outline>
</glyph>
<glyph name="dollar" format="1">
  <advance width="584"/>
  <unicode hex="0024"/>
  <outline>
    <contour>
      <point x="430" y="461" type="curve" smooth="yes"/>
      <point x="380" y="479"/>
      <point x="344" y="489"/>
      <point x="270" y="489" type="curve" smooth="yes"/>
      <point x="205" y="489"/>
      <point x="149" y="461"/>
      <point x="149" y="420" type="curve" smooth="yes"/>
      <point x="149" y="379"/>
      <point x="186" y="342"/>
      <point x="300" y="323" type="curve" smooth="yes"/>
      <point x="475" y="289"/>
      <point x="516" y="220"/>
      <point x="516" y="146" type="curve" smooth="yes"/>
      <point x="516" y="70"/>
      <point x="462" y="-11"/>
      <point x="293" y="-11" type="curve" smooth="yes"/>
      <point x="219" y="-11"/>
      <point x="148" y="4"/>
      <point x="84" y="35" type="curve" smooth="yes"/>
      <point x="67" y="44"/>
      <point x="59" y="65"/>
      <point x="67" y="82" type="curve" smooth="yes"/>
      <point x="76" y="99"/>
      <point x="97" y="107"/>
      <point x="114" y="99" type="curve" smooth="yes"/>
      <point x="170" y="72"/>
      <point x="229" y="59"/>
      <point x="293" y="59" type="curve" smooth="yes"/>
      <point x="386" y="59"/>
      <point x="446" y="94"/>
      <point x="446" y="146" type="curve" smooth="yes"/>
      <point x="446" y="200"/>
      <point x="393" y="233"/>
      <point x="288" y="253" type="curve" smooth="yes"/>
      <point x="94" y="286"/>
      <point x="79" y="361"/>
      <point x="79" y="420" type="curve" smooth="yes"/>
      <point x="79" y="485"/>
      <point x="139" y="559"/>
      <point x="270" y="559" type="curve" smooth="yes"/>
      <point x="354" y="559"/>
      <point x="396" y="547"/>
      <point x="454" y="527" type="curve" smooth="yes"/>
      <point x="471" y="521"/>
      <point x="481" y="500"/>
      <point x="475" y="482" type="curve" smooth="yes"/>
      <point x="469" y="465"/>
      <point x="448" y="455"/>
    </contour>
    <contour>
      <point x="324" y="616" type="curve" smooth="yes"/>
      <point x="324" y="-74" type="line" smooth="yes"/>
      <point x="324" y="-93"/>
      <point x="308" y="-109"/>
      <point x="289" y="-109" type="curve" smooth="yes"/>
      <point x="270" y="-109"/>
      <point x="254" y="-93"/>
      <point x="254" y="-74" type="curve" smooth="yes"/>
      <point x="254" y="616" type="line" smooth="yes"/>
      <point x="254" y="635"/>
      <point x="270" y="651"/>
      <point x="289" y="651" type="curve" smooth="yes"/>
      <point x="308" y="651"/>
      <point x="324" y="635"/>
    </contour>
  </outline>
</glyph>
<glyph name="percent" format="1">
  <advance width="806"/>
  <unicode hex="0025"/>
  <outline>
    <contour>
      <point x="208" y="560" type="curve" smooth="yes"/>
      <point x="283" y="560"/>
      <point x="351" y="494"/>
      <point x="351" y="389" type="curve" smooth="yes"/>
      <point x="351" y="291"/>
      <point x="295" y="218"/>
      <point x="208" y="218" type="curve" smooth="yes"/>
      <point x="129" y="218"/>
      <point x="64" y="292"/>
      <point x="64" y="388" type="curve"/>
      <point x="64" y="494"/>
      <point x="128" y="560"/>
    </contour>
    <contour>
      <point x="604" y="330" type="curve" smooth="yes"/>
      <point x="679" y="330"/>
      <point x="747" y="264"/>
      <point x="747" y="159" type="curve" smooth="yes"/>
      <point x="747" y="61"/>
      <point x="691" y="-12"/>
      <point x="604" y="-12" type="curve" smooth="yes"/>
      <point x="525" y="-12"/>
      <point x="460" y="62"/>
      <point x="460" y="158" type="curve" smooth="yes"/>
      <point x="460" y="264"/>
      <point x="524" y="330"/>
    </contour>
    <contour>
      <point x="585" y="500" type="curve" smooth="yes"/>
      <point x="302" y="15" type="line" smooth="yes"/>
      <point x="293" y="-1"/>
      <point x="271" y="-7"/>
      <point x="254" y="3" type="curve" smooth="yes"/>
      <point x="238" y="12"/>
      <point x="232" y="34"/>
      <point x="242" y="51" type="curve" smooth="yes"/>
      <point x="525" y="536" type="line" smooth="yes"/>
      <point x="534" y="552"/>
      <point x="556" y="558"/>
      <point x="573" y="548" type="curve" smooth="yes"/>
      <point x="589" y="539"/>
      <point x="595" y="517"/>
    </contour>
    <contour>
      <point x="208" y="490" type="curve" smooth="yes"/>
      <point x="160" y="490"/>
      <point x="134" y="442"/>
      <point x="134" y="388" type="curve" smooth="yes"/>
      <point x="134" y="338"/>
      <point x="161" y="288"/>
      <point x="208" y="288" type="curve" smooth="yes"/>
      <point x="259" y="288"/>
      <point x="281" y="339"/>
      <point x="281" y="389" type="curve" smooth="yes"/>
      <point x="281" y="442"/>
      <point x="253" y="490"/>
    </contour>
    <contour>
      <point x="604" y="260" type="curve" smooth="yes"/>
      <point x="556" y="260"/>
      <point x="530" y="212"/>
      <point x="530" y="158" type="curve" smooth="yes"/>
      <point x="530" y="108"/>
      <point x="557" y="58"/>
      <point x="604" y="58" type="curve" smooth="yes"/>
      <point x="655" y="58"/>
      <point x="677" y="109"/>
      <point x="677" y="159" type="curve" smooth="yes"/>
      <point x="677" y="212"/>
      <point x="649" y="260"/>
    </contour>
  </outline>
</glyph>
<glyph name="ampersand" format="1">
  <advance width="644"/>
  <unicode hex="0026"/>
  <outline>
    <contour>
      <point x="554" y="267" type="curve" smooth="yes"/>
      <point x="468" y="145" type="line" smooth="yes"/>
      <point x="383" y="25"/>
      <point x="320" y="-10"/>
      <point x="238" y="-10" type="curve" smooth="yes"/>
      <point x="130" y="-10"/>
      <point x="62" y="59"/>
      <point x="62" y="143" type="curve" smooth="yes"/>
      <point x="62" y="217"/>
      <point x="91" y="280"/>
      <point x="264" y="351" type="curve" smooth="yes"/>
      <point x="308" y="370"/>
      <point x="334" y="394"/>
      <point x="334" y="429" type="curve" smooth="yes"/>
      <point x="334" y="465"/>
      <point x="301" y="490"/>
      <point x="263" y="490" type="curve" smooth="yes"/>
      <point x="225" y="490"/>
      <point x="195" y="465"/>
      <point x="195" y="425" type="curve" smooth="yes"/>
      <point x="195" y="379"/>
      <point x="234" y="347"/>
      <point x="282" y="304" type="curve" smooth="yes"/>
      <point x="563" y="59" type="line" smooth="yes"/>
      <point x="577" y="47"/>
      <point x="579" y="24"/>
      <point x="566" y="10" type="curve" smooth="yes"/>
      <point x="554" y="-4"/>
      <point x="531" y="-6"/>
      <point x="517" y="7" type="curve" smooth="yes"/>
      <point x="236" y="252" type="line" smooth="yes"/>
      <point x="166" y="313"/>
      <point x="125" y="363"/>
      <point x="125" y="425" type="curve" smooth="yes"/>
      <point x="125" y="505"/>
      <point x="183" y="560"/>
      <point x="263" y="560" type="curve" smooth="yes"/>
      <point x="345" y="560"/>
      <point x="404" y="501"/>
      <point x="404" y="429" type="curve" smooth="yes"/>
      <point x="404" y="370"/>
      <point x="372" y="320"/>
      <point x="290" y="287" type="curve" smooth="yes"/>
      <point x="171" y="238"/>
      <point x="132" y="199"/>
      <point x="132" y="143" type="curve" smooth="yes"/>
      <point x="132" y="93"/>
      <point x="180" y="60"/>
      <point x="238" y="60" type="curve" smooth="yes"/>
      <point x="302" y="60"/>
      <point x="347" y="95"/>
      <point x="410" y="185" type="curve" smooth="yes"/>
      <point x="496" y="307" type="line" smooth="yes"/>
      <point x="507" y="323"/>
      <point x="530" y="326"/>
      <point x="545" y="316" type="curve" smooth="yes"/>
      <point x="561" y="305"/>
      <point x="564" y="282"/>
    </contour>
  </outline>
</glyph>
<glyph name="parenleft" format="1">
  <advance width="325"/>
  <unicode hex="0028"/>
  <outline>
    <contour>
      <point x="264" y="590" type="curve" smooth="yes"/>
      <point x="194" y="512"/>
      <point x="137" y="394"/>
      <point x="137" y="269" type="curve" smooth="yes"/>
      <point x="137" y="147"/>
      <point x="190" y="34"/>
      <point x="263" y="-42" type="curve" smooth="yes"/>
      <point x="276" y="-55"/>
      <point x="276" y="-78"/>
      <point x="262" y="-91" type="curve" smooth="yes"/>
      <point x="249" y="-104"/>
      <point x="226" y="-104"/>
      <point x="213" y="-90" type="curve" smooth="yes"/>
      <point x="128" y="-2"/>
      <point x="67" y="127"/>
      <point x="67" y="269" type="curve" smooth="yes"/>
      <point x="67" y="412"/>
      <point x="132" y="548"/>
      <point x="212" y="636" type="curve" smooth="yes"/>
      <point x="225" y="650"/>
      <point x="247" y="652"/>
      <point x="261" y="639" type="curve" smooth="yes"/>
      <point x="275" y="626"/>
      <point x="277" y="604"/>
    </contour>
  </outline>
</glyph>
<glyph name="asterisk" format="1">
  <advance width="423"/>
  <unicode hex="002A"/>
  <outline>
    <contour>
      <point x="245" y="517" type="curve" smooth="yes"/>
      <point x="245" y="291" type="line" smooth="yes"/>
      <point x="245" y="272"/>
      <point x="229" y="256"/>
      <point x="210" y="256" type="curve" smooth="yes"/>
      <point x="191" y="256"/>
      <point x="175" y="272"/>
      <point x="175" y="291" type="curve" smooth="yes"/>
      <point x="175" y="517" type="line" smooth="yes"/>
      <point x="175" y="536"/>
      <point x="191" y="552"/>
      <point x="210" y="552" type="curve" smooth="yes"/>
      <point x="229" y="552"/>
      <point x="245" y="536"/>
    </contour>
    <contour>
      <point x="122" y="494" type="curve" smooth="yes"/>
      <point x="335" y="370" type="line" smooth="yes"/>
      <point x="351" y="361"/>
      <point x="357" y="339"/>
      <point x="347" y="322" type="curve" smooth="yes"/>
      <point x="338" y="306"/>
      <point x="316" y="300"/>
      <point x="299" y="310" type="curve" smooth="yes"/>
      <point x="86" y="434" type="line" smooth="yes"/>
      <point x="70" y="443"/>
      <point x="64" y="465"/>
      <point x="74" y="482" type="curve" smooth="yes"/>
      <point x="83" y="498"/>
      <point x="105" y="504"/>
    </contour>
    <contour>
      <point x="86" y="370" type="curve" smooth="yes"/>
      <point x="299" y="494" type="line" smooth="yes"/>
      <point x="316" y="504"/>
      <point x="338" y="498"/>
      <point x="347" y="482" type="curve" smooth="yes"/>
      <point x="357" y="465"/>
      <point x="351" y="443"/>
      <point x="335" y="434" type="curve" smooth="yes"/>
      <point x="122" y="310" type="line" smooth="yes"/>
      <point x="105" y="300"/>
      <point x="83" y="306"/>
      <point x="74" y="322" type="curve" smooth="yes"/>
      <point x="64" y="339"/>
      <point x="70" y="361"/>
    </contour>
  </outline>
</glyph>
<glyph name="plus" format="1">
  <advance width="491"/>
  <unicode hex="002B"/>
  <outline>
    <contour>
      <point x="92" y="294" type="curve" smooth="yes"/>
      <point x="398" y="294" type="line" smooth="yes"/>
      <point x="417" y="294"/>
      <point x="433" y="278"/>
      <point x="433" y="259" type="curve" smooth="yes"/>
      <point x="433" y="240"/>
      <point x="417" y="224"/>
      <point x="398" y="224" type="curve" smooth="yes"/>
      <point x="92" y="224" type="line" smooth="yes"/>
      <point x="73" y="224"/>
      <point x="57" y="240"/>
      <point x="57" y="259" type="curve" smooth="yes"/>
      <point x="57" y="278"/>
      <point x="73" y="294"/>
    </contour>
    <contour>
      <point x="210" y="110" type="curve" smooth="yes"/>
      <point x="210" y="407" type="line" smooth="yes"/>
      <point x="210" y="426"/>
      <point x="226" y="442"/>
      <point x="245" y="442" type="curve" smooth="yes"/>
      <point x="264" y="442"/>
      <point x="280" y="426"/>
      <point x="280" y="407" type="curve" smooth="yes"/>
      <point x="280" y="110" type="line" smooth="yes"/>
      <point x="280" y="91"/>
      <point x="264" y="75"/>
      <point x="245" y="75" type="curve" smooth="yes"/>
      <point x="226" y="75"/>
      <point x="210" y="91"/>
    </contour>
  </outline>
</glyph>
<glyph name="comma" format="1">
  <advance width="240"/>
  <unicode hex="002C"/>
  <outline>
    <contour>
      <point x="148" y="98" type="curve" smooth="yes"/>
      <point x="153" y="83"/>
      <point x="156" y="61"/>
      <point x="156" y="38" type="curve" smooth="yes"/>
      <point x="156" y="-16"/>
      <point x="137" y="-69"/>
      <point x="107" y="-110" type="curve" smooth="yes"/>
      <point x="96" y="-125"/>
      <point x="73" y="-128"/>
      <point x="58" y="-117" type="curve" smooth="yes"/>
      <point x="43" y="-106"/>
      <point x="40" y="-83"/>
      <point x="51" y="-68" type="curve" smooth="yes"/>
      <point x="73" y="-39"/>
      <point x="86" y="0"/>
      <point x="86" y="38" type="curve" smooth="yes"/>
      <point x="86" y="53"/>
      <point x="85" y="67"/>
      <point x="82" y="76" type="curve" smooth="yes"/>
      <point x="76" y="94"/>
      <point x="86" y="114"/>
      <point x="104" y="120" type="curve" smooth="yes"/>
      <point x="122" y="126"/>
      <point x="142" y="116"/>
    </contour>
  </outline>
</glyph>
<glyph name="hyphen" format="1">
  <advance width="430"/>
  <unicode hex="002D"/>
  <outline>
    <contour>
      <point x="114" y="263" type="curve" smooth="yes"/>
      <point x="316" y="263" type="line" smooth="yes"/>
      <point x="335" y="263"/>
      <point x="351" y="247"/>
      <point x="351" y="228" type="curve" smooth="yes"/>
      <point x="351" y="209"/>
      <point x="335" y="193"/>
      <point x="316" y="193" type="curve" smooth="yes"/>
      <point x="114" y="193" type="line" smooth="yes"/>
      <point x="95" y="193"/>
      <point x="79" y="209"/>
      <point x="79" y="228" type="curve" smooth="yes"/>
      <point x="79" y="247"/>
      <point x="95" y="263"/>
    </contour>
  </outline>
</glyph>
<glyph name="period" format="1">
  <advance width="235"/>
  <unicode hex="002E"/>
  <outline>
    <contour>
      <point x="119" y="121" type="curve" smooth="yes"/>
      <point x="150" y="121"/>
      <point x="174" y="96"/>
      <point x="174" y="57" type="curve" smooth="yes"/>
      <point x="174" y="10"/>
      <point x="150" y="-7"/>
      <point x="119" y="-7" type="curve" smooth="yes"/>
      <point x="93" y="-7"/>
      <point x="63" y="12"/>
      <point x="63" y="57" type="curve"/>
      <point x="63" y="94"/>
      <point x="93" y="121"/>
    </contour>
    <contour>
      <point x="119" y="51" type="curve" smooth="yes"/>
      <point x="121" y="51"/>
      <point x="133" y="48"/>
      <point x="133" y="57" type="curve" smooth="yes"/>
      <point x="133" y="68"/>
      <point x="121" y="63"/>
      <point x="119" y="63" type="curve" smooth="yes"/>
      <point x="116" y="63"/>
      <point x="104" y="70"/>
      <point x="104" y="57" type="curve" smooth="yes"/>
      <point x="104" y="47"/>
      <point x="116" y="51"/>
    </contour>
  </outline>
</glyph>
<glyph name="slash" format="1">
  <advance width="325"/>
  <unicode hex="002F"/>
  <outline>
    <contour>
      <point x="314" y="601" type="curve" smooth="yes"/>
      <point x="65" y="-79" type="line" smooth="yes"/>
      <point x="58" y="-97"/>
      <point x="38" y="-106"/>
      <point x="20" y="-100" type="curve" smooth="yes"/>
      <point x="2" y="-93"/>
      <point x="-7" y="-73"/>
      <point x="-1" y="-55" type="curve" smooth="yes"/>
      <point x="248" y="625" type="line" smooth="yes"/>
      <point x="255" y="643"/>
      <point x="275" y="652"/>
      <point x="293" y="646" type="curve" smooth="yes"/>
      <point x="311" y="639"/>
      <point x="320" y="619"/>
    </contour>
  </outline>
</glyph>
<glyph name="zero" format="1">
  <advance width="576"/>
  <unicode hex="0030"/>
  <outline>
    <contour>
      <point x="289" y="560" type="curve" smooth="yes"/>
      <point x="413" y="560"/>
      <point x="521" y="447"/>
      <point x="521" y="276" type="curve" smooth="yes"/>
      <point x="521" y="115"/>
      <point x="433" y="-9"/>
      <point x="289" y="-9" type="curve" smooth="yes"/>
      <point x="157" y="-9"/>
      <point x="54" y="115"/>
      <point x="54" y="274" type="curve"/>
      <point x="54" y="447"/>
      <point x="155" y="560"/>
    </contour>
    <contour>
      <point x="289" y="490" type="curve" smooth="yes"/>
      <point x="187" y="490"/>
      <point x="124" y="395"/>
      <point x="124" y="274" type="curve" smooth="yes"/>
      <point x="124" y="163"/>
      <point x="189" y="61"/>
      <point x="289" y="61" type="curve" smooth="yes"/>
      <point x="397" y="61"/>
      <point x="451" y="163"/>
      <point x="451" y="276" type="curve" smooth="yes"/>
      <point x="451" y="395"/>
      <point x="383" y="490"/>
    </contour>
  </outline>
</glyph>
<glyph name="one" format="1">
  <advance width="330"/>
  <unicode hex="0031"/>
  <outline>
    <contour>
      <point x="237" y="506" type="curve" smooth="yes"/>
      <point x="237" y="33" type="line" smooth="yes"/>
      <point x="237" y="14"/>
      <point x="221" y="-2"/>
      <point x="202" y="-2" type="curve" smooth="yes"/>
      <point x="183" y="-2"/>
      <point x="167" y="14"/>
      <point x="167" y="33" type="curve" smooth="yes"/>
      <point x="167" y="506" type="line" smooth="yes"/>
      <point x="167" y="525"/>
      <point x="183" y="541"/>
      <point x="202" y="541" type="curve" smooth="yes"/>
      <point x="221" y="541"/>
      <point x="237" y="525"/>
    </contour>
    <contour>
      <point x="218" y="482" type="curve" smooth="yes"/>
      <point x="88" y="416" type="line" smooth="yes"/>
      <point x="71" y="407"/>
      <point x="49" y="414"/>
      <point x="41" y="431" type="curve" smooth="yes"/>
      <point x="32" y="448"/>
      <point x="39" y="470"/>
      <point x="56" y="478" type="curve" smooth="yes"/>
      <point x="186" y="544" type="line" smooth="yes"/>
      <point x="203" y="553"/>
      <point x="225" y="546"/>
      <point x="233" y="529" type="curve" smooth="yes"/>
      <point x="242" y="512"/>
      <point x="235" y="490"/>
    </contour>
  </outline>
</glyph>
<glyph name="two" format="1">
  <advance width="518"/>
  <unicode hex="0032"/>
  <outline>
    <contour>
      <point x="67" y="67" type="curve" smooth="yes"/>
      <point x="233" y="226" type="line" smooth="yes"/>
      <point x="329" y="318"/>
      <point x="365" y="354"/>
      <point x="365" y="410" type="curve" smooth="yes"/>
      <point x="365" y="453"/>
      <point x="327" y="489"/>
      <point x="263" y="489" type="curve" smooth="yes"/>
      <point x="217" y="489"/>
      <point x="172" y="476"/>
      <point x="130" y="450" type="curve" smooth="yes"/>
      <point x="114" y="440"/>
      <point x="92" y="446"/>
      <point x="82" y="462" type="curve" smooth="yes"/>
      <point x="72" y="478"/>
      <point x="78" y="500"/>
      <point x="94" y="510" type="curve" smooth="yes"/>
      <point x="146" y="542"/>
      <point x="205" y="559"/>
      <point x="263" y="559" type="curve" smooth="yes"/>
      <point x="383" y="559"/>
      <point x="435" y="483"/>
      <point x="435" y="410" type="curve" smooth="yes"/>
      <point x="435" y="342"/>
      <point x="403" y="292"/>
      <point x="281" y="176" type="curve" smooth="yes"/>
      <point x="115" y="17" type="line" smooth="yes"/>
      <point x="102" y="4"/>
      <point x="79" y="4"/>
      <point x="66" y="18" type="curve" smooth="yes"/>
      <point x="53" y="31"/>
      <point x="53" y="54"/>
    </contour>
    <contour>
      <point x="433" y="-2" type="curve" smooth="yes"/>
      <point x="81" y="-2" type="line" smooth="yes"/>
      <point x="62" y="-2"/>
      <point x="46" y="14"/>
      <point x="46" y="33" type="curve" smooth="yes"/>
      <point x="46" y="52"/>
      <point x="62" y="68"/>
      <point x="81" y="68" type="curve" smooth="yes"/>
      <point x="433" y="68" type="line" smooth="yes"/>
      <point x="452" y="68"/>
      <point x="468" y="52"/>
      <point x="468" y="33" type="curve" smooth="yes"/>
      <point x="468" y="14"/>
      <point x="452" y="-2"/>
    </contour>
  </outline>
</glyph>
<glyph name="three" format="1">
  <advance width="522"/>
  <unicode hex="0033"/>
  <outline>
    <contour>
      <point x="120" y="553" type="curve" smooth="yes"/>
      <point x="417" y="553" type="line" smooth="yes"/>
      <point x="436" y="553"/>
      <point x="452" y="537"/>
      <point x="452" y="518" type="curve" smooth="yes"/>
      <point x="452" y="499"/>
      <point x="436" y="483"/>
      <point x="417" y="483" type="curve" smooth="yes"/>
      <point x="120" y="483" type="line" smooth="yes"/>
      <point x="101" y="483"/>
      <point x="85" y="499"/>
      <point x="85" y="518" type="curve" smooth="yes"/>
      <point x="85" y="537"/>
      <point x="101" y="553"/>
    </contour>
    <contour>
      <point x="117" y="92" type="curve" smooth="yes"/>
      <point x="155" y="76"/>
      <point x="203" y="64"/>
      <point x="260" y="64" type="curve" smooth="yes"/>
      <point x="346" y="64"/>
      <point x="397" y="103"/>
      <point x="397" y="165" type="curve" smooth="yes"/>
      <point x="397" y="225"/>
      <point x="345" y="260"/>
      <point x="271" y="260" type="curve" smooth="yes"/>
      <point x="229" y="260"/>
      <point x="194" y="253"/>
      <point x="175" y="247" type="curve" smooth="yes"/>
      <point x="157" y="241"/>
      <point x="136" y="251"/>
      <point x="131" y="269" type="curve" smooth="yes"/>
      <point x="125" y="287"/>
      <point x="135" y="308"/>
      <point x="153" y="313" type="curve" smooth="yes"/>
      <point x="178" y="321"/>
      <point x="219" y="330"/>
      <point x="271" y="330" type="curve" smooth="yes"/>
      <point x="399" y="330"/>
      <point x="467" y="259"/>
      <point x="467" y="165" type="curve" smooth="yes"/>
      <point x="467" y="71"/>
      <point x="406" y="-6"/>
      <point x="260" y="-6" type="curve" smooth="yes"/>
      <point x="193" y="-6"/>
      <point x="135" y="8"/>
      <point x="89" y="28" type="curve" smooth="yes"/>
      <point x="72" y="35"/>
      <point x="63" y="56"/>
      <point x="71" y="74" type="curve" smooth="yes"/>
      <point x="78" y="91"/>
      <point x="99" y="100"/>
    </contour>
    <contour>
      <point x="432" y="485" type="curve" smooth="yes"/>
      <point x="193" y="259" type="line" smooth="yes"/>
      <point x="179" y="246"/>
      <point x="157" y="246"/>
      <point x="144" y="260" type="curve" smooth="yes"/>
      <point x="131" y="274"/>
      <point x="131" y="296"/>
      <point x="145" y="309" type="curve" smooth="yes"/>
      <point x="384" y="535" type="line" smooth="yes"/>
      <point x="398" y="548"/>
      <point x="420" y="548"/>
      <point x="433" y="534" type="curve" smooth="yes"/>
      <point x="446" y="520"/>
      <point x="446" y="498"/>
    </contour>
  </outline>
</glyph>
<glyph name="four" format="1">
  <advance width="541"/>
  <unicode hex="0034"/>
  <outline>
    <contour>
      <point x="407" y="528" type="curve" smooth="yes"/>
      <point x="407" y="33" type="line" smooth="yes"/>
      <point x="407" y="14"/>
      <point x="391" y="-2"/>
      <point x="372" y="-2" type="curve" smooth="yes"/>
      <point x="353" y="-2"/>
      <point x="337" y="14"/>
      <point x="337" y="33" type="curve" smooth="yes"/>
      <point x="337" y="528" type="line" smooth="yes"/>
      <point x="337" y="547"/>
      <point x="353" y="563"/>
      <point x="372" y="563" type="curve" smooth="yes"/>
      <point x="391" y="563"/>
      <point x="407" y="547"/>
    </contour>
    <contour>
      <point x="392" y="497" type="curve" smooth="yes"/>
      <point x="93" y="135" type="line" smooth="yes"/>
      <point x="81" y="120"/>
      <point x="58" y="118"/>
      <point x="44" y="130" type="curve" smooth="yes"/>
      <point x="29" y="142"/>
      <point x="27" y="165"/>
      <point x="39" y="179" type="curve" smooth="yes"/>
      <point x="338" y="541" type="line" smooth="yes"/>
      <point x="350" y="556"/>
      <point x="373" y="558"/>
      <point x="387" y="546" type="curve" smooth="yes"/>
      <point x="402" y="534"/>
      <point x="404" y="511"/>
    </contour>
    <contour>
      <point x="76" y="192" type="curve" smooth="yes"/>
      <point x="480" y="192" type="line" smooth="yes"/>
      <point x="499" y="192"/>
      <point x="515" y="176"/>
      <point x="515" y="157" type="curve" smooth="yes"/>
      <point x="515" y="138"/>
      <point x="499" y="122"/>
      <point x="480" y="122" type="curve" smooth="yes"/>
      <point x="76" y="122" type="line" smooth="yes"/>
      <point x="57" y="122"/>
      <point x="41" y="138"/>
      <point x="41" y="157" type="curve" smooth="yes"/>
      <point x="41" y="176"/>
      <point x="57" y="192"/>
    </contour>
  </outline>
</glyph>
<glyph name="five" format="1">
  <advance width="531"/>
  <unicode hex="0035"/>
  <outline>
    <contour>
      <point x="149" y="553" type="curve" smooth="yes"/>
      <point x="406" y="553" type="line" smooth="yes"/>
      <point x="425" y="553"/>
      <point x="441" y="537"/>
      <point x="441" y="518" type="curve" smooth="yes"/>
      <point x="441" y="499"/>
      <point x="425" y="483"/>
      <point x="406" y="483" type="curve" smooth="yes"/>
      <point x="149" y="483" type="line" smooth="yes"/>
      <point x="130" y="483"/>
      <point x="114" y="499"/>
      <point x="114" y="518" type="curve" smooth="yes"/>
      <point x="114" y="537"/>
      <point x="130" y="553"/>
    </contour>
    <contour>
      <point x="116" y="96" type="curve" smooth="yes"/>
      <point x="155" y="77"/>
      <point x="211" y="64"/>
      <point x="271" y="64" type="curve" smooth="yes"/>
      <point x="358" y="64"/>
      <point x="402" y="112"/>
      <point x="402" y="177" type="curve" smooth="yes"/>
      <point x="402" y="238"/>
      <point x="350" y="278"/>
      <point x="275" y="278" type="curve" smooth="yes"/>
      <point x="216" y="278"/>
      <point x="173" y="263"/>
      <point x="144" y="249" type="curve" smooth="yes"/>
      <point x="127" y="241"/>
      <point x="105" y="249"/>
      <point x="97" y="266" type="curve" smooth="yes"/>
      <point x="89" y="283"/>
      <point x="97" y="305"/>
      <point x="114" y="313" type="curve" smooth="yes"/>
      <point x="149" y="329"/>
      <point x="202" y="348"/>
      <point x="275" y="348" type="curve" smooth="yes"/>
      <point x="402" y="348"/>
      <point x="472" y="272"/>
      <point x="472" y="177" type="curve" smooth="yes"/>
      <point x="472" y="77"/>
      <point x="412" y="-6"/>
      <point x="271" y="-6" type="curve" smooth="yes"/>
      <point x="199" y="-6"/>
      <point x="133" y="11"/>
      <point x="86" y="32" type="curve" smooth="yes"/>
      <point x="69" y="40"/>
      <point x="61" y="62"/>
      <point x="69" y="79" type="curve" smooth="yes"/>
      <point x="77" y="96"/>
      <point x="99" y="104"/>
    </contour>
    <contour>
      <point x="183" y="508" type="curve" smooth="yes"/>
      <point x="164" y="283" type="line" smooth="yes"/>
      <point x="162" y="264"/>
      <point x="145" y="250"/>
      <point x="126" y="251" type="curve" smooth="yes"/>
      <point x="107" y="253"/>
      <point x="93" y="270"/>
      <point x="94" y="289" type="curve" smooth="yes"/>
      <point x="113" y="514" type="line" smooth="yes"/>
      <point x="115" y="533"/>
      <point x="132" y="547"/>
      <point x="151" y="546" type="curve" smooth="yes"/>
      <point x="170" y="544"/>
      <point x="184" y="527"/>
    </contour>
  </outline>
</glyph>
<glyph name="six" format="1">
  <advance width="549"/>
  <unicode hex="0036"/>
  <outline>
    <contour>
      <point x="382" y="475" type="curve" smooth="yes"/>
      <point x="359" y="483"/>
      <point x="340" y="487"/>
      <point x="311" y="487" type="curve" smooth="yes"/>
      <point x="197" y="487"/>
      <point x="135" y="395"/>
      <point x="135" y="257" type="curve" smooth="yes"/>
      <point x="135" y="132"/>
      <point x="195" y="64"/>
      <point x="290" y="64" type="curve" smooth="yes"/>
      <point x="382" y="64"/>
      <point x="422" y="123"/>
      <point x="422" y="181" type="curve" smooth="yes"/>
      <point x="422" y="243"/>
      <point x="375" y="284"/>
      <point x="310" y="284" type="curve" smooth="yes"/>
      <point x="234" y="284"/>
      <point x="175" y="230"/>
      <point x="150" y="141" type="curve" smooth="yes"/>
      <point x="145" y="122"/>
      <point x="125" y="111"/>
      <point x="107" y="116" type="curve" smooth="yes"/>
      <point x="88" y="121"/>
      <point x="77" y="141"/>
      <point x="82" y="159" type="curve" smooth="yes"/>
      <point x="117" y="286"/>
      <point x="206" y="354"/>
      <point x="310" y="354" type="curve" smooth="yes"/>
      <point x="419" y="354"/>
      <point x="492" y="283"/>
      <point x="492" y="181" type="curve" smooth="yes"/>
      <point x="492" y="91"/>
      <point x="436" y="-6"/>
      <point x="290" y="-6" type="curve" smooth="yes"/>
      <point x="161" y="-6"/>
      <point x="65" y="76"/>
      <point x="65" y="257" type="curve" smooth="yes"/>
      <point x="65" y="451"/>
      <point x="163" y="557"/>
      <point x="311" y="557" type="curve" smooth="yes"/>
      <point x="348" y="557"/>
      <point x="373" y="551"/>
      <point x="404" y="541" type="curve" smooth="yes"/>
      <point x="422" y="535"/>
      <point x="432" y="515"/>
      <point x="426" y="497" type="curve" smooth="yes"/>
      <point x="420" y="479"/>
      <point x="400" y="469"/>
    </contour>
  </outline>
</glyph>
<glyph name="seven" format="1">
  <advance width="476"/>
  <unicode hex="0037"/>
  <outline>
    <contour>
      <point x="447" y="500" type="curve" smooth="yes"/>
      <point x="409" y="429"/>
      <point x="306" y="290"/>
      <point x="276" y="239" type="curve" smooth="yes"/>
      <point x="252" y="195"/>
      <point x="232" y="141"/>
      <point x="232" y="88" type="curve" smooth="yes"/>
      <point x="232" y="33" type="line" smooth="yes"/>
      <point x="232" y="14"/>
      <point x="216" y="-2"/>
      <point x="197" y="-2" type="curve" smooth="yes"/>
      <point x="178" y="-2"/>
      <point x="162" y="14"/>
      <point x="162" y="33" type="curve" smooth="yes"/>
      <point x="162" y="88" type="line" smooth="yes"/>
      <point x="162" y="153"/>
      <point x="186" y="219"/>
      <point x="216" y="273" type="curve" smooth="yes"/>
      <point x="244" y="324"/>
      <point x="347" y="463"/>
      <point x="385" y="534" type="curve" smooth="yes"/>
      <point x="394" y="550"/>
      <point x="416" y="557"/>
      <point x="433" y="548" type="curve" smooth="yes"/>
      <point x="449" y="539"/>
      <point x="456" y="517"/>
    </contour>
    <contour>
      <point x="409" y="483" type="curve" smooth="yes"/>
      <point x="66" y="483" type="line" smooth="yes"/>
      <point x="47" y="483"/>
      <point x="31" y="499"/>
      <point x="31" y="518" type="curve" smooth="yes"/>
      <point x="31" y="537"/>
      <point x="47" y="553"/>
      <point x="66" y="553" type="curve" smooth="yes"/>
      <point x="409" y="553" type="line" smooth="yes"/>
      <point x="428" y="553"/>
      <point x="444" y="537"/>
      <point x="444" y="518" type="curve" smooth="yes"/>
      <point x="444" y="499"/>
      <point x="428" y="483"/>
    </contour>
  </outline>
</glyph>
<glyph name="eight" format="1">
  <advance width="568"/>
  <unicode hex="0038"/>
  <outline>
    <contour>
      <point x="285" y="330" type="curve" smooth="yes"/>
      <point x="425" y="330"/>
      <point x="503" y="256"/>
      <point x="503" y="160" type="curve" smooth="yes"/>
      <point x="503" y="72"/>
      <point x="451" y="-10"/>
      <point x="285" y="-10" type="curve" smooth="yes"/>
      <point x="129" y="-10"/>
      <point x="65" y="72"/>
      <point x="65" y="159" type="curve" smooth="yes"/>
      <point x="65" y="257"/>
      <point x="137" y="330"/>
    </contour>
    <contour>
      <point x="285" y="560" type="curve" smooth="yes"/>
      <point x="411" y="560"/>
      <point x="477" y="496"/>
      <point x="477" y="412" type="curve" smooth="yes"/>
      <point x="477" y="333"/>
      <point x="421" y="260"/>
      <point x="285" y="260" type="curve" smooth="yes"/>
      <point x="142" y="260"/>
      <point x="91" y="333"/>
      <point x="91" y="412" type="curve" smooth="yes"/>
      <point x="91" y="496"/>
      <point x="153" y="560"/>
    </contour>
    <contour>
      <point x="285" y="260" type="curve" smooth="yes"/>
      <point x="197" y="260"/>
      <point x="135" y="225"/>
      <point x="135" y="159" type="curve" smooth="yes"/>
      <point x="135" y="100"/>
      <point x="193" y="60"/>
      <point x="285" y="60" type="curve" smooth="yes"/>
      <point x="383" y="60"/>
      <point x="433" y="100"/>
      <point x="433" y="160" type="curve" smooth="yes"/>
      <point x="433" y="226"/>
      <point x="367" y="260"/>
    </contour>
    <contour>
      <point x="285" y="490" type="curve" smooth="yes"/>
      <point x="215" y="490"/>
      <point x="161" y="466"/>
      <point x="161" y="412" type="curve" smooth="yes"/>
      <point x="161" y="361"/>
      <point x="208" y="330"/>
      <point x="285" y="330" type="curve" smooth="yes"/>
      <point x="359" y="330"/>
      <point x="407" y="361"/>
      <point x="407" y="412" type="curve" smooth="yes"/>
      <point x="407" y="466"/>
      <point x="351" y="490"/>
    </contour>
  </outline>
</glyph>
<glyph name="nine" format="1">
  <advance width="546"/>
  <unicode hex="0039"/>
  <outline>
    <contour>
      <point x="165" y="77" type="curve" smooth="yes"/>
      <point x="188" y="71"/>
      <point x="209" y="65"/>
      <point x="238" y="65" type="curve" smooth="yes"/>
      <point x="357" y="65"/>
      <point x="411" y="147"/>
      <point x="411" y="278" type="curve" smooth="yes"/>
      <point x="411" y="407"/>
      <point x="354" y="487"/>
      <point x="256" y="487" type="curve" smooth="yes"/>
      <point x="171" y="487"/>
      <point x="127" y="430"/>
      <point x="127" y="372" type="curve" smooth="yes"/>
      <point x="127" y="300"/>
      <point x="172" y="261"/>
      <point x="247" y="261" type="curve" smooth="yes"/>
      <point x="326" y="261"/>
      <point x="375" y="309"/>
      <point x="413" y="371" type="curve" smooth="yes"/>
      <point x="423" y="387"/>
      <point x="445" y="393"/>
      <point x="461" y="383" type="curve" smooth="yes"/>
      <point x="477" y="373"/>
      <point x="483" y="351"/>
      <point x="473" y="335" type="curve" smooth="yes"/>
      <point x="421" y="251"/>
      <point x="352" y="191"/>
      <point x="247" y="191" type="curve" smooth="yes"/>
      <point x="124" y="191"/>
      <point x="57" y="258"/>
      <point x="57" y="372" type="curve"/>
      <point x="57" y="462"/>
      <point x="119" y="557"/>
      <point x="256" y="557" type="curve" smooth="yes"/>
      <point x="386" y="557"/>
      <point x="481" y="465"/>
      <point x="481" y="278" type="curve" smooth="yes"/>
      <point x="481" y="93"/>
      <point x="397" y="-5"/>
      <point x="238" y="-5" type="curve" smooth="yes"/>
      <point x="201" y="-5"/>
      <point x="176" y="1"/>
      <point x="147" y="9" type="curve" smooth="yes"/>
      <point x="129" y="14"/>
      <point x="117" y="34"/>
      <point x="122" y="52" type="curve" smooth="yes"/>
      <point x="127" y="70"/>
      <point x="147" y="82"/>
    </contour>
  </outline>
</glyph>
<glyph name="less" format="1">
  <advance width="491"/>
  <unicode hex="003C"/>
  <outline>
    <contour>
      <point x="85" y="295" type="curve" smooth="yes"/>
      <point x="367" y="423" type="line" smooth="yes"/>
      <point x="384" y="431"/>
      <point x="405" y="423"/>
      <point x="413" y="405" type="curve" smooth="yes"/>
      <point x="421" y="388"/>
      <point x="413" y="367"/>
      <point x="395" y="359" type="curve" smooth="yes"/>
      <point x="113" y="231" type="line" smooth="yes"/>
      <point x="96" y="223"/>
      <point x="75" y="231"/>
      <point x="67" y="249" type="curve" smooth="yes"/>
      <point x="59" y="266"/>
      <point x="67" y="287"/>
    </contour>
    <contour>
      <point x="371" y="95" type="curve" smooth="yes"/>
      <point x="79" y="228" type="line" smooth="yes"/>
      <point x="62" y="236"/>
      <point x="54" y="257"/>
      <point x="62" y="275" type="curve" smooth="yes"/>
      <point x="70" y="292"/>
      <point x="91" y="300"/>
      <point x="109" y="292" type="curve" smooth="yes"/>
      <point x="401" y="159" type="line" smooth="yes"/>
      <point x="418" y="151"/>
      <point x="426" y="130"/>
      <point x="418" y="112" type="curve" smooth="yes"/>
      <point x="410" y="95"/>
      <point x="389" y="87"/>
    </contour>
  </outline>
</glyph>
<glyph name="equal" format="1">
  <advance width="491"/>
  <unicode hex="003D"/>
  <outline>
    <contour>
      <point x="92" y="384" type="curve" smooth="yes"/>
      <point x="398" y="384" type="line" smooth="yes"/>
      <point x="417" y="384"/>
      <point x="433" y="368"/>
      <point x="433" y="349" type="curve" smooth="yes"/>
      <point x="433" y="330"/>
      <point x="417" y="314"/>
      <point x="398" y="314" type="curve" smooth="yes"/>
      <point x="92" y="314" type="line" smooth="yes"/>
      <point x="73" y="314"/>
      <point x="57" y="330"/>
      <point x="57" y="349" type="curve" smooth="yes"/>
      <point x="57" y="368"/>
      <point x="73" y="384"/>
    </contour>
    <contour>
      <point x="92" y="204" type="curve" smooth="yes"/>
      <point x="398" y="204" type="line" smooth="yes"/>
      <point x="417" y="204"/>
      <point x="433" y="188"/>
      <point x="433" y="169" type="curve" smooth="yes"/>
      <point x="433" y="150"/>
      <point x="417" y="134"/>
      <point x="398" y="134" type="curve" smooth="yes"/>
      <point x="92" y="134" type="line" smooth="yes"/>
      <point x="73" y="134"/>
      <point x="57" y="150"/>
      <point x="57" y="169" type="curve" smooth="yes"/>
      <point x="57" y="188"/>
      <point x="73" y="204"/>
    </contour>
  </outline>
</glyph>
<glyph name="question" format="1">
  <advance width="381"/>
  <unicode hex="003F"/>
  <outline>
    <contour>
      <point x="55" y="545" type="curve" smooth="yes"/>
      <point x="96" y="570"/>
      <point x="135" y="585"/>
      <point x="199" y="585" type="curve" smooth="yes"/>
      <point x="301" y="585"/>
      <point x="357" y="518"/>
      <point x="357" y="449" type="curve" smooth="yes"/>
      <point x="357" y="378"/>
      <point x="323" y="337"/>
      <point x="241" y="291" type="curve" smooth="yes"/>
      <point x="208" y="273"/>
      <point x="200" y="255"/>
      <point x="198" y="225" type="curve" smooth="yes"/>
      <point x="197" y="207"/>
      <point x="179" y="192"/>
      <point x="160" y="193" type="curve" smooth="yes"/>
      <point x="142" y="194"/>
      <point x="127" y="212"/>
      <point x="128" y="231" type="curve" smooth="yes"/>
      <point x="132" y="283"/>
      <point x="146" y="317"/>
      <point x="207" y="353" type="curve" smooth="yes"/>
      <point x="257" y="381"/>
      <point x="287" y="402"/>
      <point x="287" y="449" type="curve" smooth="yes"/>
      <point x="287" y="488"/>
      <point x="249" y="515"/>
      <point x="199" y="515" type="curve" smooth="yes"/>
      <point x="151" y="515"/>
      <point x="122" y="504"/>
      <point x="93" y="485" type="curve" smooth="yes"/>
      <point x="77" y="475"/>
      <point x="54" y="480"/>
      <point x="44" y="496" type="curve" smooth="yes"/>
      <point x="34" y="512"/>
      <point x="39" y="535"/>
    </contour>
    <component base="period" xOffset="50"/>
    <component base="period" xOffset="50"/>
  </outline>
</glyph>
<glyph name="at" format="1">
  <advance width="675"/>
  <unicode hex="0040"/>
  <outline>
    <contour>
      <point x="462" y="390" type="curve" smooth="yes"/>
      <point x="462" y="260" type="line" smooth="yes"/>
      <point x="462" y="225"/>
      <point x="480" y="198"/>
      <point x="509" y="198" type="curve" smooth="yes"/>
      <point x="545" y="198"/>
      <point x="561" y="238"/>
      <point x="561" y="285" type="curve" smooth="yes"/>
      <point x="561" y="394"/>
      <point x="479" y="493"/>
      <point x="341" y="493" type="curve" smooth="yes"/>
      <point x="211" y="493"/>
      <point x="116" y="392"/>
      <point x="116" y="271" type="curve" smooth="yes"/>
      <point x="116" y="150"/>
      <point x="210" y="58"/>
      <point x="344" y="58" type="curve" smooth="yes"/>
      <point x="400" y="58"/>
      <point x="448" y="71"/>
      <point x="483" y="86" type="curve" smooth="yes"/>
      <point x="500" y="94"/>
      <point x="522" y="85"/>
      <point x="529" y="68" type="curve" smooth="yes"/>
      <point x="537" y="51"/>
      <point x="528" y="29"/>
      <point x="511" y="22" type="curve" smooth="yes"/>
      <point x="468" y="3"/>
      <point x="412" y="-12"/>
      <point x="344" y="-12" type="curve" smooth="yes"/>
      <point x="166" y="-12"/>
      <point x="46" y="112"/>
      <point x="46" y="271" type="curve"/>
      <point x="46" y="430"/>
      <point x="171" y="563"/>
      <point x="341" y="563" type="curve" smooth="yes"/>
      <point x="525" y="563"/>
      <point x="631" y="428"/>
      <point x="631" y="285" type="curve" smooth="yes"/>
      <point x="631" y="176"/>
      <point x="573" y="128"/>
      <point x="509" y="128" type="curve" smooth="yes"/>
      <point x="448" y="128"/>
      <point x="392" y="173"/>
      <point x="392" y="260" type="curve" smooth="yes"/>
      <point x="392" y="390" type="line" smooth="yes"/>
      <point x="392" y="409"/>
      <point x="408" y="425"/>
      <point x="427" y="425" type="curve" smooth="yes"/>
      <point x="446" y="425"/>
      <point x="462" y="409"/>
    </contour>
    <contour>
      <point x="408" y="334" type="curve" smooth="yes"/>
      <point x="387" y="347"/>
      <point x="365" y="355"/>
      <point x="336" y="355" type="curve" smooth="yes"/>
      <point x="293" y="355"/>
      <point x="260" y="320"/>
      <point x="260" y="267" type="curve" smooth="yes"/>
      <point x="260" y="226"/>
      <point x="286" y="199"/>
      <point x="318" y="199" type="curve" smooth="yes"/>
      <point x="348" y="199"/>
      <point x="376" y="218"/>
      <point x="396" y="253" type="curve" smooth="yes"/>
      <point x="405" y="269"/>
      <point x="427" y="275"/>
      <point x="444" y="265" type="curve" smooth="yes"/>
      <point x="460" y="256"/>
      <point x="466" y="234"/>
      <point x="456" y="217" type="curve" smooth="yes"/>
      <point x="420" y="156"/>
      <point x="368" y="129"/>
      <point x="318" y="129" type="curve" smooth="yes"/>
      <point x="254" y="129"/>
      <point x="190" y="178"/>
      <point x="190" y="267" type="curve" smooth="yes"/>
      <point x="190" y="368"/>
      <point x="259" y="425"/>
      <point x="336" y="425" type="curve" smooth="yes"/>
      <point x="381" y="425"/>
      <point x="415" y="413"/>
      <point x="446" y="392" type="curve" smooth="yes"/>
      <point x="462" y="382"/>
      <point x="467" y="360"/>
      <point x="456" y="344" type="curve" smooth="yes"/>
      <point x="446" y="328"/>
      <point x="424" y="323"/>
    </contour>
  </outline>
</glyph>
<glyph name="A" format="1">
  <advance width="568"/>
  <unicode hex="0041"/>
  <outline>
    <contour>
      <point x="307" y="513" type="curve" smooth="yes"/>
      <point x="239" y="361"/>
      <point x="145" y="147"/>
      <point x="100" y="21" type="curve" smooth="yes"/>
      <point x="94" y="3"/>
      <point x="73" y="-6"/>
      <point x="55" y="0" type="curve" smooth="yes"/>
      <point x="37" y="6"/>
      <point x="28" y="27"/>
      <point x="34" y="45" type="curve" smooth="yes"/>
      <point x="79" y="171"/>
      <point x="175" y="387"/>
      <point x="243" y="541" type="curve" smooth="yes"/>
      <point x="251" y="558"/>
      <point x="272" y="567"/>
      <point x="289" y="559" type="curve" smooth="yes"/>
      <point x="306" y="551"/>
      <point x="315" y="530"/>
    </contour>
    <contour>
      <point x="313" y="542" type="curve" smooth="yes"/>
      <point x="385" y="387"/>
      <point x="483" y="169"/>
      <point x="532" y="46" type="curve" smooth="yes"/>
      <point x="538" y="28"/>
      <point x="529" y="7"/>
      <point x="512" y="0" type="curve" smooth="yes"/>
      <point x="494" y="-6"/>
      <point x="473" y="3"/>
      <point x="466" y="20" type="curve" smooth="yes"/>
      <point x="419" y="143"/>
      <point x="321" y="359"/>
      <point x="249" y="512" type="curve" smooth="yes"/>
      <point x="241" y="529"/>
      <point x="249" y="551"/>
      <point x="266" y="559" type="curve" smooth="yes"/>
      <point x="283" y="567"/>
      <point x="305" y="559"/>
    </contour>
    <contour>
      <point x="136" y="213" type="curve" smooth="yes"/>
      <point x="427" y="213" type="line" smooth="yes"/>
      <point x="446" y="213"/>
      <point x="462" y="197"/>
      <point x="462" y="178" type="curve" smooth="yes"/>
      <point x="462" y="159"/>
      <point x="446" y="143"/>
      <point x="427" y="143" type="curve" smooth="yes"/>
      <point x="136" y="143" type="line" smooth="yes"/>
      <point x="117" y="143"/>
      <point x="101" y="159"/>
      <point x="101" y="178" type="curve" smooth="yes"/>
      <point x="101" y="197"/>
      <point x="117" y="213"/>
    </contour>
  </outline>
</glyph>
<glyph name="B" format="1">
  <advance width="521"/>
  <unicode hex="0042"/>
  <outline>
    <contour>
      <point x="137" y="328" type="curve" smooth="yes"/>
      <point x="276" y="328" type="line" smooth="yes"/>
      <point x="339" y="328"/>
      <point x="394" y="305"/>
      <point x="428" y="272" type="curve" smooth="yes"/>
      <point x="460" y="240"/>
      <point x="475" y="202"/>
      <point x="475" y="160" type="curve" smooth="yes"/>
      <point x="475" y="121"/>
      <point x="461" y="82"/>
      <point x="431" y="52" type="curve" smooth="yes"/>
      <point x="400" y="21"/>
      <point x="353" y="-2"/>
      <point x="273" y="-2" type="curve" smooth="yes"/>
      <point x="128" y="-2" type="line" smooth="yes"/>
      <point x="109" y="-2"/>
      <point x="93" y="14"/>
      <point x="93" y="33" type="curve" smooth="yes"/>
      <point x="93" y="518" type="line" smooth="yes"/>
      <point x="93" y="537"/>
      <point x="109" y="553"/>
      <point x="128" y="553" type="curve" smooth="yes"/>
      <point x="257" y="553" type="line" smooth="yes"/>
      <point x="319" y="553"/>
      <point x="361" y="532"/>
      <point x="387" y="506" type="curve" smooth="yes"/>
      <point x="411" y="482"/>
      <point x="427" y="442"/>
      <point x="427" y="407" type="curve" smooth="yes"/>
      <point x="427" y="368"/>
      <point x="411" y="331"/>
      <point x="387" y="307" type="curve" smooth="yes"/>
      <point x="364" y="285"/>
      <point x="322" y="262"/>
      <point x="271" y="258" type="curve" smooth="yes"/>
      <point x="252" y="257"/>
      <point x="234" y="272"/>
      <point x="233" y="290" type="curve" smooth="yes"/>
      <point x="232" y="309"/>
      <point x="247" y="327"/>
      <point x="265" y="328" type="curve" smooth="yes"/>
      <point x="296" y="330"/>
      <point x="324" y="343"/>
      <point x="337" y="357" type="curve" smooth="yes"/>
      <point x="349" y="369"/>
      <point x="357" y="388"/>
      <point x="357" y="407" type="curve" smooth="yes"/>
      <point x="357" y="424"/>
      <point x="349" y="444"/>
      <point x="337" y="456" type="curve" smooth="yes"/>
      <point x="321" y="472"/>
      <point x="295" y="483"/>
      <point x="257" y="483" type="curve" smooth="yes"/>
      <point x="128" y="483" type="line"/>
      <point x="163" y="518" type="line"/>
      <point x="163" y="33" type="line"/>
      <point x="128" y="68" type="line"/>
      <point x="273" y="68" type="line" smooth="yes"/>
      <point x="327" y="68"/>
      <point x="360" y="81"/>
      <point x="381" y="102" type="curve" smooth="yes"/>
      <point x="397" y="118"/>
      <point x="405" y="139"/>
      <point x="405" y="160" type="curve" smooth="yes"/>
      <point x="405" y="184"/>
      <point x="396" y="204"/>
      <point x="378" y="222" type="curve" smooth="yes"/>
      <point x="356" y="245"/>
      <point x="317" y="258"/>
      <point x="276" y="258" type="curve" smooth="yes"/>
      <point x="137" y="258" type="line" smooth="yes"/>
      <point x="118" y="258"/>
      <point x="102" y="274"/>
      <point x="102" y="293" type="curve" smooth="yes"/>
      <point x="102" y="312"/>
      <point x="118" y="328"/>
    </contour>
  </outline>
</glyph>
<glyph name="C" format="1">
  <advance width="563"/>
  <unicode hex="0043"/>
  <outline>
    <contour>
      <point x="453" y="467" type="curve" smooth="yes"/>
      <point x="424" y="483"/>
      <point x="380" y="492"/>
      <point x="334" y="492" type="curve" smooth="yes"/>
      <point x="219" y="492"/>
      <point x="121" y="403"/>
      <point x="121" y="272" type="curve" smooth="yes"/>
      <point x="121" y="151"/>
      <point x="202" y="59"/>
      <point x="340" y="59" type="curve" smooth="yes"/>
      <point x="386" y="59"/>
      <point x="426" y="68"/>
      <point x="459" y="85" type="curve" smooth="yes"/>
      <point x="476" y="94"/>
      <point x="498" y="87"/>
      <point x="506" y="70" type="curve" smooth="yes"/>
      <point x="515" y="53"/>
      <point x="508" y="31"/>
      <point x="491" y="23" type="curve" smooth="yes"/>
      <point x="450" y="2"/>
      <point x="398" y="-11"/>
      <point x="340" y="-11" type="curve" smooth="yes"/>
      <point x="156" y="-11"/>
      <point x="51" y="113"/>
      <point x="51" y="272" type="curve"/>
      <point x="51" y="447"/>
      <point x="183" y="562"/>
      <point x="334" y="562" type="curve" smooth="yes"/>
      <point x="394" y="562"/>
      <point x="450" y="549"/>
      <point x="487" y="529" type="curve" smooth="yes"/>
      <point x="503" y="520"/>
      <point x="510" y="498"/>
      <point x="501" y="481" type="curve" smooth="yes"/>
      <point x="492" y="465"/>
      <point x="470" y="458"/>
    </contour>
  </outline>
</glyph>
<glyph name="D" format="1">
  <advance width="617"/>
  <unicode hex="0044"/>
  <outline>
    <contour>
      <point x="304" y="-2" type="curve" smooth="yes"/>
      <point x="128" y="-2" type="line" smooth="yes"/>
      <point x="109" y="-2"/>
      <point x="93" y="14"/>
      <point x="93" y="33" type="curve" smooth="yes"/>
      <point x="93" y="518" type="line" smooth="yes"/>
      <point x="93" y="537"/>
      <point x="109" y="553"/>
      <point x="128" y="553" type="curve" smooth="yes"/>
      <point x="304" y="553" type="line" smooth="yes"/>
      <point x="441" y="553"/>
      <point x="566" y="440"/>
      <point x="566" y="276" type="curve" smooth="yes"/>
      <point x="566" y="120"/>
      <point x="462" y="-2"/>
    </contour>
    <contour>
      <point x="304" y="68" type="line" smooth="yes"/>
      <point x="422" y="68"/>
      <point x="496" y="162"/>
      <point x="496" y="276" type="curve" smooth="yes"/>
      <point x="496" y="396"/>
      <point x="407" y="483"/>
      <point x="304" y="483" type="curve" smooth="yes"/>
      <point x="128" y="483" type="line"/>
      <point x="163" y="518" type="line"/>
      <point x="163" y="33" type="line"/>
      <point x="128" y="68" type="line"/>
    </contour>
  </outline>
</glyph>
<glyph name="E" format="1">
  <advance width="495"/>
  <unicode hex="0045"/>
  <outline>
    <contour>
      <point x="163" y="518" type="curve" smooth="yes"/>
      <point x="163" y="33" type="line" smooth="yes"/>
      <point x="163" y="14"/>
      <point x="147" y="-2"/>
      <point x="128" y="-2" type="curve" smooth="yes"/>
      <point x="109" y="-2"/>
      <point x="93" y="14"/>
      <point x="93" y="33" type="curve" smooth="yes"/>
      <point x="93" y="518" type="line" smooth="yes"/>
      <point x="93" y="537"/>
      <point x="109" y="553"/>
      <point x="128" y="553" type="curve" smooth="yes"/>
      <point x="147" y="553"/>
      <point x="163" y="537"/>
    </contour>
    <contour>
      <point x="136" y="68" type="curve" smooth="yes"/>
      <point x="407" y="68" type="line" smooth="yes"/>
      <point x="426" y="68"/>
      <point x="442" y="52"/>
      <point x="442" y="33" type="curve" smooth="yes"/>
      <point x="442" y="14"/>
      <point x="426" y="-2"/>
      <point x="407" y="-2" type="curve" smooth="yes"/>
      <point x="136" y="-2" type="line" smooth="yes"/>
      <point x="117" y="-2"/>
      <point x="101" y="14"/>
      <point x="101" y="33" type="curve" smooth="yes"/>
      <point x="101" y="52"/>
      <point x="117" y="68"/>
    </contour>
    <contour>
      <point x="136" y="553" type="curve" smooth="yes"/>
      <point x="405" y="553" type="line" smooth="yes"/>
      <point x="424" y="553"/>
      <point x="440" y="537"/>
      <point x="440" y="518" type="curve" smooth="yes"/>
      <point x="440" y="499"/>
      <point x="424" y="483"/>
      <point x="405" y="483" type="curve" smooth="yes"/>
      <point x="136" y="483" type="line" smooth="yes"/>
      <point x="117" y="483"/>
      <point x="101" y="499"/>
      <point x="101" y="518" type="curve" smooth="yes"/>
      <point x="101" y="537"/>
      <point x="117" y="553"/>
    </contour>
    <contour>
      <point x="136" y="329" type="curve" smooth="yes"/>
      <point x="362" y="329" type="line" smooth="yes"/>
      <point x="381" y="329"/>
      <point x="397" y="313"/>
      <point x="397" y="294" type="curve" smooth="yes"/>
      <point x="397" y="275"/>
      <point x="381" y="259"/>
      <point x="362" y="259" type="curve" smooth="yes"/>
      <point x="136" y="259" type="line" smooth="yes"/>
      <point x="117" y="259"/>
      <point x="101" y="275"/>
      <point x="101" y="294" type="curve" smooth="yes"/>
      <point x="101" y="313"/>
      <point x="117" y="329"/>
    </contour>
  </outline>
</glyph>
<glyph name="F" format="1">
  <advance width="485"/>
  <unicode hex="0046"/>
  <outline>
    <contour>
      <point x="163" y="518" type="curve" smooth="yes"/>
      <point x="163" y="33" type="line" smooth="yes"/>
      <point x="163" y="14"/>
      <point x="147" y="-2"/>
      <point x="128" y="-2" type="curve" smooth="yes"/>
      <point x="109" y="-2"/>
      <point x="93" y="14"/>
      <point x="93" y="33" type="curve" smooth="yes"/>
      <point x="93" y="518" type="line" smooth="yes"/>
      <point x="93" y="537"/>
      <point x="109" y="553"/>
      <point x="128" y="553" type="curve" smooth="yes"/>
      <point x="147" y="553"/>
      <point x="163" y="537"/>
    </contour>
    <contour>
      <point x="136" y="553" type="curve" smooth="yes"/>
      <point x="413" y="553" type="line" smooth="yes"/>
      <point x="432" y="553"/>
      <point x="448" y="537"/>
      <point x="448" y="518" type="curve" smooth="yes"/>
      <point x="448" y="499"/>
      <point x="432" y="483"/>
      <point x="413" y="483" type="curve" smooth="yes"/>
      <point x="136" y="483" type="line" smooth="yes"/>
      <point x="117" y="483"/>
      <point x="101" y="499"/>
      <point x="101" y="518" type="curve" smooth="yes"/>
      <point x="101" y="537"/>
      <point x="117" y="553"/>
    </contour>
    <contour>
      <point x="136" y="310" type="curve" smooth="yes"/>
      <point x="362" y="310" type="line" smooth="yes"/>
      <point x="381" y="310"/>
      <point x="397" y="294"/>
      <point x="397" y="275" type="curve" smooth="yes"/>
      <point x="397" y="256"/>
      <point x="381" y="240"/>
      <point x="362" y="240" type="curve" smooth="yes"/>
      <point x="136" y="240" type="line" smooth="yes"/>
      <point x="117" y="240"/>
      <point x="101" y="256"/>
      <point x="101" y="275" type="curve" smooth="yes"/>
      <point x="101" y="294"/>
      <point x="117" y="310"/>
    </contour>
  </outline>
</glyph>
<glyph name="G" format="1">
  <advance width="618"/>
  <unicode hex="0047"/>
  <outline>
    <contour>
      <point x="469" y="467" type="curve" smooth="yes"/>
      <point x="430" y="482"/>
      <point x="386" y="492"/>
      <point x="335" y="492" type="curve" smooth="yes"/>
      <point x="211" y="492"/>
      <point x="121" y="403"/>
      <point x="121" y="272" type="curve" smooth="yes"/>
      <point x="121" y="154"/>
      <point x="198" y="59"/>
      <point x="332" y="59" type="curve" smooth="yes"/>
      <point x="401" y="59"/>
      <point x="451" y="77"/>
      <point x="492" y="103" type="curve" smooth="yes"/>
      <point x="508" y="113"/>
      <point x="531" y="108"/>
      <point x="541" y="92" type="curve" smooth="yes"/>
      <point x="551" y="76"/>
      <point x="546" y="53"/>
      <point x="530" y="43" type="curve" smooth="yes"/>
      <point x="479" y="11"/>
      <point x="417" y="-11"/>
      <point x="332" y="-11" type="curve" smooth="yes"/>
      <point x="154" y="-11"/>
      <point x="51" y="114"/>
      <point x="51" y="272" type="curve"/>
      <point x="51" y="447"/>
      <point x="171" y="562"/>
      <point x="335" y="562" type="curve" smooth="yes"/>
      <point x="396" y="562"/>
      <point x="448" y="550"/>
      <point x="493" y="533" type="curve" smooth="yes"/>
      <point x="511" y="526"/>
      <point x="520" y="505"/>
      <point x="514" y="488" type="curve" smooth="yes"/>
      <point x="507" y="470"/>
      <point x="486" y="461"/>
    </contour>
    <contour>
      <point x="477" y="83" type="curve" smooth="yes"/>
      <point x="477" y="257" type="line" smooth="yes"/>
      <point x="477" y="276"/>
      <point x="493" y="292"/>
      <point x="512" y="292" type="curve" smooth="yes"/>
      <point x="531" y="292"/>
      <point x="547" y="276"/>
      <point x="547" y="257" type="curve" smooth="yes"/>
      <point x="547" y="83" type="line" smooth="yes"/>
      <point x="547" y="64"/>
      <point x="531" y="48"/>
      <point x="512" y="48" type="curve" smooth="yes"/>
      <point x="493" y="48"/>
      <point x="477" y="64"/>
    </contour>
    <contour>
      <point x="501" y="222" type="curve" smooth="yes"/>
      <point x="348" y="222" type="line" smooth="yes"/>
      <point x="329" y="222"/>
      <point x="313" y="238"/>
      <point x="313" y="257" type="curve" smooth="yes"/>
      <point x="313" y="276"/>
      <point x="329" y="292"/>
      <point x="348" y="292" type="curve" smooth="yes"/>
      <point x="501" y="292" type="line" smooth="yes"/>
      <point x="520" y="292"/>
      <point x="536" y="276"/>
      <point x="536" y="257" type="curve" smooth="yes"/>
      <point x="536" y="238"/>
      <point x="520" y="222"/>
    </contour>
  </outline>
</glyph>
<glyph name="H" format="1">
  <advance width="641"/>
  <unicode hex="0048"/>
  <outline>
    <contour>
      <point x="163" y="518" type="curve" smooth="yes"/>
      <point x="163" y="33" type="line" smooth="yes"/>
      <point x="163" y="14"/>
      <point x="147" y="-2"/>
      <point x="128" y="-2" type="curve" smooth="yes"/>
      <point x="109" y="-2"/>
      <point x="93" y="14"/>
      <point x="93" y="33" type="curve" smooth="yes"/>
      <point x="93" y="518" type="line" smooth="yes"/>
      <point x="93" y="537"/>
      <point x="109" y="553"/>
      <point x="128" y="553" type="curve" smooth="yes"/>
      <point x="147" y="553"/>
      <point x="163" y="537"/>
    </contour>
    <contour>
      <point x="548" y="518" type="curve" smooth="yes"/>
      <point x="548" y="33" type="line" smooth="yes"/>
      <point x="548" y="14"/>
      <point x="532" y="-2"/>
      <point x="513" y="-2" type="curve" smooth="yes"/>
      <point x="494" y="-2"/>
      <point x="478" y="14"/>
      <point x="478" y="33" type="curve" smooth="yes"/>
      <point x="478" y="518" type="line" smooth="yes"/>
      <point x="478" y="537"/>
      <point x="494" y="553"/>
      <point x="513" y="553" type="curve" smooth="yes"/>
      <point x="532" y="553"/>
      <point x="548" y="537"/>
    </contour>
    <contour>
      <point x="132" y="328" type="curve" smooth="yes"/>
      <point x="512" y="328" type="line" smooth="yes"/>
      <point x="531" y="328"/>
      <point x="547" y="312"/>
      <point x="547" y="293" type="curve" smooth="yes"/>
      <point x="547" y="274"/>
      <point x="531" y="258"/>
      <point x="512" y="258" type="curve" smooth="yes"/>
      <point x="132" y="258" type="line" smooth="yes"/>
      <point x="113" y="258"/>
      <point x="97" y="274"/>
      <point x="97" y="293" type="curve" smooth="yes"/>
      <point x="97" y="312"/>
      <point x="113" y="328"/>
    </contour>
  </outline>
</glyph>
<glyph name="J" format="1">
  <advance width="399"/>
  <unicode hex="004A"/>
  <outline>
    <contour>
      <point x="78" y="77" type="curve" smooth="yes"/>
      <point x="108" y="70"/>
      <point x="134" y="63"/>
      <point x="161" y="63" type="curve" smooth="yes"/>
      <point x="224" y="63"/>
      <point x="248" y="104"/>
      <point x="248" y="175" type="curve" smooth="yes"/>
      <point x="248" y="518" type="line" smooth="yes"/>
      <point x="248" y="537"/>
      <point x="264" y="553"/>
      <point x="283" y="553" type="curve" smooth="yes"/>
      <point x="302" y="553"/>
      <point x="318" y="537"/>
      <point x="318" y="518" type="curve" smooth="yes"/>
      <point x="318" y="175" type="line" smooth="yes"/>
      <point x="318" y="46"/>
      <point x="264" y="-7"/>
      <point x="161" y="-7" type="curve" smooth="yes"/>
      <point x="128" y="-7"/>
      <point x="96" y="0"/>
      <point x="62" y="9" type="curve" smooth="yes"/>
      <point x="43" y="14"/>
      <point x="31" y="33"/>
      <point x="36" y="51" type="curve" smooth="yes"/>
      <point x="41" y="70"/>
      <point x="60" y="82"/>
    </contour>
  </outline>
</glyph>
<glyph name="K" format="1">
  <advance width="558"/>
  <unicode hex="004B"/>
  <outline>
    <contour>
      <point x="163" y="518" type="curve" smooth="yes"/>
      <point x="163" y="33" type="line" smooth="yes"/>
      <point x="163" y="14"/>
      <point x="147" y="-2"/>
      <point x="128" y="-2" type="curve" smooth="yes"/>
      <point x="109" y="-2"/>
      <point x="93" y="14"/>
      <point x="93" y="33" type="curve" smooth="yes"/>
      <point x="93" y="518" type="line" smooth="yes"/>
      <point x="93" y="537"/>
      <point x="109" y="553"/>
      <point x="128" y="553" type="curve" smooth="yes"/>
      <point x="147" y="553"/>
      <point x="163" y="537"/>
    </contour>
    <contour>
      <point x="279" y="333" type="curve" smooth="yes"/>
      <point x="336" y="264"/>
      <point x="456" y="119"/>
      <point x="510" y="56" type="curve" smooth="yes"/>
      <point x="523" y="42"/>
      <point x="521" y="19"/>
      <point x="507" y="7" type="curve" smooth="yes"/>
      <point x="493" y="-6"/>
      <point x="470" y="-4"/>
      <point x="458" y="10" type="curve" smooth="yes"/>
      <point x="402" y="73"/>
      <point x="282" y="220"/>
      <point x="225" y="289" type="curve" smooth="yes"/>
      <point x="213" y="303"/>
      <point x="215" y="326"/>
      <point x="230" y="338" type="curve" smooth="yes"/>
      <point x="244" y="350"/>
      <point x="267" y="348"/>
    </contour>
    <contour>
      <point x="104" y="227" type="curve" smooth="yes"/>
      <point x="152" y="271"/>
      <point x="339" y="438"/>
      <point x="439" y="542" type="curve" smooth="yes"/>
      <point x="452" y="556"/>
      <point x="474" y="556"/>
      <point x="488" y="543" type="curve" smooth="yes"/>
      <point x="502" y="530"/>
      <point x="502" y="508"/>
      <point x="489" y="494" type="curve" smooth="yes"/>
      <point x="389" y="388"/>
      <point x="200" y="219"/>
      <point x="152" y="175" type="curve" smooth="yes"/>
      <point x="138" y="162"/>
      <point x="115" y="163"/>
      <point x="102" y="177" type="curve" smooth="yes"/>
      <point x="89" y="191"/>
      <point x="90" y="214"/>
    </contour>
  </outline>
</glyph>
<glyph name="L" format="1">
  <advance width="479"/>
  <unicode hex="004C"/>
  <outline>
    <contour>
      <point x="163" y="518" type="curve" smooth="yes"/>
      <point x="163" y="33" type="line" smooth="yes"/>
      <point x="163" y="14"/>
      <point x="147" y="-2"/>
      <point x="128" y="-2" type="curve" smooth="yes"/>
      <point x="109" y="-2"/>
      <point x="93" y="14"/>
      <point x="93" y="33" type="curve" smooth="yes"/>
      <point x="93" y="518" type="line" smooth="yes"/>
      <point x="93" y="537"/>
      <point x="109" y="553"/>
      <point x="128" y="553" type="curve" smooth="yes"/>
      <point x="147" y="553"/>
      <point x="163" y="537"/>
    </contour>
    <contour>
      <point x="136" y="68" type="curve" smooth="yes"/>
      <point x="409" y="68" type="line" smooth="yes"/>
      <point x="428" y="68"/>
      <point x="444" y="52"/>
      <point x="444" y="33" type="curve" smooth="yes"/>
      <point x="444" y="14"/>
      <point x="428" y="-2"/>
      <point x="409" y="-2" type="curve" smooth="yes"/>
      <point x="136" y="-2" type="line" smooth="yes"/>
      <point x="117" y="-2"/>
      <point x="101" y="14"/>
      <point x="101" y="33" type="curve" smooth="yes"/>
      <point x="101" y="52"/>
      <point x="117" y="68"/>
    </contour>
  </outline>
</glyph>
<glyph name="M" format="1">
  <advance width="816"/>
  <unicode hex="004D"/>
  <outline>
    <contour>
      <point x="206" y="521" type="curve" smooth="yes"/>
      <point x="182" y="379"/>
      <point x="150" y="143"/>
      <point x="138" y="27" type="curve" smooth="yes"/>
      <point x="136" y="9"/>
      <point x="118" y="-6"/>
      <point x="99" y="-4" type="curve" smooth="yes"/>
      <point x="81" y="-2"/>
      <point x="66" y="16"/>
      <point x="68" y="35" type="curve" smooth="yes"/>
      <point x="80" y="151"/>
      <point x="112" y="389"/>
      <point x="136" y="533" type="curve" smooth="yes"/>
      <point x="140" y="551"/>
      <point x="158" y="565"/>
      <point x="177" y="562" type="curve" smooth="yes"/>
      <point x="195" y="558"/>
      <point x="209" y="540"/>
    </contour>
    <contour>
      <point x="664" y="535" type="curve" smooth="yes"/>
      <point x="695" y="378"/>
      <point x="729" y="170"/>
      <point x="747" y="36" type="curve" smooth="yes"/>
      <point x="749" y="17"/>
      <point x="735" y="-1"/>
      <point x="717" y="-4" type="curve" smooth="yes"/>
      <point x="698" y="-6"/>
      <point x="680" y="8"/>
      <point x="677" y="26" type="curve" smooth="yes"/>
      <point x="659" y="160"/>
      <point x="627" y="366"/>
      <point x="596" y="521" type="curve" smooth="yes"/>
      <point x="592" y="540"/>
      <point x="605" y="559"/>
      <point x="623" y="562" type="curve" smooth="yes"/>
      <point x="642" y="566"/>
      <point x="661" y="553"/>
    </contour>
    <contour>
      <point x="214" y="529" type="curve" smooth="yes"/>
      <point x="276" y="402"/>
      <point x="371" y="205"/>
      <point x="438" y="65" type="curve" smooth="yes"/>
      <point x="446" y="48"/>
      <point x="438" y="27"/>
      <point x="421" y="18" type="curve" smooth="yes"/>
      <point x="404" y="10"/>
      <point x="383" y="18"/>
      <point x="374" y="35" type="curve" smooth="yes"/>
      <point x="307" y="175"/>
      <point x="214" y="372"/>
      <point x="152" y="499" type="curve" smooth="yes"/>
      <point x="143" y="516"/>
      <point x="151" y="537"/>
      <point x="168" y="545" type="curve" smooth="yes"/>
      <point x="185" y="554"/>
      <point x="206" y="546"/>
    </contour>
    <contour>
      <point x="377" y="76" type="curve" smooth="yes"/>
      <point x="437" y="213"/>
      <point x="518" y="389"/>
      <point x="592" y="536" type="curve" smooth="yes"/>
      <point x="600" y="553"/>
      <point x="622" y="560"/>
      <point x="639" y="551" type="curve" smooth="yes"/>
      <point x="656" y="543"/>
      <point x="663" y="521"/>
      <point x="654" y="504" type="curve" smooth="yes"/>
      <point x="580" y="359"/>
      <point x="501" y="183"/>
      <point x="441" y="48" type="curve" smooth="yes"/>
      <point x="433" y="31"/>
      <point x="412" y="22"/>
      <point x="395" y="30" type="curve" smooth="yes"/>
      <point x="378" y="38"/>
      <point x="369" y="59"/>
    </contour>
  </outline>
</glyph>
<glyph name="N" format="1">
  <advance width="645"/>
  <unicode hex="004E"/>
  <outline>
    <contour>
      <point x="163" y="518" type="curve" smooth="yes"/>
      <point x="163" y="33" type="line" smooth="yes"/>
      <point x="163" y="14"/>
      <point x="147" y="-2"/>
      <point x="128" y="-2" type="curve" smooth="yes"/>
      <point x="109" y="-2"/>
      <point x="93" y="14"/>
      <point x="93" y="33" type="curve" smooth="yes"/>
      <point x="93" y="518" type="line" smooth="yes"/>
      <point x="93" y="537"/>
      <point x="109" y="553"/>
      <point x="128" y="553" type="curve" smooth="yes"/>
      <point x="147" y="553"/>
      <point x="163" y="537"/>
    </contour>
    <contour>
      <point x="552" y="518" type="curve" smooth="yes"/>
      <point x="552" y="33" type="line" smooth="yes"/>
      <point x="552" y="14"/>
      <point x="536" y="-2"/>
      <point x="517" y="-2" type="curve" smooth="yes"/>
      <point x="498" y="-2"/>
      <point x="482" y="14"/>
      <point x="482" y="33" type="curve" smooth="yes"/>
      <point x="482" y="518" type="line" smooth="yes"/>
      <point x="482" y="537"/>
      <point x="498" y="553"/>
      <point x="517" y="553" type="curve" smooth="yes"/>
      <point x="536" y="553"/>
      <point x="552" y="537"/>
    </contour>
    <contour>
      <point x="162" y="539" type="curve" smooth="yes"/>
      <point x="237" y="439"/>
      <point x="432" y="197"/>
      <point x="539" y="54" type="curve" smooth="yes"/>
      <point x="550" y="39"/>
      <point x="547" y="16"/>
      <point x="532" y="5" type="curve" smooth="yes"/>
      <point x="517" y="-6"/>
      <point x="494" y="-3"/>
      <point x="483" y="12" type="curve" smooth="yes"/>
      <point x="376" y="155"/>
      <point x="181" y="397"/>
      <point x="106" y="497" type="curve" smooth="yes"/>
      <point x="95" y="512"/>
      <point x="98" y="535"/>
      <point x="113" y="546" type="curve" smooth="yes"/>
      <point x="128" y="557"/>
      <point x="151" y="554"/>
    </contour>
  </outline>
</glyph>
<glyph name="O" format="1">
  <advance width="640"/>
  <unicode hex="004F"/>
  <outline>
    <contour>
      <point x="322" y="562" type="curve" smooth="yes"/>
      <point x="469" y="562"/>
      <point x="589" y="445"/>
      <point x="589" y="275" type="curve" smooth="yes"/>
      <point x="589" y="113"/>
      <point x="489" y="-11"/>
      <point x="322" y="-11" type="curve" smooth="yes"/>
      <point x="163" y="-11"/>
      <point x="51" y="114"/>
      <point x="51" y="272" type="curve"/>
      <point x="51" y="445"/>
      <point x="162" y="562"/>
    </contour>
    <contour>
      <point x="322" y="492" type="curve" smooth="yes"/>
      <point x="200" y="492"/>
      <point x="121" y="401"/>
      <point x="121" y="272" type="curve" smooth="yes"/>
      <point x="121" y="154"/>
      <point x="203" y="59"/>
      <point x="322" y="59" type="curve" smooth="yes"/>
      <point x="449" y="59"/>
      <point x="519" y="155"/>
      <point x="519" y="275" type="curve" smooth="yes"/>
      <point x="519" y="401"/>
      <point x="433" y="492"/>
    </contour>
  </outline>
</glyph>
<glyph name="P" format="1">
  <advance width="520"/>
  <unicode hex="0050"/>
  <outline>
    <contour>
      <point x="154" y="244" type="curve" smooth="yes"/>
      <point x="271" y="244" type="line" smooth="yes"/>
      <point x="358" y="244"/>
      <point x="407" y="296"/>
      <point x="407" y="364" type="curve" smooth="yes"/>
      <point x="407" y="436"/>
      <point x="349" y="483"/>
      <point x="271" y="483" type="curve" smooth="yes"/>
      <point x="128" y="483" type="line"/>
      <point x="163" y="518" type="line"/>
      <point x="163" y="33" type="line" smooth="yes"/>
      <point x="163" y="14"/>
      <point x="147" y="-2"/>
      <point x="128" y="-2" type="curve" smooth="yes"/>
      <point x="109" y="-2"/>
      <point x="93" y="14"/>
      <point x="93" y="33" type="curve" smooth="yes"/>
      <point x="93" y="518" type="line" smooth="yes"/>
      <point x="93" y="537"/>
      <point x="109" y="553"/>
      <point x="128" y="553" type="curve" smooth="yes"/>
      <point x="271" y="553" type="line" smooth="yes"/>
      <point x="395" y="553"/>
      <point x="477" y="472"/>
      <point x="477" y="364" type="curve" smooth="yes"/>
      <point x="477" y="262"/>
      <point x="410" y="174"/>
      <point x="271" y="174" type="curve" smooth="yes"/>
      <point x="154" y="174" type="line" smooth="yes"/>
      <point x="135" y="174"/>
      <point x="119" y="190"/>
      <point x="119" y="209" type="curve" smooth="yes"/>
      <point x="119" y="228"/>
      <point x="135" y="244"/>
    </contour>
  </outline>
</glyph>
<glyph name="Q" format="1">
  <advance width="620"/>
  <unicode hex="0051"/>
  <outline>
    <contour>
      <point x="312" y="562" type="curve" smooth="yes"/>
      <point x="452" y="562"/>
      <point x="569" y="446"/>
      <point x="569" y="275" type="curve" smooth="yes"/>
      <point x="569" y="112"/>
      <point x="473" y="-11"/>
      <point x="312" y="-11" type="curve" smooth="yes"/>
      <point x="160" y="-11"/>
      <point x="51" y="113"/>
      <point x="51" y="272" type="curve"/>
      <point x="51" y="446"/>
      <point x="158" y="562"/>
    </contour>
    <contour>
      <point x="347" y="30" type="curve" smooth="yes"/>
      <point x="363" y="-30"/>
      <point x="421" y="-75"/>
      <point x="507" y="-75" type="curve" smooth="yes"/>
      <point x="526" y="-75"/>
      <point x="542" y="-91"/>
      <point x="542" y="-110" type="curve" smooth="yes"/>
      <point x="542" y="-129"/>
      <point x="526" y="-145"/>
      <point x="507" y="-145" type="curve" smooth="yes"/>
      <point x="381" y="-145"/>
      <point x="301" y="-74"/>
      <point x="279" y="12" type="curve" smooth="yes"/>
      <point x="274" y="30"/>
      <point x="286" y="50"/>
      <point x="304" y="55" type="curve" smooth="yes"/>
      <point x="322" y="60"/>
      <point x="342" y="48"/>
    </contour>
    <contour>
      <point x="312" y="492" type="curve" smooth="yes"/>
      <point x="196" y="492"/>
      <point x="121" y="400"/>
      <point x="121" y="272" type="curve" smooth="yes"/>
      <point x="121" y="155"/>
      <point x="198" y="59"/>
      <point x="312" y="59" type="curve" smooth="yes"/>
      <point x="433" y="59"/>
      <point x="499" y="156"/>
      <point x="499" y="275" type="curve" smooth="yes"/>
      <point x="499" y="400"/>
      <point x="418" y="492"/>
    </contour>
  </outline>
</glyph>
<glyph name="R" format="1">
  <advance width="539"/>
  <unicode hex="0052"/>
  <outline>
    <contour>
      <point x="154" y="267" type="curve" smooth="yes"/>
      <point x="275" y="267" type="line" smooth="yes"/>
      <point x="359" y="267"/>
      <point x="406" y="313"/>
      <point x="406" y="375" type="curve" smooth="yes"/>
      <point x="406" y="441"/>
      <point x="351" y="483"/>
      <point x="275" y="483" type="curve" smooth="yes"/>
      <point x="128" y="483" type="line"/>
      <point x="163" y="518" type="line"/>
      <point x="163" y="33" type="line" smooth="yes"/>
      <point x="163" y="14"/>
      <point x="147" y="-2"/>
      <point x="128" y="-2" type="curve" smooth="yes"/>
      <point x="109" y="-2"/>
      <point x="93" y="14"/>
      <point x="93" y="33" type="curve" smooth="yes"/>
      <point x="93" y="518" type="line" smooth="yes"/>
      <point x="93" y="537"/>
      <point x="109" y="553"/>
      <point x="128" y="553" type="curve" smooth="yes"/>
      <point x="275" y="553" type="line" smooth="yes"/>
      <point x="399" y="553"/>
      <point x="476" y="477"/>
      <point x="476" y="375" type="curve" smooth="yes"/>
      <point x="476" y="281"/>
      <point x="413" y="197"/>
      <point x="275" y="197" type="curve" smooth="yes"/>
      <point x="154" y="197" type="line" smooth="yes"/>
      <point x="135" y="197"/>
      <point x="119" y="213"/>
      <point x="119" y="232" type="curve" smooth="yes"/>
      <point x="119" y="251"/>
      <point x="135" y="267"/>
    </contour>
    <contour>
      <point x="337" y="242" type="curve" smooth="yes"/>
      <point x="496" y="56" type="line" smooth="yes"/>
      <point x="508" y="41"/>
      <point x="506" y="19"/>
      <point x="492" y="6" type="curve" smooth="yes"/>
      <point x="477" y="-6"/>
      <point x="455" y="-4"/>
      <point x="442" y="10" type="curve" smooth="yes"/>
      <point x="283" y="196" type="line" smooth="yes"/>
      <point x="271" y="211"/>
      <point x="273" y="233"/>
      <point x="287" y="246" type="curve" smooth="yes"/>
      <point x="302" y="258"/>
      <point x="324" y="256"/>
    </contour>
  </outline>
</glyph>
<glyph name="S" format="1">
  <advance width="535"/>
  <unicode hex="0053"/>
  <outline>
    <contour>
      <point x="385" y="462" type="curve" smooth="yes"/>
      <point x="342" y="479"/>
      <point x="311" y="489"/>
      <point x="248" y="489" type="curve" smooth="yes"/>
      <point x="192" y="489"/>
      <point x="147" y="459"/>
      <point x="147" y="420" type="curve" smooth="yes"/>
      <point x="147" y="380"/>
      <point x="177" y="342"/>
      <point x="276" y="322" type="curve" smooth="yes"/>
      <point x="428" y="289"/>
      <point x="467" y="222"/>
      <point x="467" y="146" type="curve" smooth="yes"/>
      <point x="467" y="68"/>
      <point x="415" y="-11"/>
      <point x="268" y="-11" type="curve" smooth="yes"/>
      <point x="202" y="-11"/>
      <point x="139" y="5"/>
      <point x="82" y="36" type="curve" smooth="yes"/>
      <point x="65" y="46"/>
      <point x="59" y="68"/>
      <point x="68" y="84" type="curve" smooth="yes"/>
      <point x="78" y="101"/>
      <point x="100" y="107"/>
      <point x="116" y="98" type="curve" smooth="yes"/>
      <point x="163" y="71"/>
      <point x="214" y="59"/>
      <point x="268" y="59" type="curve" smooth="yes"/>
      <point x="349" y="59"/>
      <point x="397" y="96"/>
      <point x="397" y="146" type="curve" smooth="yes"/>
      <point x="397" y="198"/>
      <point x="354" y="233"/>
      <point x="262" y="254" type="curve" smooth="yes"/>
      <point x="93" y="286"/>
      <point x="77" y="360"/>
      <point x="77" y="420" type="curve" smooth="yes"/>
      <point x="77" y="487"/>
      <point x="134" y="559"/>
      <point x="248" y="559" type="curve" smooth="yes"/>
      <point x="323" y="559"/>
      <point x="360" y="547"/>
      <point x="411" y="526" type="curve" smooth="yes"/>
      <point x="429" y="519"/>
      <point x="438" y="498"/>
      <point x="430" y="481" type="curve" smooth="yes"/>
      <point x="423" y="463"/>
      <point x="402" y="454"/>
    </contour>
  </outline>
</glyph>
<glyph name="T" format="1">
  <advance width="558"/>
  <unicode hex="0054"/>
  <outline>
    <contour>
      <point x="312" y="518" type="curve" smooth="yes"/>
      <point x="312" y="33" type="line" smooth="yes"/>
      <point x="312" y="14"/>
      <point x="296" y="-2"/>
      <point x="277" y="-2" type="curve" smooth="yes"/>
      <point x="258" y="-2"/>
      <point x="242" y="14"/>
      <point x="242" y="33" type="curve" smooth="yes"/>
      <point x="242" y="518" type="line" smooth="yes"/>
      <point x="242" y="537"/>
      <point x="258" y="553"/>
      <point x="277" y="553" type="curve" smooth="yes"/>
      <point x="296" y="553"/>
      <point x="312" y="537"/>
    </contour>
    <contour>
      <point x="65" y="553" type="curve" smooth="yes"/>
      <point x="493" y="553" type="line" smooth="yes"/>
      <point x="512" y="553"/>
      <point x="528" y="537"/>
      <point x="528" y="518" type="curve" smooth="yes"/>
      <point x="528" y="499"/>
      <point x="512" y="483"/>
      <point x="493" y="483" type="curve" smooth="yes"/>
      <point x="65" y="483" type="line" smooth="yes"/>
      <point x="46" y="483"/>
      <point x="30" y="499"/>
      <point x="30" y="518" type="curve" smooth="yes"/>
      <point x="30" y="537"/>
      <point x="46" y="553"/>
    </contour>
  </outline>
</glyph>
<glyph name="U" format="1">
  <advance width="626"/>
  <unicode hex="0055"/>
  <outline>
    <contour>
      <point x="151" y="518" type="curve" smooth="yes"/>
      <point x="151" y="222" type="line" smooth="yes"/>
      <point x="151" y="118"/>
      <point x="216" y="59"/>
      <point x="311" y="59" type="curve" smooth="yes"/>
      <point x="416" y="59"/>
      <point x="475" y="118"/>
      <point x="475" y="225" type="curve" smooth="yes"/>
      <point x="475" y="518" type="line" smooth="yes"/>
      <point x="475" y="537"/>
      <point x="491" y="553"/>
      <point x="510" y="553" type="curve" smooth="yes"/>
      <point x="529" y="553"/>
      <point x="545" y="537"/>
      <point x="545" y="518" type="curve" smooth="yes"/>
      <point x="545" y="225" type="line" smooth="yes"/>
      <point x="545" y="72"/>
      <point x="460" y="-11"/>
      <point x="311" y="-11" type="curve" smooth="yes"/>
      <point x="176" y="-11"/>
      <point x="81" y="72"/>
      <point x="81" y="222" type="curve" smooth="yes"/>
      <point x="81" y="518" type="line" smooth="yes"/>
      <point x="81" y="537"/>
      <point x="97" y="553"/>
      <point x="116" y="553" type="curve" smooth="yes"/>
      <point x="135" y="553"/>
      <point x="151" y="537"/>
    </contour>
  </outline>
</glyph>
<glyph name="V" format="1">
  <advance width="595"/>
  <unicode hex="0056"/>
  <outline>
    <contour>
      <point x="113" y="530" type="curve" smooth="yes"/>
      <point x="153" y="407"/>
      <point x="286" y="119"/>
      <point x="326" y="46" type="curve" smooth="yes"/>
      <point x="335" y="29"/>
      <point x="328" y="7"/>
      <point x="312" y="-2" type="curve" smooth="yes"/>
      <point x="295" y="-11"/>
      <point x="273" y="-4"/>
      <point x="264" y="12" type="curve" smooth="yes"/>
      <point x="224" y="87"/>
      <point x="87" y="383"/>
      <point x="47" y="508" type="curve" smooth="yes"/>
      <point x="41" y="526"/>
      <point x="51" y="547"/>
      <point x="69" y="552" type="curve" smooth="yes"/>
      <point x="87" y="558"/>
      <point x="108" y="548"/>
    </contour>
    <contour>
      <point x="267" y="39" type="curve" smooth="yes"/>
      <point x="311" y="122"/>
      <point x="433" y="388"/>
      <point x="482" y="529" type="curve" smooth="yes"/>
      <point x="488" y="547"/>
      <point x="508" y="557"/>
      <point x="526" y="551" type="curve" smooth="yes"/>
      <point x="544" y="545"/>
      <point x="554" y="525"/>
      <point x="548" y="507" type="curve" smooth="yes"/>
      <point x="499" y="362"/>
      <point x="373" y="92"/>
      <point x="329" y="7" type="curve" smooth="yes"/>
      <point x="320" y="-10"/>
      <point x="299" y="-17"/>
      <point x="282" y="-8" type="curve" smooth="yes"/>
      <point x="265" y="1"/>
      <point x="258" y="22"/>
    </contour>
  </outline>
</glyph>
<glyph name="W" format="1">
  <advance width="893"/>
  <unicode hex="0057"/>
  <outline>
    <contour>
      <point x="123" y="526" type="curve" smooth="yes"/>
      <point x="156" y="404"/>
      <point x="255" y="118"/>
      <point x="290" y="45" type="curve" smooth="yes"/>
      <point x="298" y="28"/>
      <point x="290" y="6"/>
      <point x="273" y="-2" type="curve" smooth="yes"/>
      <point x="256" y="-10"/>
      <point x="234" y="-2"/>
      <point x="226" y="15" type="curve" smooth="yes"/>
      <point x="191" y="90"/>
      <point x="90" y="382"/>
      <point x="55" y="508" type="curve" smooth="yes"/>
      <point x="50" y="526"/>
      <point x="62" y="546"/>
      <point x="80" y="551" type="curve" smooth="yes"/>
      <point x="98" y="556"/>
      <point x="118" y="544"/>
    </contour>
    <contour>
      <point x="230" y="38" type="curve" smooth="yes"/>
      <point x="267" y="121"/>
      <point x="371" y="384"/>
      <point x="414" y="524" type="curve" smooth="yes"/>
      <point x="419" y="542"/>
      <point x="439" y="553"/>
      <point x="457" y="547" type="curve" smooth="yes"/>
      <point x="475" y="542"/>
      <point x="486" y="522"/>
      <point x="480" y="504" type="curve" smooth="yes"/>
      <point x="437" y="362"/>
      <point x="331" y="95"/>
      <point x="294" y="10" type="curve" smooth="yes"/>
      <point x="286" y="-7"/>
      <point x="265" y="-16"/>
      <point x="248" y="-8" type="curve" smooth="yes"/>
      <point x="231" y="0"/>
      <point x="222" y="21"/>
    </contour>
    <contour>
      <point x="484" y="512" type="curve" smooth="yes"/>
      <point x="522" y="392"/>
      <point x="624" y="118"/>
      <point x="659" y="44" type="curve" smooth="yes"/>
      <point x="668" y="27"/>
      <point x="660" y="6"/>
      <point x="643" y="-2" type="curve" smooth="yes"/>
      <point x="626" y="-11"/>
      <point x="605" y="-3"/>
      <point x="597" y="14" type="curve" smooth="yes"/>
      <point x="560" y="88"/>
      <point x="456" y="368"/>
      <point x="418" y="492" type="curve" smooth="yes"/>
      <point x="412" y="510"/>
      <point x="423" y="530"/>
      <point x="441" y="535" type="curve" smooth="yes"/>
      <point x="459" y="541"/>
      <point x="479" y="530"/>
    </contour>
    <contour>
      <point x="600" y="37" type="curve" smooth="yes"/>
      <point x="637" y="120"/>
      <point x="731" y="385"/>
      <point x="771" y="527" type="curve" smooth="yes"/>
      <point x="777" y="545"/>
      <point x="796" y="556"/>
      <point x="815" y="551" type="curve" smooth="yes"/>
      <point x="833" y="545"/>
      <point x="844" y="526"/>
      <point x="839" y="507" type="curve" smooth="yes"/>
      <point x="797" y="363"/>
      <point x="701" y="94"/>
      <point x="664" y="9" type="curve" smooth="yes"/>
      <point x="656" y="-8"/>
      <point x="635" y="-17"/>
      <point x="618" y="-9" type="curve" smooth="yes"/>
      <point x="601" y="-1"/>
      <point x="592" y="20"/>
    </contour>
  </outline>
</glyph>
<glyph name="X" format="1">
  <advance width="573"/>
  <unicode hex="0058"/>
  <outline>
    <contour>
      <point x="132" y="538" type="curve" smooth="yes"/>
      <point x="228" y="398"/>
      <point x="454" y="137"/>
      <point x="513" y="53" type="curve" smooth="yes"/>
      <point x="524" y="38"/>
      <point x="520" y="15"/>
      <point x="504" y="4" type="curve" smooth="yes"/>
      <point x="489" y="-7"/>
      <point x="466" y="-3"/>
      <point x="455" y="13" type="curve" smooth="yes"/>
      <point x="396" y="97"/>
      <point x="170" y="358"/>
      <point x="74" y="498" type="curve" smooth="yes"/>
      <point x="63" y="514"/>
      <point x="68" y="536"/>
      <point x="83" y="547" type="curve" smooth="yes"/>
      <point x="99" y="558"/>
      <point x="121" y="553"/>
    </contour>
    <contour>
      <point x="62" y="54" type="curve" smooth="yes"/>
      <point x="141" y="160"/>
      <point x="349" y="404"/>
      <point x="435" y="537" type="curve" smooth="yes"/>
      <point x="445" y="553"/>
      <point x="467" y="558"/>
      <point x="483" y="547" type="curve" smooth="yes"/>
      <point x="499" y="537"/>
      <point x="504" y="515"/>
      <point x="493" y="499" type="curve" smooth="yes"/>
      <point x="407" y="366"/>
      <point x="197" y="120"/>
      <point x="118" y="12" type="curve" smooth="yes"/>
      <point x="107" y="-3"/>
      <point x="84" y="-6"/>
      <point x="69" y="5" type="curve" smooth="yes"/>
      <point x="54" y="16"/>
      <point x="51" y="39"/>
    </contour>
  </outline>
</glyph>
<glyph name="Y" format="1">
  <advance width="570"/>
  <unicode hex="0059"/>
  <outline>
    <contour>
      <point x="322" y="201" type="curve" smooth="yes"/>
      <point x="322" y="33" type="line" smooth="yes"/>
      <point x="322" y="14"/>
      <point x="306" y="-2"/>
      <point x="287" y="-2" type="curve" smooth="yes"/>
      <point x="268" y="-2"/>
      <point x="252" y="14"/>
      <point x="252" y="33" type="curve" smooth="yes"/>
      <point x="252" y="201" type="line" smooth="yes"/>
      <point x="252" y="220"/>
      <point x="268" y="236"/>
      <point x="287" y="236" type="curve" smooth="yes"/>
      <point x="306" y="236"/>
      <point x="322" y="220"/>
    </contour>
    <contour>
      <point x="109" y="536" type="curve" smooth="yes"/>
      <point x="151" y="467"/>
      <point x="269" y="291"/>
      <point x="312" y="234" type="curve" smooth="yes"/>
      <point x="323" y="219"/>
      <point x="320" y="196"/>
      <point x="305" y="185" type="curve" smooth="yes"/>
      <point x="290" y="174"/>
      <point x="267" y="177"/>
      <point x="256" y="192" type="curve" smooth="yes"/>
      <point x="213" y="249"/>
      <point x="91" y="429"/>
      <point x="49" y="500" type="curve" smooth="yes"/>
      <point x="39" y="516"/>
      <point x="45" y="538"/>
      <point x="61" y="548" type="curve" smooth="yes"/>
      <point x="77" y="558"/>
      <point x="99" y="552"/>
    </contour>
    <contour>
      <point x="259" y="228" type="curve" smooth="yes"/>
      <point x="307" y="293"/>
      <point x="420" y="468"/>
      <point x="461" y="536" type="curve" smooth="yes"/>
      <point x="471" y="552"/>
      <point x="493" y="558"/>
      <point x="509" y="548" type="curve" smooth="yes"/>
      <point x="525" y="538"/>
      <point x="531" y="516"/>
      <point x="521" y="500" type="curve" smooth="yes"/>
      <point x="480" y="430"/>
      <point x="365" y="253"/>
      <point x="315" y="186" type="curve" smooth="yes"/>
      <point x="304" y="171"/>
      <point x="281" y="168"/>
      <point x="266" y="179" type="curve" smooth="yes"/>
      <point x="251" y="190"/>
      <point x="248" y="213"/>
    </contour>
  </outline>
</glyph>
<glyph name="Z" format="1">
  <advance width="577"/>
  <unicode hex="005A"/>
  <outline>
    <contour>
      <point x="500" y="499" type="curve" smooth="yes"/>
      <point x="437" y="404"/>
      <point x="184" y="104"/>
      <point x="131" y="22" type="curve" smooth="yes"/>
      <point x="121" y="6"/>
      <point x="99" y="1"/>
      <point x="83" y="12" type="curve" smooth="yes"/>
      <point x="67" y="22"/>
      <point x="62" y="44"/>
      <point x="73" y="60" type="curve" smooth="yes"/>
      <point x="126" y="142"/>
      <point x="379" y="442"/>
      <point x="442" y="537" type="curve" smooth="yes"/>
      <point x="452" y="553"/>
      <point x="475" y="558"/>
      <point x="490" y="547" type="curve" smooth="yes"/>
      <point x="506" y="537"/>
      <point x="511" y="514"/>
    </contour>
    <contour>
      <point x="111" y="553" type="curve" smooth="yes"/>
      <point x="460" y="553" type="line" smooth="yes"/>
      <point x="479" y="553"/>
      <point x="495" y="537"/>
      <point x="495" y="518" type="curve" smooth="yes"/>
      <point x="495" y="499"/>
      <point x="479" y="483"/>
      <point x="460" y="483" type="curve" smooth="yes"/>
      <point x="111" y="483" type="line" smooth="yes"/>
      <point x="92" y="483"/>
      <point x="76" y="499"/>
      <point x="76" y="518" type="curve" smooth="yes"/>
      <point x="76" y="537"/>
      <point x="92" y="553"/>
    </contour>
    <contour>
      <point x="98" y="68" type="curve" smooth="yes"/>
      <point x="483" y="68" type="line" smooth="yes"/>
      <point x="502" y="68"/>
      <point x="518" y="52"/>
      <point x="518" y="33" type="curve" smooth="yes"/>
      <point x="518" y="14"/>
      <point x="502" y="-2"/>
      <point x="483" y="-2" type="curve" smooth="yes"/>
      <point x="98" y="-2" type="line" smooth="yes"/>
      <point x="79" y="-2"/>
      <point x="63" y="14"/>
      <point x="63" y="33" type="curve" smooth="yes"/>
      <point x="63" y="52"/>
      <point x="79" y="68"/>
    </contour>
  </outline>
</glyph>
<glyph name="bracketleft" format="1">
  <advance width="325"/>
  <unicode hex="005B"/>
  <outline>
    <contour>
      <point x="238" y="578" type="curve" smooth="yes"/>
      <point x="103" y="578" type="line"/>
      <point x="138" y="613" type="line"/>
      <point x="138" y="-66" type="line"/>
      <point x="103" y="-31" type="line"/>
      <point x="238" y="-31" type="line" smooth="yes"/>
      <point x="257" y="-31"/>
      <point x="273" y="-47"/>
      <point x="273" y="-66" type="curve" smooth="yes"/>
      <point x="273" y="-85"/>
      <point x="257" y="-101"/>
      <point x="238" y="-101" type="curve" smooth="yes"/>
      <point x="103" y="-101" type="line" smooth="yes"/>
      <point x="84" y="-101"/>
      <point x="68" y="-85"/>
      <point x="68" y="-66" type="curve" smooth="yes"/>
      <point x="68" y="613" type="line" smooth="yes"/>
      <point x="68" y="632"/>
      <point x="84" y="648"/>
      <point x="103" y="648" type="curve" smooth="yes"/>
      <point x="238" y="648" type="line" smooth="yes"/>
      <point x="257" y="648"/>
      <point x="273" y="632"/>
      <point x="273" y="613" type="curve" smooth="yes"/>
      <point x="273" y="594"/>
      <point x="257" y="578"/>
    </contour>
  </outline>
</glyph>
<glyph name="asciicircum" format="1">
  <advance width="500"/>
  <unicode hex="005E"/>
  <outline>
    <contour>
      <point x="277" y="510" type="curve" smooth="yes"/>
      <point x="229" y="418"/>
      <point x="178" y="323"/>
      <point x="137" y="243" type="curve" smooth="yes"/>
      <point x="129" y="226"/>
      <point x="107" y="219"/>
      <point x="90" y="228" type="curve" smooth="yes"/>
      <point x="73" y="236"/>
      <point x="66" y="258"/>
      <point x="75" y="275" type="curve" smooth="yes"/>
      <point x="116" y="355"/>
      <point x="167" y="450"/>
      <point x="215" y="542" type="curve" smooth="yes"/>
      <point x="224" y="559"/>
      <point x="245" y="566"/>
      <point x="262" y="557" type="curve" smooth="yes"/>
      <point x="279" y="548"/>
      <point x="286" y="527"/>
    </contour>
    <contour>
      <point x="364" y="243" type="curve" smooth="yes"/>
      <point x="323" y="323"/>
      <point x="274" y="418"/>
      <point x="224" y="509" type="curve" smooth="yes"/>
      <point x="215" y="526"/>
      <point x="222" y="548"/>
      <point x="238" y="557" type="curve" smooth="yes"/>
      <point x="255" y="566"/>
      <point x="277" y="559"/>
      <point x="286" y="543" type="curve" smooth="yes"/>
      <point x="336" y="450"/>
      <point x="385" y="355"/>
      <point x="426" y="275" type="curve" smooth="yes"/>
      <point x="435" y="258"/>
      <point x="428" y="236"/>
      <point x="411" y="228" type="curve" smooth="yes"/>
      <point x="394" y="219"/>
      <point x="372" y="226"/>
    </contour>
  </outline>
</glyph>
<glyph name="underscore" format="1">
  <advance width="545"/>
  <unicode hex="005F"/>
  <outline>
    <contour>
      <point x="65" y="-56" type="curve" smooth="yes"/>
      <point x="480" y="-56" type="line" smooth="yes"/>
      <point x="499" y="-56"/>
      <point x="515" y="-72"/>
      <point x="515" y="-91" type="curve" smooth="yes"/>
      <point x="515" y="-110"/>
      <point x="499" y="-126"/>
      <point x="480" y="-126" type="curve" smooth="yes"/>
      <point x="65" y="-126" type="line" smooth="yes"/>
      <point x="46" y="-126"/>
      <point x="30" y="-110"/>
      <point x="30" y="-91" type="curve" smooth="yes"/>
      <point x="30" y="-72"/>
      <point x="46" y="-56"/>
    </contour>
  </outline>
</glyph>
<glyph name="grave" format="1">
  <advance width="500"/>
  <unicode hex="0060"/>
  <outline>
    <contour>
      <point x="247" y="619" type="curve" smooth="yes"/>
      <point x="276" y="583"/>
      <point x="291" y="564"/>
      <point x="316" y="523" type="curve" smooth="yes"/>
      <point x="326" y="507"/>
      <point x="320" y="485"/>
      <point x="304" y="475" type="curve" smooth="yes"/>
      <point x="288" y="465"/>
      <point x="266" y="471"/>
      <point x="256" y="487" type="curve" smooth="yes"/>
      <point x="233" y="524"/>
      <point x="220" y="541"/>
      <point x="193" y="575" type="curve" smooth="yes"/>
      <point x="181" y="590"/>
      <point x="183" y="613"/>
      <point x="198" y="624" type="curve" smooth="yes"/>
      <point x="213" y="636"/>
      <point x="236" y="634"/>
    </contour>
  </outline>
</glyph>
<glyph name="a" format="1">
  <advance width="456"/>
  <unicode hex="0061"/>
  <outline>
    <contour>
      <point x="116" y="392" type="curve" smooth="yes"/>
      <point x="139" y="400"/>
      <point x="183" y="410"/>
      <point x="220" y="410" type="curve" smooth="yes"/>
      <point x="336" y="410"/>
      <point x="389" y="340"/>
      <point x="389" y="238" type="curve" smooth="yes"/>
      <point x="389" y="147" type="line" smooth="yes"/>
      <point x="389" y="104"/>
      <point x="398" y="78"/>
      <point x="417" y="58" type="curve" smooth="yes"/>
      <point x="430" y="44"/>
      <point x="429" y="21"/>
      <point x="415" y="8" type="curve" smooth="yes"/>
      <point x="401" y="-5"/>
      <point x="378" y="-4"/>
      <point x="365" y="10" type="curve" smooth="yes"/>
      <point x="336" y="42"/>
      <point x="319" y="80"/>
      <point x="319" y="147" type="curve" smooth="yes"/>
      <point x="319" y="238" type="line" smooth="yes"/>
      <point x="319" y="298"/>
      <point x="288" y="340"/>
      <point x="220" y="340" type="curve" smooth="yes"/>
      <point x="191" y="340"/>
      <point x="157" y="332"/>
      <point x="138" y="326" type="curve" smooth="yes"/>
      <point x="120" y="320"/>
      <point x="100" y="330"/>
      <point x="94" y="348" type="curve" smooth="yes"/>
      <point x="88" y="366"/>
      <point x="98" y="386"/>
    </contour>
    <contour>
      <point x="352" y="192" type="curve" smooth="yes"/>
      <point x="318" y="193"/>
      <point x="289" y="195"/>
      <point x="260" y="195" type="curve" smooth="yes"/>
      <point x="200" y="195"/>
      <point x="158" y="182"/>
      <point x="133" y="157" type="curve" smooth="yes"/>
      <point x="119" y="144"/>
      <point x="115" y="130"/>
      <point x="115" y="114" type="curve" smooth="yes"/>
      <point x="115" y="91"/>
      <point x="137" y="68"/>
      <point x="177" y="68" type="curve" smooth="yes"/>
      <point x="240" y="68"/>
      <point x="285" y="94"/>
      <point x="326" y="149" type="curve" smooth="yes"/>
      <point x="337" y="164"/>
      <point x="360" y="167"/>
      <point x="375" y="156" type="curve" smooth="yes"/>
      <point x="390" y="145"/>
      <point x="393" y="122"/>
      <point x="382" y="107" type="curve" smooth="yes"/>
      <point x="327" y="32"/>
      <point x="262" y="-2"/>
      <point x="177" y="-2" type="curve" smooth="yes"/>
      <point x="75" y="-2"/>
      <point x="45" y="65"/>
      <point x="45" y="114" type="curve"/>
      <point x="45" y="148"/>
      <point x="55" y="180"/>
      <point x="83" y="207" type="curve" smooth="yes"/>
      <point x="118" y="242"/>
      <point x="174" y="265"/>
      <point x="260" y="265" type="curve" smooth="yes"/>
      <point x="289" y="265"/>
      <point x="320" y="263"/>
      <point x="354" y="262" type="curve" smooth="yes"/>
      <point x="373" y="261"/>
      <point x="389" y="245"/>
      <point x="388" y="226" type="curve" smooth="yes"/>
      <point x="387" y="207"/>
      <point x="371" y="191"/>
    </contour>
  </outline>
</glyph>
<glyph name="b" format="1">
  <advance width="515"/>
  <unicode hex="0062"/>
  <outline>
    <contour>
      <point x="80" y="34" type="curve" smooth="yes"/>
      <point x="80" y="544" type="line" smooth="yes"/>
      <point x="80" y="563"/>
      <point x="96" y="579"/>
      <point x="115" y="579" type="curve" smooth="yes"/>
      <point x="134" y="579"/>
      <point x="150" y="563"/>
      <point x="150" y="544" type="curve" smooth="yes"/>
      <point x="150" y="34" type="line" smooth="yes"/>
      <point x="150" y="15"/>
      <point x="134" y="-1"/>
      <point x="115" y="-1" type="curve" smooth="yes"/>
      <point x="96" y="-1"/>
      <point x="80" y="15"/>
    </contour>
    <contour>
      <point x="132" y="103" type="curve" smooth="yes"/>
      <point x="175" y="80"/>
      <point x="220" y="68"/>
      <point x="273" y="68" type="curve" smooth="yes"/>
      <point x="349" y="68"/>
      <point x="402" y="121"/>
      <point x="402" y="203" type="curve" smooth="yes"/>
      <point x="402" y="282"/>
      <point x="353" y="340"/>
      <point x="286" y="340" type="curve" smooth="yes"/>
      <point x="234" y="340"/>
      <point x="183" y="300"/>
      <point x="146" y="240" type="curve" smooth="yes"/>
      <point x="136" y="224"/>
      <point x="113" y="219"/>
      <point x="97" y="229" type="curve" smooth="yes"/>
      <point x="81" y="239"/>
      <point x="76" y="262"/>
      <point x="86" y="278" type="curve" smooth="yes"/>
      <point x="139" y="362"/>
      <point x="214" y="410"/>
      <point x="286" y="410" type="curve" smooth="yes"/>
      <point x="387" y="410"/>
      <point x="472" y="330"/>
      <point x="472" y="203" type="curve" smooth="yes"/>
      <point x="472" y="77"/>
      <point x="389" y="-2"/>
      <point x="273" y="-2" type="curve" smooth="yes"/>
      <point x="208" y="-2"/>
      <point x="151" y="12"/>
      <point x="98" y="41" type="curve" smooth="yes"/>
      <point x="82" y="50"/>
      <point x="75" y="72"/>
      <point x="84" y="89" type="curve" smooth="yes"/>
      <point x="93" y="105"/>
      <point x="115" y="112"/>
    </contour>
  </outline>
</glyph>
<glyph name="c" format="1">
  <advance width="443"/>
  <unicode hex="0063"/>
  <outline>
    <contour>
      <point x="343" y="327" type="curve" smooth="yes"/>
      <point x="319" y="335"/>
      <point x="290" y="340"/>
      <point x="265" y="340" type="curve" smooth="yes"/>
      <point x="170" y="340"/>
      <point x="114" y="279"/>
      <point x="114" y="195" type="curve" smooth="yes"/>
      <point x="114" y="121"/>
      <point x="171" y="68"/>
      <point x="264" y="68" type="curve" smooth="yes"/>
      <point x="300" y="68"/>
      <point x="329" y="75"/>
      <point x="353" y="85" type="curve" smooth="yes"/>
      <point x="371" y="91"/>
      <point x="392" y="82"/>
      <point x="399" y="65" type="curve" smooth="yes"/>
      <point x="405" y="47"/>
      <point x="396" y="26"/>
      <point x="379" y="19" type="curve" smooth="yes"/>
      <point x="347" y="7"/>
      <point x="310" y="-2"/>
      <point x="264" y="-2" type="curve" smooth="yes"/>
      <point x="119" y="-2"/>
      <point x="44" y="87"/>
      <point x="44" y="195" type="curve"/>
      <point x="44" y="319"/>
      <point x="124" y="410"/>
      <point x="265" y="410" type="curve" smooth="yes"/>
      <point x="298" y="410"/>
      <point x="335" y="403"/>
      <point x="365" y="393" type="curve" smooth="yes"/>
      <point x="383" y="387"/>
      <point x="393" y="367"/>
      <point x="387" y="349" type="curve" smooth="yes"/>
      <point x="381" y="331"/>
      <point x="361" y="321"/>
    </contour>
  </outline>
</glyph>
<glyph name="d" format="1">
  <advance width="514"/>
  <unicode hex="0064"/>
  <outline>
    <contour>
      <point x="377" y="289" type="curve" smooth="yes"/>
      <point x="338" y="320"/>
      <point x="300" y="340"/>
      <point x="249" y="340" type="curve" smooth="yes"/>
      <point x="170" y="340"/>
      <point x="113" y="279"/>
      <point x="113" y="196" type="curve" smooth="yes"/>
      <point x="113" y="120"/>
      <point x="161" y="68"/>
      <point x="228" y="68" type="curve" smooth="yes"/>
      <point x="292" y="68"/>
      <point x="336" y="114"/>
      <point x="368" y="168" type="curve" smooth="yes"/>
      <point x="377" y="184"/>
      <point x="400" y="190"/>
      <point x="416" y="180" type="curve" smooth="yes"/>
      <point x="432" y="171"/>
      <point x="438" y="148"/>
      <point x="428" y="132" type="curve" smooth="yes"/>
      <point x="382" y="54"/>
      <point x="316" y="-2"/>
      <point x="228" y="-2" type="curve" smooth="yes"/>
      <point x="125" y="-2"/>
      <point x="43" y="74"/>
      <point x="43" y="196" type="curve"/>
      <point x="43" y="321"/>
      <point x="132" y="410"/>
      <point x="249" y="410" type="curve" smooth="yes"/>
      <point x="318" y="410"/>
      <point x="370" y="386"/>
      <point x="421" y="343" type="curve" smooth="yes"/>
      <point x="436" y="331"/>
      <point x="438" y="308"/>
      <point x="426" y="294" type="curve" smooth="yes"/>
      <point x="414" y="279"/>
      <point x="391" y="277"/>
    </contour>
    <contour>
      <point x="434" y="544" type="curve" smooth="yes"/>
      <point x="434" y="33" type="line" smooth="yes"/>
      <point x="434" y="14"/>
      <point x="418" y="-2"/>
      <point x="399" y="-2" type="curve" smooth="yes"/>
      <point x="380" y="-2"/>
      <point x="364" y="14"/>
      <point x="364" y="33" type="curve" smooth="yes"/>
      <point x="364" y="544" type="line" smooth="yes"/>
      <point x="364" y="563"/>
      <point x="380" y="579"/>
      <point x="399" y="579" type="curve" smooth="yes"/>
      <point x="418" y="579"/>
      <point x="434" y="563"/>
    </contour>
  </outline>
</glyph>
<glyph name="e" format="1">
  <advance width="468"/>
  <unicode hex="0065"/>
  <outline>
    <contour>
      <point x="92" y="244" type="curve" smooth="yes"/>
      <point x="311" y="244" type="line" smooth="yes"/>
      <point x="327" y="244"/>
      <point x="348" y="246"/>
      <point x="348" y="267" type="curve" smooth="yes"/>
      <point x="348" y="297"/>
      <point x="307" y="340"/>
      <point x="247" y="340" type="curve" smooth="yes"/>
      <point x="172" y="340"/>
      <point x="114" y="282"/>
      <point x="114" y="199" type="curve" smooth="yes"/>
      <point x="114" y="111"/>
      <point x="179" y="68"/>
      <point x="267" y="68" type="curve" smooth="yes"/>
      <point x="298" y="68"/>
      <point x="329" y="75"/>
      <point x="351" y="84" type="curve" smooth="yes"/>
      <point x="369" y="90"/>
      <point x="390" y="81"/>
      <point x="397" y="64" type="curve" smooth="yes"/>
      <point x="403" y="46"/>
      <point x="394" y="25"/>
      <point x="377" y="18" type="curve" smooth="yes"/>
      <point x="347" y="7"/>
      <point x="308" y="-2"/>
      <point x="267" y="-2" type="curve" smooth="yes"/>
      <point x="133" y="-2"/>
      <point x="44" y="71"/>
      <point x="44" y="199" type="curve"/>
      <point x="44" y="326"/>
      <point x="136" y="410"/>
      <point x="247" y="410" type="curve" smooth="yes"/>
      <point x="365" y="410"/>
      <point x="418" y="319"/>
      <point x="418" y="267" type="curve" smooth="yes"/>
      <point x="418" y="208"/>
      <point x="377" y="174"/>
      <point x="311" y="174" type="curve" smooth="yes"/>
      <point x="92" y="174" type="line" smooth="yes"/>
      <point x="73" y="174"/>
      <point x="57" y="190"/>
      <point x="57" y="209" type="curve" smooth="yes"/>
      <point x="57" y="228"/>
      <point x="73" y="244"/>
    </contour>
  </outline>
</glyph>
<glyph name="f" format="1">
  <advance width="328"/>
  <unicode hex="0066"/>
  <outline>
    <contour>
      <point x="277" y="535" type="curve" smooth="yes"/>
      <point x="203" y="531"/>
      <point x="174" y="501"/>
      <point x="174" y="448" type="curve" smooth="yes"/>
      <point x="174" y="33" type="line" smooth="yes"/>
      <point x="174" y="14"/>
      <point x="158" y="-2"/>
      <point x="139" y="-2" type="curve" smooth="yes"/>
      <point x="120" y="-2"/>
      <point x="104" y="14"/>
      <point x="104" y="33" type="curve" smooth="yes"/>
      <point x="104" y="448" type="line" smooth="yes"/>
      <point x="104" y="535"/>
      <point x="139" y="597"/>
      <point x="273" y="605" type="curve" smooth="yes"/>
      <point x="292" y="606"/>
      <point x="309" y="591"/>
      <point x="310" y="572" type="curve" smooth="yes"/>
      <point x="311" y="553"/>
      <point x="296" y="536"/>
    </contour>
    <contour>
      <point x="51" y="410" type="curve" smooth="yes"/>
      <point x="277" y="410" type="line" smooth="yes"/>
      <point x="296" y="410"/>
      <point x="312" y="394"/>
      <point x="312" y="375" type="curve" smooth="yes"/>
      <point x="312" y="356"/>
      <point x="296" y="340"/>
      <point x="277" y="340" type="curve" smooth="yes"/>
      <point x="51" y="340" type="line" smooth="yes"/>
      <point x="32" y="340"/>
      <point x="16" y="356"/>
      <point x="16" y="375" type="curve" smooth="yes"/>
      <point x="16" y="394"/>
      <point x="32" y="410"/>
    </contour>
  </outline>
</glyph>
<glyph name="g" format="1">
  <advance width="512"/>
  <unicode hex="0067"/>
  <outline>
    <contour>
      <point x="382" y="306" type="curve" smooth="yes"/>
      <point x="335" y="329"/>
      <point x="304" y="340"/>
      <point x="254" y="340" type="curve" smooth="yes"/>
      <point x="182" y="340"/>
      <point x="113" y="283"/>
      <point x="113" y="195" type="curve" smooth="yes"/>
      <point x="113" y="116"/>
      <point x="166" y="80"/>
      <point x="220" y="80" type="curve" smooth="yes"/>
      <point x="275" y="80"/>
      <point x="330" y="112"/>
      <point x="366" y="171" type="curve" smooth="yes"/>
      <point x="376" y="187"/>
      <point x="399" y="192"/>
      <point x="415" y="182" type="curve" smooth="yes"/>
      <point x="431" y="172"/>
      <point x="436" y="149"/>
      <point x="426" y="133" type="curve" smooth="yes"/>
      <point x="374" y="52"/>
      <point x="297" y="10"/>
      <point x="220" y="10" type="curve" smooth="yes"/>
      <point x="132" y="10"/>
      <point x="43" y="64"/>
      <point x="43" y="195" type="curve"/>
      <point x="43" y="327"/>
      <point x="148" y="410"/>
      <point x="254" y="410" type="curve" smooth="yes"/>
      <point x="316" y="410"/>
      <point x="355" y="397"/>
      <point x="412" y="370" type="curve" smooth="yes"/>
      <point x="429" y="361"/>
      <point x="437" y="340"/>
      <point x="429" y="323" type="curve" smooth="yes"/>
      <point x="420" y="306"/>
      <point x="399" y="298"/>
    </contour>
    <contour>
      <point x="166" y="-113" type="curve" smooth="yes"/>
      <point x="298" y="-113"/>
      <point x="362" y="-66"/>
      <point x="362" y="49" type="curve" smooth="yes"/>
      <point x="362" y="375" type="line" smooth="yes"/>
      <point x="362" y="394"/>
      <point x="378" y="410"/>
      <point x="397" y="410" type="curve" smooth="yes"/>
      <point x="416" y="410"/>
      <point x="432" y="394"/>
      <point x="432" y="375" type="curve" smooth="yes"/>
      <point x="432" y="49" type="line" smooth="yes"/>
      <point x="432" y="-106"/>
      <point x="354" y="-183"/>
      <point x="166" y="-183" type="curve" smooth="yes"/>
      <point x="147" y="-183"/>
      <point x="131" y="-167"/>
      <point x="131" y="-148" type="curve" smooth="yes"/>
      <point x="131" y="-129"/>
      <point x="147" y="-113"/>
    </contour>
  </outline>
</glyph>
<glyph name="h" format="1">
  <advance width="507"/>
  <unicode hex="0068"/>
  <outline>
    <contour>
      <point x="80" y="33" type="curve" smooth="yes"/>
      <point x="80" y="544" type="line" smooth="yes"/>
      <point x="80" y="563"/>
      <point x="96" y="579"/>
      <point x="115" y="579" type="curve" smooth="yes"/>
      <point x="134" y="579"/>
      <point x="150" y="563"/>
      <point x="150" y="544" type="curve" smooth="yes"/>
      <point x="150" y="33" type="line" smooth="yes"/>
      <point x="150" y="14"/>
      <point x="134" y="-2"/>
      <point x="115" y="-2" type="curve" smooth="yes"/>
      <point x="96" y="-2"/>
      <point x="80" y="14"/>
    </contour>
    <contour>
      <point x="367" y="33" type="curve" smooth="yes"/>
      <point x="367" y="233" type="line" smooth="yes"/>
      <point x="367" y="305"/>
      <point x="338" y="340"/>
      <point x="290" y="340" type="curve" smooth="yes"/>
      <point x="236" y="340"/>
      <point x="185" y="304"/>
      <point x="144" y="263" type="curve" smooth="yes"/>
      <point x="130" y="250"/>
      <point x="108" y="250"/>
      <point x="94" y="263" type="curve" smooth="yes"/>
      <point x="81" y="277"/>
      <point x="81" y="299"/>
      <point x="94" y="313" type="curve" smooth="yes"/>
      <point x="149" y="368"/>
      <point x="218" y="410"/>
      <point x="290" y="410" type="curve" smooth="yes"/>
      <point x="370" y="410"/>
      <point x="437" y="371"/>
      <point x="437" y="233" type="curve" smooth="yes"/>
      <point x="437" y="33" type="line" smooth="yes"/>
      <point x="437" y="14"/>
      <point x="421" y="-2"/>
      <point x="402" y="-2" type="curve" smooth="yes"/>
      <point x="383" y="-2"/>
      <point x="367" y="14"/>
    </contour>
  </outline>
</glyph>
<glyph name="i" format="1">
  <advance width="217"/>
  <unicode hex="0069"/>
  <outline>
    <contour>
      <point x="109" y="618" type="curve" smooth="yes"/>
      <point x="135" y="618"/>
      <point x="161" y="597"/>
      <point x="161" y="557" type="curve" smooth="yes"/>
      <point x="161" y="517"/>
      <point x="136" y="498"/>
      <point x="109" y="498" type="curve" smooth="yes"/>
      <point x="80" y="498"/>
      <point x="55" y="520"/>
      <point x="55" y="557" type="curve"/>
      <point x="55" y="594"/>
      <point x="81" y="618"/>
    </contour>
    <contour>
      <point x="73" y="33" type="curve" smooth="yes"/>
      <point x="73" y="375" type="line" smooth="yes"/>
      <point x="73" y="394"/>
      <point x="89" y="410"/>
      <point x="108" y="410" type="curve" smooth="yes"/>
      <point x="127" y="410"/>
      <point x="143" y="394"/>
      <point x="143" y="375" type="curve" smooth="yes"/>
      <point x="143" y="33" type="line" smooth="yes"/>
      <point x="143" y="14"/>
      <point x="127" y="-2"/>
      <point x="108" y="-2" type="curve" smooth="yes"/>
      <point x="89" y="-2"/>
      <point x="73" y="14"/>
    </contour>
    <contour>
      <point x="109" y="548" type="curve" smooth="yes"/>
      <point x="113" y="548"/>
      <point x="125" y="546"/>
      <point x="125" y="557" type="curve" smooth="yes"/>
      <point x="125" y="568"/>
      <point x="115" y="568"/>
      <point x="109" y="568" type="curve" smooth="yes"/>
      <point x="104" y="568"/>
      <point x="91" y="571"/>
      <point x="91" y="557" type="curve" smooth="yes"/>
      <point x="91" y="543"/>
      <point x="105" y="548"/>
    </contour>
  </outline>
</glyph>
<glyph name="j" format="1">
  <advance width="220"/>
  <unicode hex="006A"/>
  <outline>
    <contour>
      <point x="112" y="618" type="curve" smooth="yes"/>
      <point x="138" y="618"/>
      <point x="164" y="597"/>
      <point x="164" y="557" type="curve" smooth="yes"/>
      <point x="164" y="517"/>
      <point x="139" y="498"/>
      <point x="112" y="498" type="curve" smooth="yes"/>
      <point x="83" y="498"/>
      <point x="58" y="520"/>
      <point x="58" y="557" type="curve"/>
      <point x="58" y="594"/>
      <point x="84" y="618"/>
    </contour>
    <contour>
      <point x="-12" y="-92" type="curve" smooth="yes"/>
      <point x="45" y="-70"/>
      <point x="76" y="-28"/>
      <point x="76" y="52" type="curve" smooth="yes"/>
      <point x="76" y="375" type="line" smooth="yes"/>
      <point x="76" y="394"/>
      <point x="92" y="410"/>
      <point x="111" y="410" type="curve" smooth="yes"/>
      <point x="130" y="410"/>
      <point x="146" y="394"/>
      <point x="146" y="375" type="curve" smooth="yes"/>
      <point x="146" y="52" type="line" smooth="yes"/>
      <point x="146" y="-66"/>
      <point x="97" y="-126"/>
      <point x="14" y="-158" type="curve" smooth="yes"/>
      <point x="-4" y="-164"/>
      <point x="-25" y="-155"/>
      <point x="-32" y="-138" type="curve" smooth="yes"/>
      <point x="-38" y="-120"/>
      <point x="-29" y="-99"/>
    </contour>
    <contour>
      <point x="112" y="548" type="curve" smooth="yes"/>
      <point x="116" y="548"/>
      <point x="128" y="546"/>
      <point x="128" y="557" type="curve" smooth="yes"/>
      <point x="128" y="568"/>
      <point x="118" y="568"/>
      <point x="112" y="568" type="curve" smooth="yes"/>
      <point x="107" y="568"/>
      <point x="94" y="571"/>
      <point x="94" y="557" type="curve" smooth="yes"/>
      <point x="94" y="543"/>
      <point x="108" y="548"/>
    </contour>
  </outline>
</glyph>
<glyph name="k" format="1">
  <advance width="483"/>
  <unicode hex="006B"/>
  <outline>
    <contour>
      <point x="80" y="33" type="curve" smooth="yes"/>
      <point x="80" y="544" type="line" smooth="yes"/>
      <point x="80" y="563"/>
      <point x="96" y="579"/>
      <point x="115" y="579" type="curve" smooth="yes"/>
      <point x="134" y="579"/>
      <point x="150" y="563"/>
      <point x="150" y="544" type="curve" smooth="yes"/>
      <point x="150" y="33" type="line" smooth="yes"/>
      <point x="150" y="14"/>
      <point x="134" y="-2"/>
      <point x="115" y="-2" type="curve" smooth="yes"/>
      <point x="96" y="-2"/>
      <point x="80" y="14"/>
    </contour>
    <contour>
      <point x="268" y="279" type="curve" smooth="yes"/>
      <point x="429" y="53" type="line" smooth="yes"/>
      <point x="439" y="38"/>
      <point x="436" y="15"/>
      <point x="420" y="4" type="curve" smooth="yes"/>
      <point x="405" y="-6"/>
      <point x="382" y="-3"/>
      <point x="371" y="13" type="curve" smooth="yes"/>
      <point x="210" y="239" type="line" smooth="yes"/>
      <point x="200" y="254"/>
      <point x="203" y="277"/>
      <point x="219" y="288" type="curve" smooth="yes"/>
      <point x="234" y="298"/>
      <point x="257" y="295"/>
    </contour>
    <contour>
      <point x="409" y="347" type="curve" smooth="yes"/>
      <point x="139" y="135" type="line" smooth="yes"/>
      <point x="124" y="124"/>
      <point x="101" y="127"/>
      <point x="89" y="141" type="curve" smooth="yes"/>
      <point x="78" y="156"/>
      <point x="81" y="179"/>
      <point x="95" y="191" type="curve" smooth="yes"/>
      <point x="365" y="403" type="line" smooth="yes"/>
      <point x="380" y="414"/>
      <point x="403" y="411"/>
      <point x="415" y="397" type="curve" smooth="yes"/>
      <point x="426" y="382"/>
      <point x="423" y="359"/>
    </contour>
  </outline>
</glyph>
<glyph name="l" format="1">
  <advance width="242"/>
  <unicode hex="006C"/>
  <outline>
    <contour>
      <point x="86" y="33" type="curve" smooth="yes"/>
      <point x="86" y="544" type="line" smooth="yes"/>
      <point x="86" y="563"/>
      <point x="102" y="579"/>
      <point x="121" y="579" type="curve" smooth="yes"/>
      <point x="140" y="579"/>
      <point x="156" y="563"/>
      <point x="156" y="544" type="curve" smooth="yes"/>
      <point x="156" y="33" type="line" smooth="yes"/>
      <point x="156" y="14"/>
      <point x="140" y="-2"/>
      <point x="121" y="-2" type="curve" smooth="yes"/>
      <point x="102" y="-2"/>
      <point x="86" y="14"/>
    </contour>
  </outline>
</glyph>
<glyph name="m" format="1">
  <advance width="762"/>
  <unicode hex="006D"/>
  <outline>
    <contour>
      <point x="80" y="33" type="curve" smooth="yes"/>
      <point x="80" y="375" type="line" smooth="yes"/>
      <point x="80" y="394"/>
      <point x="96" y="410"/>
      <point x="115" y="410" type="curve" smooth="yes"/>
      <point x="134" y="410"/>
      <point x="150" y="394"/>
      <point x="150" y="375" type="curve" smooth="yes"/>
      <point x="150" y="33" type="line" smooth="yes"/>
      <point x="150" y="14"/>
      <point x="134" y="-2"/>
      <point x="115" y="-2" type="curve" smooth="yes"/>
      <point x="96" y="-2"/>
      <point x="80" y="14"/>
    </contour>
    <contour>
      <point x="352" y="33" type="curve" smooth="yes"/>
      <point x="352" y="243" type="line" smooth="yes"/>
      <point x="352" y="313"/>
      <point x="323" y="340"/>
      <point x="278" y="340" type="curve" smooth="yes"/>
      <point x="230" y="340"/>
      <point x="180" y="304"/>
      <point x="143" y="263" type="curve" smooth="yes"/>
      <point x="130" y="249"/>
      <point x="108" y="247"/>
      <point x="94" y="260" type="curve" smooth="yes"/>
      <point x="80" y="273"/>
      <point x="78" y="295"/>
      <point x="91" y="309" type="curve" smooth="yes"/>
      <point x="142" y="366"/>
      <point x="212" y="410"/>
      <point x="278" y="410" type="curve" smooth="yes"/>
      <point x="355" y="410"/>
      <point x="422" y="379"/>
      <point x="422" y="243" type="curve" smooth="yes"/>
      <point x="422" y="33" type="line" smooth="yes"/>
      <point x="422" y="14"/>
      <point x="406" y="-2"/>
      <point x="387" y="-2" type="curve" smooth="yes"/>
      <point x="368" y="-2"/>
      <point x="352" y="14"/>
    </contour>
    <contour>
      <point x="622" y="33" type="curve" smooth="yes"/>
      <point x="622" y="243" type="line" smooth="yes"/>
      <point x="622" y="313"/>
      <point x="593" y="340"/>
      <point x="548" y="340" type="curve" smooth="yes"/>
      <point x="499" y="340"/>
      <point x="451" y="303"/>
      <point x="413" y="262" type="curve" smooth="yes"/>
      <point x="400" y="248"/>
      <point x="377" y="247"/>
      <point x="363" y="260" type="curve" smooth="yes"/>
      <point x="349" y="273"/>
      <point x="348" y="296"/>
      <point x="361" y="310" type="curve" smooth="yes"/>
      <point x="413" y="367"/>
      <point x="483" y="410"/>
      <point x="548" y="410" type="curve" smooth="yes"/>
      <point x="625" y="410"/>
      <point x="692" y="379"/>
      <point x="692" y="243" type="curve" smooth="yes"/>
      <point x="692" y="33" type="line" smooth="yes"/>
      <point x="692" y="14"/>
      <point x="676" y="-2"/>
      <point x="657" y="-2" type="curve" smooth="yes"/>
      <point x="638" y="-2"/>
      <point x="622" y="14"/>
    </contour>
  </outline>
</glyph>
<glyph name="o" format="1">
  <advance width="504"/>
  <unicode hex="006F"/>
  <outline>
    <contour>
      <point x="252" y="414" type="curve" smooth="yes"/>
      <point x="380" y="414"/>
      <point x="461" y="318"/>
      <point x="461" y="199" type="curve" smooth="yes"/>
      <point x="461" y="84"/>
      <point x="380" y="-6"/>
      <point x="252" y="-6" type="curve" smooth="yes"/>
      <point x="124" y="-6"/>
      <point x="43" y="84"/>
      <point x="43" y="201" type="curve"/>
      <point x="43" y="318"/>
      <point x="123" y="414"/>
    </contour>
    <contour>
      <point x="252" y="344" type="curve" smooth="yes"/>
      <point x="165" y="344"/>
      <point x="113" y="278"/>
      <point x="113" y="201" type="curve" smooth="yes"/>
      <point x="113" y="124"/>
      <point x="168" y="64"/>
      <point x="252" y="64" type="curve" smooth="yes"/>
      <point x="336" y="64"/>
      <point x="391" y="122"/>
      <point x="391" y="199" type="curve" smooth="yes"/>
      <point x="391" y="278"/>
      <point x="338" y="344"/>
    </contour>
  </outline>
</glyph>
<glyph name="p" format="1">
  <advance width="513"/>
  <unicode hex="0070"/>
  <outline>
    <contour>
      <point x="80" y="-158" type="curve" smooth="yes"/>
      <point x="80" y="375" type="line" smooth="yes"/>
      <point x="80" y="394"/>
      <point x="96" y="410"/>
      <point x="115" y="410" type="curve" smooth="yes"/>
      <point x="134" y="410"/>
      <point x="150" y="394"/>
      <point x="150" y="375" type="curve" smooth="yes"/>
      <point x="150" y="-158" type="line" smooth="yes"/>
      <point x="150" y="-177"/>
      <point x="134" y="-193"/>
      <point x="115" y="-193" type="curve" smooth="yes"/>
      <point x="96" y="-193"/>
      <point x="80" y="-177"/>
    </contour>
    <contour>
      <point x="137" y="124" type="curve" smooth="yes"/>
      <point x="177" y="91"/>
      <point x="224" y="68"/>
      <point x="270" y="68" type="curve" smooth="yes"/>
      <point x="348" y="68"/>
      <point x="400" y="128"/>
      <point x="400" y="204" type="curve" smooth="yes"/>
      <point x="400" y="290"/>
      <point x="346" y="340"/>
      <point x="282" y="340" type="curve" smooth="yes"/>
      <point x="227" y="340"/>
      <point x="182" y="301"/>
      <point x="145" y="248" type="curve" smooth="yes"/>
      <point x="134" y="232"/>
      <point x="111" y="228"/>
      <point x="96" y="239" type="curve" smooth="yes"/>
      <point x="80" y="250"/>
      <point x="76" y="273"/>
      <point x="87" y="288" type="curve" smooth="yes"/>
      <point x="140" y="363"/>
      <point x="207" y="410"/>
      <point x="282" y="410" type="curve" smooth="yes"/>
      <point x="380" y="410"/>
      <point x="470" y="340"/>
      <point x="470" y="204" type="curve" smooth="yes"/>
      <point x="470" y="86"/>
      <point x="388" y="-2"/>
      <point x="270" y="-2" type="curve" smooth="yes"/>
      <point x="208" y="-2"/>
      <point x="145" y="27"/>
      <point x="93" y="70" type="curve" smooth="yes"/>
      <point x="78" y="82"/>
      <point x="76" y="105"/>
      <point x="88" y="119" type="curve" smooth="yes"/>
      <point x="100" y="134"/>
      <point x="123" y="136"/>
    </contour>
  </outline>
</glyph>
<glyph name="q" format="1">
  <advance width="513"/>
  <unicode hex="0071"/>
  <outline>
    <contour>
      <point x="433" y="375" type="curve" smooth="yes"/>
      <point x="433" y="-158" type="line" smooth="yes"/>
      <point x="433" y="-177"/>
      <point x="417" y="-193"/>
      <point x="398" y="-193" type="curve" smooth="yes"/>
      <point x="379" y="-193"/>
      <point x="363" y="-177"/>
      <point x="363" y="-158" type="curve" smooth="yes"/>
      <point x="363" y="375" type="line" smooth="yes"/>
      <point x="363" y="394"/>
      <point x="379" y="410"/>
      <point x="398" y="410" type="curve" smooth="yes"/>
      <point x="417" y="410"/>
      <point x="433" y="394"/>
    </contour>
    <contour>
      <point x="379" y="304" type="curve" smooth="yes"/>
      <point x="344" y="327"/>
      <point x="304" y="340"/>
      <point x="254" y="340" type="curve" smooth="yes"/>
      <point x="177" y="340"/>
      <point x="112" y="282"/>
      <point x="112" y="189" type="curve" smooth="yes"/>
      <point x="112" y="114"/>
      <point x="166" y="68"/>
      <point x="225" y="68" type="curve" smooth="yes"/>
      <point x="279" y="68"/>
      <point x="330" y="99"/>
      <point x="367" y="159" type="curve" smooth="yes"/>
      <point x="377" y="175"/>
      <point x="399" y="181"/>
      <point x="415" y="171" type="curve" smooth="yes"/>
      <point x="431" y="161"/>
      <point x="437" y="139"/>
      <point x="427" y="123" type="curve" smooth="yes"/>
      <point x="374" y="37"/>
      <point x="299" y="-2"/>
      <point x="225" y="-2" type="curve" smooth="yes"/>
      <point x="132" y="-2"/>
      <point x="42" y="68"/>
      <point x="42" y="189" type="curve"/>
      <point x="42" y="328"/>
      <point x="141" y="410"/>
      <point x="254" y="410" type="curve" smooth="yes"/>
      <point x="320" y="410"/>
      <point x="370" y="393"/>
      <point x="417" y="364" type="curve" smooth="yes"/>
      <point x="433" y="353"/>
      <point x="438" y="331"/>
      <point x="428" y="315" type="curve" smooth="yes"/>
      <point x="417" y="299"/>
      <point x="395" y="294"/>
    </contour>
  </outline>
</glyph>
<glyph name="r" format="1">
  <advance width="358"/>
  <unicode hex="0072"/>
  <outline>
    <contour>
      <point x="80" y="33" type="curve" smooth="yes"/>
      <point x="80" y="375" type="line" smooth="yes"/>
      <point x="80" y="394"/>
      <point x="96" y="410"/>
      <point x="115" y="410" type="curve" smooth="yes"/>
      <point x="134" y="410"/>
      <point x="150" y="394"/>
      <point x="150" y="375" type="curve" smooth="yes"/>
      <point x="150" y="33" type="line" smooth="yes"/>
      <point x="150" y="14"/>
      <point x="134" y="-2"/>
      <point x="115" y="-2" type="curve" smooth="yes"/>
      <point x="96" y="-2"/>
      <point x="80" y="14"/>
    </contour>
    <contour>
      <point x="87" y="263" type="curve" smooth="yes"/>
      <point x="140" y="345"/>
      <point x="204" y="397"/>
      <point x="303" y="410" type="curve" smooth="yes"/>
      <point x="321" y="412"/>
      <point x="339" y="398"/>
      <point x="342" y="379" type="curve" smooth="yes"/>
      <point x="344" y="361"/>
      <point x="330" y="343"/>
      <point x="311" y="340" type="curve" smooth="yes"/>
      <point x="234" y="331"/>
      <point x="186" y="289"/>
      <point x="145" y="225" type="curve" smooth="yes"/>
      <point x="135" y="209"/>
      <point x="113" y="204"/>
      <point x="97" y="215" type="curve" smooth="yes"/>
      <point x="81" y="225"/>
      <point x="76" y="247"/>
    </contour>
  </outline>
</glyph>
<glyph name="s" format="1">
  <advance width="462"/>
  <unicode hex="0073"/>
  <outline>
    <contour>
      <point x="334" y="326" type="curve" smooth="yes"/>
      <point x="307" y="334"/>
      <point x="272" y="340"/>
      <point x="234" y="340" type="curve" smooth="yes"/>
      <point x="181" y="340"/>
      <point x="141" y="323"/>
      <point x="141" y="293" type="curve" smooth="yes"/>
      <point x="141" y="266"/>
      <point x="179" y="254"/>
      <point x="229" y="249" type="curve" smooth="yes"/>
      <point x="269" y="245" type="line" smooth="yes"/>
      <point x="377" y="234"/>
      <point x="411" y="176"/>
      <point x="411" y="119" type="curve" smooth="yes"/>
      <point x="411" y="61"/>
      <point x="378" y="-6"/>
      <point x="240" y="-6" type="curve" smooth="yes"/>
      <point x="188" y="-6"/>
      <point x="134" y="4"/>
      <point x="86" y="25" type="curve" smooth="yes"/>
      <point x="69" y="32"/>
      <point x="60" y="54"/>
      <point x="68" y="71" type="curve" smooth="yes"/>
      <point x="75" y="88"/>
      <point x="97" y="97"/>
      <point x="114" y="89" type="curve" smooth="yes"/>
      <point x="154" y="72"/>
      <point x="198" y="64"/>
      <point x="240" y="64" type="curve" smooth="yes"/>
      <point x="301" y="64"/>
      <point x="341" y="85"/>
      <point x="341" y="119" type="curve" smooth="yes"/>
      <point x="341" y="150"/>
      <point x="311" y="170"/>
      <point x="263" y="175" type="curve" smooth="yes"/>
      <point x="223" y="179" type="line" smooth="yes"/>
      <point x="93" y="192"/>
      <point x="71" y="246"/>
      <point x="71" y="293" type="curve" smooth="yes"/>
      <point x="71" y="345"/>
      <point x="101" y="410"/>
      <point x="234" y="410" type="curve" smooth="yes"/>
      <point x="280" y="410"/>
      <point x="321" y="402"/>
      <point x="352" y="394" type="curve" smooth="yes"/>
      <point x="371" y="389"/>
      <point x="382" y="369"/>
      <point x="377" y="351" type="curve" smooth="yes"/>
      <point x="372" y="332"/>
      <point x="352" y="321"/>
    </contour>
  </outline>
</glyph>
<glyph name="t" format="1">
  <advance width="364"/>
  <unicode hex="0074"/>
  <outline>
    <contour>
      <point x="174" y="501" type="curve" smooth="yes"/>
      <point x="174" y="150" type="line" smooth="yes"/>
      <point x="174" y="94"/>
      <point x="214" y="69"/>
      <point x="285" y="68" type="curve" smooth="yes"/>
      <point x="304" y="68"/>
      <point x="319" y="51"/>
      <point x="319" y="32" type="curve" smooth="yes"/>
      <point x="319" y="13"/>
      <point x="302" y="-2"/>
      <point x="283" y="-2" type="curve" smooth="yes"/>
      <point x="152" y="1"/>
      <point x="104" y="58"/>
      <point x="104" y="150" type="curve" smooth="yes"/>
      <point x="104" y="501" type="line" smooth="yes"/>
      <point x="104" y="520"/>
      <point x="120" y="536"/>
      <point x="139" y="536" type="curve" smooth="yes"/>
      <point x="158" y="536"/>
      <point x="174" y="520"/>
    </contour>
    <contour>
      <point x="51" y="410" type="curve" smooth="yes"/>
      <point x="297" y="410" type="line" smooth="yes"/>
      <point x="316" y="410"/>
      <point x="332" y="394"/>
      <point x="332" y="375" type="curve" smooth="yes"/>
      <point x="332" y="356"/>
      <point x="316" y="340"/>
      <point x="297" y="340" type="curve" smooth="yes"/>
      <point x="51" y="340" type="line" smooth="yes"/>
      <point x="32" y="340"/>
      <point x="16" y="356"/>
      <point x="16" y="375" type="curve" smooth="yes"/>
      <point x="16" y="394"/>
      <point x="32" y="410"/>
    </contour>
  </outline>
</glyph>
<glyph name="u" format="1">
  <advance width="507"/>
  <unicode hex="0075"/>
  <outline>
    <contour>
      <point x="427" y="375" type="curve" smooth="yes"/>
      <point x="427" y="33" type="line" smooth="yes"/>
      <point x="427" y="14"/>
      <point x="411" y="-2"/>
      <point x="392" y="-2" type="curve" smooth="yes"/>
      <point x="373" y="-2"/>
      <point x="357" y="14"/>
      <point x="357" y="33" type="curve" smooth="yes"/>
      <point x="357" y="375" type="line" smooth="yes"/>
      <point x="357" y="394"/>
      <point x="373" y="410"/>
      <point x="392" y="410" type="curve" smooth="yes"/>
      <point x="411" y="410"/>
      <point x="427" y="394"/>
    </contour>
    <contour>
      <point x="140" y="375" type="curve" smooth="yes"/>
      <point x="140" y="175" type="line" smooth="yes"/>
      <point x="140" y="103"/>
      <point x="169" y="68"/>
      <point x="217" y="68" type="curve" smooth="yes"/>
      <point x="270" y="68"/>
      <point x="325" y="112"/>
      <point x="360" y="161" type="curve" smooth="yes"/>
      <point x="371" y="176"/>
      <point x="393" y="179"/>
      <point x="409" y="168" type="curve" smooth="yes"/>
      <point x="424" y="157"/>
      <point x="427" y="135"/>
      <point x="416" y="119" type="curve" smooth="yes"/>
      <point x="367" y="52"/>
      <point x="290" y="-2"/>
      <point x="217" y="-2" type="curve" smooth="yes"/>
      <point x="137" y="-2"/>
      <point x="70" y="37"/>
      <point x="70" y="175" type="curve" smooth="yes"/>
      <point x="70" y="375" type="line" smooth="yes"/>
      <point x="70" y="394"/>
      <point x="86" y="410"/>
      <point x="105" y="410" type="curve" smooth="yes"/>
      <point x="124" y="410"/>
      <point x="140" y="394"/>
    </contour>
  </outline>
</glyph>
<glyph name="v" format="1">
  <advance width="461"/>
  <unicode hex="0076"/>
  <outline>
    <contour>
      <point x="101" y="388" type="curve" smooth="yes"/>
      <point x="159" y="237"/>
      <point x="212" y="132"/>
      <point x="264" y="47" type="curve"/>
      <point x="234" y="64" type="line"/>
      <point x="237" y="64" type="line"/>
      <point x="207" y="47" type="line"/>
      <point x="258" y="132"/>
      <point x="322" y="279"/>
      <point x="361" y="387" type="curve" smooth="yes"/>
      <point x="368" y="405"/>
      <point x="388" y="414"/>
      <point x="406" y="408" type="curve" smooth="yes"/>
      <point x="424" y="401"/>
      <point x="433" y="381"/>
      <point x="427" y="363" type="curve" smooth="yes"/>
      <point x="386" y="251"/>
      <point x="320" y="98"/>
      <point x="267" y="11" type="curve" smooth="yes"/>
      <point x="261" y="2"/>
      <point x="248" y="-6"/>
      <point x="237" y="-6" type="curve" smooth="yes"/>
      <point x="234" y="-6" type="line" smooth="yes"/>
      <point x="223" y="-6"/>
      <point x="210" y="1"/>
      <point x="204" y="11" type="curve" smooth="yes"/>
      <point x="150" y="98"/>
      <point x="95" y="207"/>
      <point x="35" y="362" type="curve" smooth="yes"/>
      <point x="29" y="380"/>
      <point x="38" y="401"/>
      <point x="55" y="408" type="curve" smooth="yes"/>
      <point x="73" y="414"/>
      <point x="94" y="405"/>
    </contour>
  </outline>
</glyph>
<glyph name="w" format="1">
  <advance width="709"/>
  <unicode hex="0077"/>
  <outline>
    <contour>
      <point x="112" y="383" type="curve" smooth="yes"/>
      <point x="148" y="253"/>
      <point x="195" y="130"/>
      <point x="236" y="45" type="curve"/>
      <point x="204" y="65" type="line"/>
      <point x="206" y="65" type="line"/>
      <point x="175" y="46" type="line"/>
      <point x="217" y="130"/>
      <point x="284" y="267"/>
      <point x="318" y="374" type="curve" smooth="yes"/>
      <point x="323" y="392"/>
      <point x="343" y="403"/>
      <point x="361" y="397" type="curve" smooth="yes"/>
      <point x="379" y="392"/>
      <point x="390" y="372"/>
      <point x="384" y="354" type="curve" smooth="yes"/>
      <point x="350" y="243"/>
      <point x="281" y="102"/>
      <point x="237" y="14" type="curve" smooth="yes"/>
      <point x="232" y="4"/>
      <point x="218" y="-5"/>
      <point x="206" y="-5" type="curve" smooth="yes"/>
      <point x="204" y="-5" type="line" smooth="yes"/>
      <point x="192" y="-5"/>
      <point x="178" y="4"/>
      <point x="172" y="15" type="curve" smooth="yes"/>
      <point x="131" y="102"/>
      <point x="82" y="229"/>
      <point x="44" y="365" type="curve" smooth="yes"/>
      <point x="39" y="383"/>
      <point x="50" y="403"/>
      <point x="69" y="408" type="curve" smooth="yes"/>
      <point x="87" y="413"/>
      <point x="107" y="402"/>
    </contour>
    <contour>
      <point x="391" y="376" type="curve" smooth="yes"/>
      <point x="437" y="245"/>
      <point x="490" y="130"/>
      <point x="535" y="46" type="curve"/>
      <point x="504" y="64" type="line"/>
      <point x="506" y="64" type="line"/>
      <point x="474" y="43" type="line"/>
      <point x="513" y="128"/>
      <point x="566" y="264"/>
      <point x="598" y="382" type="curve" smooth="yes"/>
      <point x="603" y="401"/>
      <point x="623" y="412"/>
      <point x="641" y="407" type="curve" smooth="yes"/>
      <point x="660" y="402"/>
      <point x="671" y="382"/>
      <point x="666" y="364" type="curve" smooth="yes"/>
      <point x="632" y="242"/>
      <point x="577" y="102"/>
      <point x="538" y="15" type="curve" smooth="yes"/>
      <point x="533" y="3"/>
      <point x="518" y="-6"/>
      <point x="506" y="-6" type="curve" smooth="yes"/>
      <point x="504" y="-6" type="line" smooth="yes"/>
      <point x="492" y="-6"/>
      <point x="479" y="2"/>
      <point x="473" y="12" type="curve" smooth="yes"/>
      <point x="426" y="100"/>
      <point x="373" y="217"/>
      <point x="325" y="352" type="curve" smooth="yes"/>
      <point x="319" y="370"/>
      <point x="329" y="391"/>
      <point x="346" y="397" type="curve" smooth="yes"/>
      <point x="364" y="403"/>
      <point x="385" y="393"/>
    </contour>
  </outline>
</glyph>
<glyph name="x" format="1">
  <advance width="457"/>
  <unicode hex="0078"/>
  <outline>
    <contour>
      <point x="42" y="56" type="curve" smooth="yes"/>
      <point x="106" y="130"/>
      <point x="264" y="299"/>
      <point x="342" y="397" type="curve" smooth="yes"/>
      <point x="353" y="412"/>
      <point x="376" y="414"/>
      <point x="391" y="402" type="curve" smooth="yes"/>
      <point x="406" y="391"/>
      <point x="408" y="368"/>
      <point x="396" y="353" type="curve" smooth="yes"/>
      <point x="318" y="255"/>
      <point x="160" y="84"/>
      <point x="94" y="10" type="curve" smooth="yes"/>
      <point x="82" y="-4"/>
      <point x="59" y="-6"/>
      <point x="45" y="7" type="curve" smooth="yes"/>
      <point x="31" y="19"/>
      <point x="29" y="42"/>
    </contour>
    <contour>
      <point x="108" y="398" type="curve" smooth="yes"/>
      <point x="186" y="306"/>
      <point x="325" y="159"/>
      <point x="415" y="56" type="curve" smooth="yes"/>
      <point x="428" y="42"/>
      <point x="426" y="19"/>
      <point x="412" y="7" type="curve" smooth="yes"/>
      <point x="398" y="-6"/>
      <point x="375" y="-4"/>
      <point x="363" y="10" type="curve" smooth="yes"/>
      <point x="273" y="113"/>
      <point x="132" y="260"/>
      <point x="54" y="352" type="curve" smooth="yes"/>
      <point x="42" y="367"/>
      <point x="44" y="389"/>
      <point x="58" y="402" type="curve" smooth="yes"/>
      <point x="73" y="414"/>
      <point x="95" y="412"/>
    </contour>
  </outline>
</glyph>
<glyph name="y" format="1">
  <advance width="460"/>
  <unicode hex="0079"/>
  <outline>
    <contour>
      <point x="51" y="-111" type="curve" smooth="yes"/>
      <point x="109" y="-77"/>
      <point x="162" y="-36"/>
      <point x="214" y="52" type="curve" smooth="yes"/>
      <point x="266" y="140"/>
      <point x="324" y="275"/>
      <point x="357" y="385" type="curve" smooth="yes"/>
      <point x="363" y="403"/>
      <point x="383" y="414"/>
      <point x="401" y="409" type="curve" smooth="yes"/>
      <point x="419" y="403"/>
      <point x="430" y="383"/>
      <point x="425" y="365" type="curve" smooth="yes"/>
      <point x="390" y="249"/>
      <point x="328" y="108"/>
      <point x="274" y="16" type="curve" smooth="yes"/>
      <point x="214" y="-86"/>
      <point x="153" y="-133"/>
      <point x="85" y="-171" type="curve" smooth="yes"/>
      <point x="69" y="-181"/>
      <point x="47" y="-175"/>
      <point x="38" y="-158" type="curve" smooth="yes"/>
      <point x="28" y="-142"/>
      <point x="34" y="-120"/>
    </contour>
    <contour>
      <point x="103" y="388" type="curve" smooth="yes"/>
      <point x="156" y="238"/>
      <point x="220" y="130"/>
      <point x="270" y="53" type="curve" smooth="yes"/>
      <point x="281" y="37"/>
      <point x="276" y="15"/>
      <point x="260" y="5" type="curve" smooth="yes"/>
      <point x="244" y="-6"/>
      <point x="222" y="-1"/>
      <point x="212" y="15" type="curve" smooth="yes"/>
      <point x="160" y="96"/>
      <point x="92" y="208"/>
      <point x="37" y="364" type="curve" smooth="yes"/>
      <point x="31" y="382"/>
      <point x="41" y="403"/>
      <point x="58" y="409" type="curve" smooth="yes"/>
      <point x="76" y="415"/>
      <point x="97" y="405"/>
    </contour>
  </outline>
</glyph>
<glyph name="z" format="1">
  <advance width="454"/>
  <unicode hex="007A"/>
  <outline>
    <contour>
      <point x="360" y="340" type="curve" smooth="yes"/>
      <point x="91" y="340" type="line" smooth="yes"/>
      <point x="72" y="340"/>
      <point x="56" y="356"/>
      <point x="56" y="375" type="curve" smooth="yes"/>
      <point x="56" y="394"/>
      <point x="72" y="410"/>
      <point x="91" y="410" type="curve" smooth="yes"/>
      <point x="360" y="410" type="line" smooth="yes"/>
      <point x="379" y="410"/>
      <point x="395" y="394"/>
      <point x="395" y="375" type="curve" smooth="yes"/>
      <point x="395" y="356"/>
      <point x="379" y="340"/>
    </contour>
    <contour>
      <point x="76" y="68" type="curve" smooth="yes"/>
      <point x="377" y="68" type="line" smooth="yes"/>
      <point x="396" y="68"/>
      <point x="412" y="52"/>
      <point x="412" y="33" type="curve" smooth="yes"/>
      <point x="412" y="14"/>
      <point x="396" y="-2"/>
      <point x="377" y="-2" type="curve" smooth="yes"/>
      <point x="76" y="-2" type="line" smooth="yes"/>
      <point x="57" y="-2"/>
      <point x="41" y="14"/>
      <point x="41" y="33" type="curve" smooth="yes"/>
      <point x="41" y="52"/>
      <point x="57" y="68"/>
    </contour>
    <contour>
      <point x="393" y="352" type="curve" smooth="yes"/>
      <point x="109" y="18" type="line" smooth="yes"/>
      <point x="96" y="4"/>
      <point x="74" y="2"/>
      <point x="59" y="14" type="curve" smooth="yes"/>
      <point x="45" y="27"/>
      <point x="43" y="49"/>
      <point x="55" y="64" type="curve" smooth="yes"/>
      <point x="339" y="398" type="line" smooth="yes"/>
      <point x="352" y="412"/>
      <point x="374" y="414"/>
      <point x="389" y="402" type="curve" smooth="yes"/>
      <point x="403" y="389"/>
      <point x="405" y="367"/>
    </contour>
  </outline>
</glyph>
<glyph name="braceleft" format="1">
  <advance width="325"/>
  <unicode hex="007B"/>
  <outline>
    <contour>
      <point x="278" y="578" type="curve" smooth="yes"/>
      <point x="258" y="578" type="line" smooth="yes"/>
      <point x="192" y="578"/>
      <point x="135" y="549"/>
      <point x="135" y="505" type="curve" smooth="yes"/>
      <point x="135" y="440"/>
      <point x="202" y="405"/>
      <point x="202" y="347" type="curve" smooth="yes"/>
      <point x="202" y="300"/>
      <point x="171" y="256"/>
      <point x="70" y="241" type="curve"/>
      <point x="100" y="276" type="line"/>
      <point x="100" y="270" type="line"/>
      <point x="70" y="305" type="line"/>
      <point x="171" y="290"/>
      <point x="202" y="246"/>
      <point x="202" y="199" type="curve" smooth="yes"/>
      <point x="202" y="141"/>
      <point x="135" y="106"/>
      <point x="135" y="41" type="curve" smooth="yes"/>
      <point x="135" y="-3"/>
      <point x="192" y="-32"/>
      <point x="258" y="-32" type="curve" smooth="yes"/>
      <point x="278" y="-32" type="line" smooth="yes"/>
      <point x="297" y="-32"/>
      <point x="313" y="-48"/>
      <point x="313" y="-67" type="curve" smooth="yes"/>
      <point x="313" y="-86"/>
      <point x="297" y="-102"/>
      <point x="278" y="-102" type="curve" smooth="yes"/>
      <point x="258" y="-102" type="line" smooth="yes"/>
      <point x="128" y="-102"/>
      <point x="65" y="-29"/>
      <point x="65" y="41" type="curve" smooth="yes"/>
      <point x="65" y="106"/>
      <point x="132" y="141"/>
      <point x="132" y="199" type="curve" smooth="yes"/>
      <point x="132" y="224"/>
      <point x="95" y="230"/>
      <point x="60" y="235" type="curve" smooth="yes"/>
      <point x="43" y="238"/>
      <point x="30" y="253"/>
      <point x="30" y="270" type="curve"/>
      <point x="30" y="276" type="line"/>
      <point x="30" y="293"/>
      <point x="43" y="308"/>
      <point x="60" y="311" type="curve" smooth="yes"/>
      <point x="95" y="316"/>
      <point x="132" y="322"/>
      <point x="132" y="347" type="curve" smooth="yes"/>
      <point x="132" y="405"/>
      <point x="65" y="440"/>
      <point x="65" y="505" type="curve" smooth="yes"/>
      <point x="65" y="575"/>
      <point x="128" y="648"/>
      <point x="258" y="648" type="curve" smooth="yes"/>
      <point x="278" y="648" type="line" smooth="yes"/>
      <point x="297" y="648"/>
      <point x="313" y="632"/>
      <point x="313" y="613" type="curve" smooth="yes"/>
      <point x="313" y="594"/>
      <point x="297" y="578"/>
    </contour>
  </outline>
</glyph>
<glyph name="bar" format="1">
  <advance width="310"/>
  <unicode hex="007C"/>
  <outline>
    <contour>
      <point x="190" y="545" type="curve" smooth="yes"/>
      <point x="190" y="-68" type="line" smooth="yes"/>
      <point x="190" y="-87"/>
      <point x="174" y="-103"/>
      <point x="155" y="-103" type="curve" smooth="yes"/>
      <point x="136" y="-103"/>
      <point x="120" y="-87"/>
      <point x="120" y="-68" type="curve" smooth="yes"/>
      <point x="120" y="545" type="line" smooth="yes"/>
      <point x="120" y="564"/>
      <point x="136" y="580"/>
      <point x="155" y="580" type="curve" smooth="yes"/>
      <point x="174" y="580"/>
      <point x="190" y="564"/>
    </contour>
  </outline>
</glyph>
<glyph name="asciitilde" format="1">
  <advance width="565"/>
  <unicode hex="007E"/>
  <outline>
    <contour>
      <point x="76" y="232" type="curve" smooth="yes"/>
      <point x="118" y="318"/>
      <point x="158" y="350"/>
      <point x="206" y="350" type="curve" smooth="yes"/>
      <point x="248" y="350"/>
      <point x="276" y="325"/>
      <point x="311" y="286" type="curve" smooth="yes"/>
      <point x="331" y="264"/>
      <point x="346" y="245"/>
      <point x="368" y="245" type="curve" smooth="yes"/>
      <point x="402" y="245"/>
      <point x="417" y="282"/>
      <point x="443" y="334" type="curve" smooth="yes"/>
      <point x="451" y="351"/>
      <point x="472" y="359"/>
      <point x="489" y="350" type="curve" smooth="yes"/>
      <point x="506" y="342"/>
      <point x="514" y="321"/>
      <point x="505" y="304" type="curve" smooth="yes"/>
      <point x="459" y="208"/>
      <point x="422" y="175"/>
      <point x="368" y="175" type="curve" smooth="yes"/>
      <point x="328" y="175"/>
      <point x="297" y="196"/>
      <point x="259" y="240" type="curve" smooth="yes"/>
      <point x="242" y="259"/>
      <point x="230" y="280"/>
      <point x="206" y="280" type="curve" smooth="yes"/>
      <point x="176" y="280"/>
      <point x="160" y="246"/>
      <point x="138" y="202" type="curve" smooth="yes"/>
      <point x="130" y="185"/>
      <point x="108" y="177"/>
      <point x="92" y="186" type="curve" smooth="yes"/>
      <point x="75" y="194"/>
      <point x="67" y="216"/>
    </contour>
  </outline>
</glyph>
<glyph name="cent" format="1">
  <advance width="443"/>
  <unicode hex="00A2"/>
  <outline>
    <contour>
      <point x="279" y="517" type="curve" smooth="yes"/>
      <point x="279" y="33" type="line" smooth="yes"/>
      <point x="279" y="14"/>
      <point x="263" y="-2"/>
      <point x="244" y="-2" type="curve" smooth="yes"/>
      <point x="225" y="-2"/>
      <point x="209" y="14"/>
      <point x="209" y="33" type="curve" smooth="yes"/>
      <point x="209" y="517" type="line" smooth="yes"/>
      <point x="209" y="536"/>
      <point x="225" y="552"/>
      <point x="244" y="552" type="curve" smooth="yes"/>
      <point x="263" y="552"/>
      <point x="279" y="536"/>
    </contour>
    <contour>
      <point x="344" y="388" type="curve" smooth="yes"/>
      <point x="320" y="396"/>
      <point x="291" y="401"/>
      <point x="265" y="401" type="curve" smooth="yes"/>
      <point x="171" y="401"/>
      <point x="114" y="345"/>
      <point x="114" y="265" type="curve" smooth="yes"/>
      <point x="114" y="194"/>
      <point x="172" y="145"/>
      <point x="264" y="145" type="curve" smooth="yes"/>
      <point x="300" y="145"/>
      <point x="329" y="152"/>
      <point x="354" y="161" type="curve" smooth="yes"/>
      <point x="372" y="167"/>
      <point x="393" y="158"/>
      <point x="399" y="140" type="curve" smooth="yes"/>
      <point x="405" y="122"/>
      <point x="396" y="101"/>
      <point x="378" y="95" type="curve" smooth="yes"/>
      <point x="347" y="84"/>
      <point x="310" y="75"/>
      <point x="264" y="75" type="curve" smooth="yes"/>
      <point x="118" y="75"/>
      <point x="44" y="162"/>
      <point x="44" y="265" type="curve"/>
      <point x="44" y="383"/>
      <point x="123" y="471"/>
      <point x="265" y="471" type="curve" smooth="yes"/>
      <point x="297" y="471"/>
      <point x="334" y="464"/>
      <point x="364" y="456" type="curve" smooth="yes"/>
      <point x="382" y="450"/>
      <point x="393" y="430"/>
      <point x="388" y="412" type="curve" smooth="yes"/>
      <point x="382" y="394"/>
      <point x="362" y="383"/>
    </contour>
  </outline>
</glyph>
<glyph name="sterling" format="1">
  <advance width="466"/>
  <unicode hex="00A3"/>
  <outline>
    <contour>
      <point x="47" y="68" type="curve" smooth="yes"/>
      <point x="124" y="138" type="line" smooth="yes"/>
      <point x="145" y="156"/>
      <point x="163" y="179"/>
      <point x="163" y="200" type="curve" smooth="yes"/>
      <point x="163" y="220"/>
      <point x="150" y="244"/>
      <point x="132" y="264" type="curve" smooth="yes"/>
      <point x="88" y="317"/>
      <point x="62" y="358"/>
      <point x="62" y="414" type="curve" smooth="yes"/>
      <point x="62" y="487"/>
      <point x="116" y="562"/>
      <point x="219" y="562" type="curve" smooth="yes"/>
      <point x="272" y="562"/>
      <point x="320" y="546"/>
      <point x="361" y="521" type="curve" smooth="yes"/>
      <point x="377" y="511"/>
      <point x="382" y="488"/>
      <point x="372" y="472" type="curve" smooth="yes"/>
      <point x="362" y="456"/>
      <point x="339" y="451"/>
      <point x="323" y="461" type="curve" smooth="yes"/>
      <point x="294" y="480"/>
      <point x="258" y="492"/>
      <point x="219" y="492" type="curve" smooth="yes"/>
      <point x="164" y="492"/>
      <point x="132" y="455"/>
      <point x="132" y="414" type="curve" smooth="yes"/>
      <point x="132" y="374"/>
      <point x="154" y="347"/>
      <point x="186" y="310" type="curve" smooth="yes"/>
      <point x="216" y="274"/>
      <point x="233" y="232"/>
      <point x="233" y="200" type="curve" smooth="yes"/>
      <point x="233" y="163"/>
      <point x="209" y="120"/>
      <point x="172" y="86" type="curve" smooth="yes"/>
      <point x="95" y="16" type="line" smooth="yes"/>
      <point x="81" y="3"/>
      <point x="58" y="4"/>
      <point x="45" y="18" type="curve" smooth="yes"/>
      <point x="32" y="32"/>
      <point x="33" y="55"/>
    </contour>
    <contour>
      <point x="375" y="-2" type="curve" smooth="yes"/>
      <point x="61" y="-2" type="line" smooth="yes"/>
      <point x="42" y="-2"/>
      <point x="26" y="14"/>
      <point x="26" y="33" type="curve" smooth="yes"/>
      <point x="26" y="52"/>
      <point x="42" y="68"/>
      <point x="61" y="68" type="curve" smooth="yes"/>
      <point x="375" y="68" type="line" smooth="yes"/>
      <point x="394" y="68"/>
      <point x="410" y="52"/>
      <point x="410" y="33" type="curve" smooth="yes"/>
      <point x="410" y="14"/>
      <point x="394" y="-2"/>
    </contour>
    <contour>
      <point x="67" y="293" type="curve" smooth="yes"/>
      <point x="366" y="293" type="line" smooth="yes"/>
      <point x="385" y="293"/>
      <point x="401" y="277"/>
      <point x="401" y="258" type="curve" smooth="yes"/>
      <point x="401" y="239"/>
      <point x="385" y="223"/>
      <point x="366" y="223" type="curve" smooth="yes"/>
      <point x="67" y="223" type="line" smooth="yes"/>
      <point x="48" y="223"/>
      <point x="32" y="239"/>
      <point x="32" y="258" type="curve" smooth="yes"/>
      <point x="32" y="277"/>
      <point x="48" y="293"/>
    </contour>
  </outline>
</glyph>
<glyph name="currency" format="1">
  <advance width="531.0"/>
  <unicode hex="00A4"/>
  <outline>
    <contour>
      <point x="265" y="431" type="curve" smooth="yes"/>
      <point x="383" y="431"/>
      <point x="458" y="342"/>
      <point x="458" y="232" type="curve" smooth="yes"/>
      <point x="458" y="126"/>
      <point x="383" y="43"/>
      <point x="265" y="43" type="curve" smooth="yes"/>
      <point x="147" y="43"/>
      <point x="72" y="127"/>
      <point x="72" y="234" type="curve" smooth="yes"/>
      <point x="72" y="341"/>
      <point x="146" y="431"/>
    </contour>
    <contour>
      <point x="265" y="361" type="curve" smooth="yes"/>
      <point x="188" y="361"/>
      <point x="142" y="303"/>
      <point x="142" y="234" type="curve" smooth="yes"/>
      <point x="142" y="165"/>
      <point x="191" y="113"/>
      <point x="265" y="113" type="curve" smooth="yes"/>
      <point x="339" y="113"/>
      <point x="388" y="164"/>
      <point x="388" y="232" type="curve" smooth="yes"/>
      <point x="388" y="302"/>
      <point x="341" y="361"/>
    </contour>
    <contour>
      <point x="423" y="10" type="curve" smooth="yes"/>
      <point x="352" y="88" type="line" smooth="yes"/>
      <point x="339" y="102"/>
      <point x="340" y="125"/>
      <point x="354" y="138" type="curve" smooth="yes"/>
      <point x="368" y="151"/>
      <point x="391" y="150"/>
      <point x="404" y="136" type="curve" smooth="yes"/>
      <point x="475" y="58" type="line" smooth="yes"/>
      <point x="488" y="44"/>
      <point x="487" y="21"/>
      <point x="473" y="8" type="curve" smooth="yes"/>
      <point x="459" y="-5"/>
      <point x="436" y="-4"/>
    </contour>
    <contour>
      <point x="126" y="335" type="curve" smooth="yes"/>
      <point x="61" y="406" type="line" smooth="yes"/>
      <point x="48" y="420"/>
      <point x="49" y="443"/>
      <point x="63" y="456" type="curve" smooth="yes"/>
      <point x="77" y="469"/>
      <point x="100" y="468"/>
      <point x="113" y="454" type="curve" smooth="yes"/>
      <point x="178" y="383" type="line" smooth="yes"/>
      <point x="191" y="369"/>
      <point x="190" y="346"/>
      <point x="176" y="333" type="curve" smooth="yes"/>
      <point x="162" y="320"/>
      <point x="139" y="321"/>
    </contour>
    <contour>
      <point x="352" y="383" type="curve" smooth="yes"/>
      <point x="417" y="455" type="line" smooth="yes"/>
      <point x="430" y="469"/>
      <point x="452" y="471"/>
      <point x="466" y="458" type="curve" smooth="yes"/>
      <point x="480" y="445"/>
      <point x="482" y="423"/>
      <point x="469" y="409" type="curve" smooth="yes"/>
      <point x="404" y="337" type="line" smooth="yes"/>
      <point x="391" y="323"/>
      <point x="369" y="321"/>
      <point x="355" y="334" type="curve" smooth="yes"/>
      <point x="341" y="347"/>
      <point x="339" y="369"/>
    </contour>
    <contour>
      <point x="56" y="58" type="curve" smooth="yes"/>
      <point x="124" y="133" type="line" smooth="yes"/>
      <point x="137" y="147"/>
      <point x="160" y="148"/>
      <point x="174" y="135" type="curve" smooth="yes"/>
      <point x="188" y="122"/>
      <point x="189" y="99"/>
      <point x="176" y="85" type="curve" smooth="yes"/>
      <point x="108" y="10" type="line" smooth="yes"/>
      <point x="95" y="-4"/>
      <point x="72" y="-5"/>
      <point x="58" y="8" type="curve" smooth="yes"/>
      <point x="44" y="21"/>
      <point x="43" y="44"/>
    </contour>
  </outline>
</glyph>
<glyph name="yen" format="1">
  <advance width="570"/>
  <unicode hex="00A5"/>
  <outline>
    <contour>
      <point x="328" y="275" type="curve" smooth="yes"/>
      <point x="328" y="33" type="line" smooth="yes"/>
      <point x="328" y="14"/>
      <point x="312" y="-2"/>
      <point x="293" y="-2" type="curve" smooth="yes"/>
      <point x="274" y="-2"/>
      <point x="258" y="14"/>
      <point x="258" y="33" type="curve" smooth="yes"/>
      <point x="258" y="275" type="line" smooth="yes"/>
      <point x="258" y="294"/>
      <point x="274" y="310"/>
      <point x="293" y="310" type="curve" smooth="yes"/>
      <point x="312" y="310"/>
      <point x="328" y="294"/>
    </contour>
    <contour>
      <point x="127" y="538" type="curve" smooth="yes"/>
      <point x="175" y="470"/>
      <point x="277" y="352"/>
      <point x="314" y="316" type="curve" smooth="yes"/>
      <point x="328" y="303"/>
      <point x="328" y="280"/>
      <point x="315" y="267" type="curve" smooth="yes"/>
      <point x="302" y="253"/>
      <point x="279" y="253"/>
      <point x="266" y="266" type="curve" smooth="yes"/>
      <point x="227" y="304"/>
      <point x="119" y="426"/>
      <point x="69" y="498" type="curve" smooth="yes"/>
      <point x="58" y="513"/>
      <point x="62" y="536"/>
      <point x="78" y="547" type="curve" smooth="yes"/>
      <point x="93" y="558"/>
      <point x="116" y="554"/>
    </contour>
    <contour>
      <point x="268" y="306" type="curve" smooth="yes"/>
      <point x="317" y="355"/>
      <point x="407" y="471"/>
      <point x="455" y="538" type="curve" smooth="yes"/>
      <point x="466" y="554"/>
      <point x="489" y="557"/>
      <point x="504" y="547" type="curve" smooth="yes"/>
      <point x="520" y="536"/>
      <point x="523" y="513"/>
      <point x="513" y="498" type="curve" smooth="yes"/>
      <point x="463" y="427"/>
      <point x="369" y="307"/>
      <point x="318" y="256" type="curve" smooth="yes"/>
      <point x="304" y="243"/>
      <point x="282" y="243"/>
      <point x="268" y="256" type="curve" smooth="yes"/>
      <point x="255" y="270"/>
      <point x="255" y="292"/>
    </contour>
    <contour>
      <point x="118" y="312" type="curve" smooth="yes"/>
      <point x="466" y="312" type="line" smooth="yes"/>
      <point x="485" y="312"/>
      <point x="501" y="296"/>
      <point x="501" y="277" type="curve" smooth="yes"/>
      <point x="501" y="258"/>
      <point x="485" y="242"/>
      <point x="466" y="242" type="curve" smooth="yes"/>
      <point x="118" y="242" type="line" smooth="yes"/>
      <point x="99" y="242"/>
      <point x="83" y="258"/>
      <point x="83" y="277" type="curve" smooth="yes"/>
      <point x="83" y="296"/>
      <point x="99" y="312"/>
    </contour>
    <contour>
      <point x="118" y="170" type="curve" smooth="yes"/>
      <point x="466" y="170" type="line" smooth="yes"/>
      <point x="485" y="170"/>
      <point x="501" y="154"/>
      <point x="501" y="135" type="curve" smooth="yes"/>
      <point x="501" y="116"/>
      <point x="485" y="100"/>
      <point x="466" y="100" type="curve" smooth="yes"/>
      <point x="118" y="100" type="line" smooth="yes"/>
      <point x="99" y="100"/>
      <point x="83" y="116"/>
      <point x="83" y="135" type="curve" smooth="yes"/>
      <point x="83" y="154"/>
      <point x="99" y="170"/>
    </contour>
  </outline>
</glyph>
<glyph name="brokenbar" format="1">
  <advance width="310"/>
  <unicode hex="00A6"/>
  <outline>
    <contour>
      <point x="190" y="159" type="curve" smooth="yes"/>
      <point x="190" y="-68" type="line" smooth="yes"/>
      <point x="190" y="-87"/>
      <point x="174" y="-103"/>
      <point x="155" y="-103" type="curve" smooth="yes"/>
      <point x="136" y="-103"/>
      <point x="120" y="-87"/>
      <point x="120" y="-68" type="curve" smooth="yes"/>
      <point x="120" y="159" type="line" smooth="yes"/>
      <point x="120" y="178"/>
      <point x="136" y="194"/>
      <point x="155" y="194" type="curve" smooth="yes"/>
      <point x="174" y="194"/>
      <point x="190" y="178"/>
    </contour>
    <contour>
      <point x="190" y="545" type="curve" smooth="yes"/>
      <point x="190" y="318" type="line" smooth="yes"/>
      <point x="190" y="299"/>
      <point x="174" y="283"/>
      <point x="155" y="283" type="curve" smooth="yes"/>
      <point x="136" y="283"/>
      <point x="120" y="299"/>
      <point x="120" y="318" type="curve" smooth="yes"/>
      <point x="120" y="545" type="line" smooth="yes"/>
      <point x="120" y="564"/>
      <point x="136" y="580"/>
      <point x="155" y="580" type="curve" smooth="yes"/>
      <point x="174" y="580"/>
      <point x="190" y="564"/>
    </contour>
  </outline>
</glyph>
<glyph name="section" format="1">
  <advance width="535"/>
  <unicode hex="00A7"/>
  <outline>
    <contour>
      <point x="387" y="467" type="curve" smooth="yes"/>
      <point x="344" y="481"/>
      <point x="312" y="489"/>
      <point x="248" y="489" type="curve" smooth="yes"/>
      <point x="198" y="489"/>
      <point x="147" y="471"/>
      <point x="147" y="438" type="curve" smooth="yes"/>
      <point x="147" y="405"/>
      <point x="183" y="378"/>
      <point x="274" y="365" type="curve" smooth="yes"/>
      <point x="433" y="333"/>
      <point x="467" y="274"/>
      <point x="467" y="211" type="curve" smooth="yes"/>
      <point x="467" y="147"/>
      <point x="424" y="80"/>
      <point x="268" y="80" type="curve" smooth="yes"/>
      <point x="249" y="80"/>
      <point x="233" y="96"/>
      <point x="233" y="115" type="curve" smooth="yes"/>
      <point x="233" y="134"/>
      <point x="249" y="150"/>
      <point x="268" y="150" type="curve" smooth="yes"/>
      <point x="340" y="150"/>
      <point x="397" y="169"/>
      <point x="397" y="211" type="curve" smooth="yes"/>
      <point x="397" y="254"/>
      <point x="349" y="279"/>
      <point x="264" y="295" type="curve" smooth="yes"/>
      <point x="87" y="322"/>
      <point x="77" y="389"/>
      <point x="77" y="438" type="curve" smooth="yes"/>
      <point x="77" y="493"/>
      <point x="128" y="559"/>
      <point x="248" y="559" type="curve" smooth="yes"/>
      <point x="322" y="559"/>
      <point x="358" y="549"/>
      <point x="409" y="533" type="curve" smooth="yes"/>
      <point x="427" y="528"/>
      <point x="437" y="507"/>
      <point x="431" y="489" type="curve" smooth="yes"/>
      <point x="426" y="471"/>
      <point x="405" y="461"/>
    </contour>
    <contour>
      <point x="238" y="296" type="curve" smooth="yes"/>
      <point x="183" y="296"/>
      <point x="137" y="276"/>
      <point x="137" y="231" type="curve" smooth="yes"/>
      <point x="137" y="196"/>
      <point x="171" y="166"/>
      <point x="265" y="149" type="curve" smooth="yes"/>
      <point x="427" y="122"/>
      <point x="457" y="75"/>
      <point x="457" y="11" type="curve" smooth="yes"/>
      <point x="457" y="-53"/>
      <point x="412" y="-125"/>
      <point x="258" y="-125" type="curve" smooth="yes"/>
      <point x="193" y="-125"/>
      <point x="131" y="-113"/>
      <point x="74" y="-87" type="curve" smooth="yes"/>
      <point x="57" y="-79"/>
      <point x="49" y="-57"/>
      <point x="57" y="-40" type="curve" smooth="yes"/>
      <point x="65" y="-23"/>
      <point x="87" y="-15"/>
      <point x="104" y="-23" type="curve" smooth="yes"/>
      <point x="151" y="-45"/>
      <point x="203" y="-55"/>
      <point x="258" y="-55" type="curve" smooth="yes"/>
      <point x="332" y="-55"/>
      <point x="387" y="-31"/>
      <point x="387" y="11" type="curve" smooth="yes"/>
      <point x="387" y="55"/>
      <point x="335" y="66"/>
      <point x="253" y="81" type="curve" smooth="yes"/>
      <point x="79" y="110"/>
      <point x="67" y="178"/>
      <point x="67" y="231" type="curve" smooth="yes"/>
      <point x="67" y="308"/>
      <point x="123" y="366"/>
      <point x="238" y="366" type="curve" smooth="yes"/>
      <point x="257" y="366"/>
      <point x="273" y="350"/>
      <point x="273" y="331" type="curve" smooth="yes"/>
      <point x="273" y="312"/>
      <point x="257" y="296"/>
    </contour>
  </outline>
</glyph>
<glyph name="dieresis" format="1">
  <advance width="500"/>
  <unicode hex="00A8"/>
  <outline>
    <contour>
      <point x="156" y="621" type="curve" smooth="yes"/>
      <point x="179" y="621"/>
      <point x="206" y="603"/>
      <point x="206" y="560" type="curve" smooth="yes"/>
      <point x="206" y="517"/>
      <point x="181" y="501"/>
      <point x="156" y="501" type="curve" smooth="yes"/>
      <point x="129" y="501"/>
      <point x="103" y="522"/>
      <point x="103" y="560" type="curve" smooth="yes"/>
      <point x="103" y="598"/>
      <point x="130" y="621"/>
    </contour>
    <contour>
      <point x="334" y="621" type="curve" smooth="yes"/>
      <point x="357" y="621"/>
      <point x="384" y="603"/>
      <point x="384" y="560" type="curve" smooth="yes"/>
      <point x="384" y="517"/>
      <point x="359" y="501"/>
      <point x="334" y="501" type="curve" smooth="yes"/>
      <point x="307" y="501"/>
      <point x="281" y="522"/>
      <point x="281" y="560" type="curve" smooth="yes"/>
      <point x="281" y="598"/>
      <point x="308" y="621"/>
    </contour>
    <contour>
      <point x="156" y="551" type="curve" smooth="yes"/>
      <point x="160" y="551"/>
      <point x="173" y="548"/>
      <point x="173" y="560" type="curve" smooth="yes"/>
      <point x="173" y="572"/>
      <point x="161" y="571"/>
      <point x="156" y="571" type="curve" smooth="yes"/>
      <point x="151" y="571"/>
      <point x="136" y="577"/>
      <point x="136" y="560" type="curve" smooth="yes"/>
      <point x="136" y="543"/>
      <point x="153" y="551"/>
    </contour>
    <contour>
      <point x="334" y="551" type="curve" smooth="yes"/>
      <point x="338" y="551"/>
      <point x="351" y="548"/>
      <point x="351" y="560" type="curve" smooth="yes"/>
      <point x="351" y="572"/>
      <point x="339" y="571"/>
      <point x="334" y="571" type="curve" smooth="yes"/>
      <point x="329" y="571"/>
      <point x="314" y="577"/>
      <point x="314" y="560" type="curve" smooth="yes"/>
      <point x="314" y="543"/>
      <point x="331" y="551"/>
    </contour>
  </outline>
</glyph>
<glyph name="copyright" format="1">
  <advance width="663"/>
  <unicode hex="00A9"/>
  <outline>
    <contour>
      <point x="334" y="562" type="curve" smooth="yes"/>
      <point x="492" y="562"/>
      <point x="619" y="444"/>
      <point x="619" y="275" type="curve" smooth="yes"/>
      <point x="619" y="114"/>
      <point x="514" y="-11"/>
      <point x="334" y="-11" type="curve" smooth="yes"/>
      <point x="163" y="-11"/>
      <point x="44" y="115"/>
      <point x="44" y="272" type="curve"/>
      <point x="44" y="444"/>
      <point x="160" y="562"/>
    </contour>
    <contour>
      <point x="394" y="359" type="curve" smooth="yes"/>
      <point x="381" y="366"/>
      <point x="361" y="371"/>
      <point x="340" y="371" type="curve" smooth="yes"/>
      <point x="290" y="371"/>
      <point x="246" y="331"/>
      <point x="246" y="274" type="curve" smooth="yes"/>
      <point x="246" y="220"/>
      <point x="283" y="180"/>
      <point x="343" y="180" type="curve" smooth="yes"/>
      <point x="364" y="180"/>
      <point x="382" y="184"/>
      <point x="397" y="192" type="curve" smooth="yes"/>
      <point x="413" y="201"/>
      <point x="435" y="194"/>
      <point x="444" y="177" type="curve" smooth="yes"/>
      <point x="453" y="161"/>
      <point x="446" y="139"/>
      <point x="429" y="130" type="curve" smooth="yes"/>
      <point x="406" y="118"/>
      <point x="376" y="110"/>
      <point x="343" y="110" type="curve" smooth="yes"/>
      <point x="237" y="110"/>
      <point x="176" y="182"/>
      <point x="176" y="274" type="curve" smooth="yes"/>
      <point x="176" y="373"/>
      <point x="254" y="441"/>
      <point x="340" y="441" type="curve" smooth="yes"/>
      <point x="375" y="441"/>
      <point x="405" y="432"/>
      <point x="426" y="421" type="curve" smooth="yes"/>
      <point x="443" y="412"/>
      <point x="450" y="390"/>
      <point x="441" y="374" type="curve" smooth="yes"/>
      <point x="432" y="357"/>
      <point x="410" y="350"/>
    </contour>
    <contour>
      <point x="334" y="492" type="curve" smooth="yes"/>
      <point x="202" y="492"/>
      <point x="114" y="402"/>
      <point x="114" y="272" type="curve" smooth="yes"/>
      <point x="114" y="153"/>
      <point x="205" y="59"/>
      <point x="334" y="59" type="curve" smooth="yes"/>
      <point x="470" y="59"/>
      <point x="549" y="154"/>
      <point x="549" y="275" type="curve" smooth="yes"/>
      <point x="549" y="402"/>
      <point x="454" y="492"/>
    </contour>
  </outline>
</glyph>
<glyph name="ordfeminine" format="1">
  <advance width="454"/>
  <unicode hex="00AA"/>
  <outline>
    <contour>
      <point x="103" y="209" type="curve" smooth="yes"/>
      <point x="361" y="209" type="line" smooth="yes"/>
      <point x="380" y="209"/>
      <point x="396" y="193"/>
      <point x="396" y="174" type="curve" smooth="yes"/>
      <point x="396" y="155"/>
      <point x="380" y="139"/>
      <point x="361" y="139" type="curve" smooth="yes"/>
      <point x="103" y="139" type="line" smooth="yes"/>
      <point x="84" y="139"/>
      <point x="68" y="155"/>
      <point x="68" y="174" type="curve" smooth="yes"/>
      <point x="68" y="193"/>
      <point x="84" y="209"/>
    </contour>
    <contour>
      <point x="140" y="539" type="curve" smooth="yes"/>
      <point x="158" y="545"/>
      <point x="187" y="552"/>
      <point x="214" y="552" type="curve" smooth="yes"/>
      <point x="301" y="552"/>
      <point x="341" y="500"/>
      <point x="341" y="424" type="curve" smooth="yes"/>
      <point x="341" y="364" type="line" smooth="yes"/>
      <point x="341" y="340"/>
      <point x="345" y="324"/>
      <point x="356" y="311" type="curve" smooth="yes"/>
      <point x="369" y="297"/>
      <point x="367" y="274"/>
      <point x="353" y="262" type="curve" smooth="yes"/>
      <point x="339" y="249"/>
      <point x="316" y="251"/>
      <point x="304" y="265" type="curve" smooth="yes"/>
      <point x="283" y="288"/>
      <point x="271" y="316"/>
      <point x="271" y="364" type="curve" smooth="yes"/>
      <point x="271" y="424" type="line" smooth="yes"/>
      <point x="271" y="458"/>
      <point x="253" y="482"/>
      <point x="214" y="482" type="curve" smooth="yes"/>
      <point x="195" y="482"/>
      <point x="174" y="477"/>
      <point x="162" y="473" type="curve" smooth="yes"/>
      <point x="144" y="467"/>
      <point x="124" y="477"/>
      <point x="118" y="495" type="curve" smooth="yes"/>
      <point x="112" y="513"/>
      <point x="122" y="533"/>
    </contour>
    <contour>
      <point x="302" y="382" type="curve" smooth="yes"/>
      <point x="280" y="383"/>
      <point x="261" y="385"/>
      <point x="241" y="385" type="curve" smooth="yes"/>
      <point x="202" y="385"/>
      <point x="177" y="376"/>
      <point x="160" y="362" type="curve"/>
      <point x="162" y="363" type="line"/>
      <point x="155" y="357"/>
      <point x="154" y="350"/>
      <point x="154" y="342" type="curve" smooth="yes"/>
      <point x="154" y="331"/>
      <point x="167" y="323"/>
      <point x="184" y="323" type="curve" smooth="yes"/>
      <point x="224" y="323"/>
      <point x="252" y="338"/>
      <point x="278" y="373" type="curve" smooth="yes"/>
      <point x="289" y="388"/>
      <point x="311" y="391"/>
      <point x="327" y="380" type="curve" smooth="yes"/>
      <point x="342" y="369"/>
      <point x="345" y="347"/>
      <point x="334" y="331" type="curve" smooth="yes"/>
      <point x="294" y="276"/>
      <point x="248" y="253"/>
      <point x="184" y="253" type="curve" smooth="yes"/>
      <point x="107" y="253"/>
      <point x="84" y="305"/>
      <point x="84" y="342" type="curve" smooth="yes"/>
      <point x="84" y="370"/>
      <point x="91" y="391"/>
      <point x="112" y="413" type="curve" smooth="yes"/>
      <point x="113" y="413"/>
      <point x="114" y="414"/>
      <point x="114" y="414" type="curve" smooth="yes"/>
      <point x="141" y="438"/>
      <point x="180" y="455"/>
      <point x="241" y="455" type="curve" smooth="yes"/>
      <point x="261" y="455"/>
      <point x="282" y="453"/>
      <point x="306" y="452" type="curve" smooth="yes"/>
      <point x="324" y="451"/>
      <point x="340" y="434"/>
      <point x="339" y="415" type="curve" smooth="yes"/>
      <point x="338" y="397"/>
      <point x="321" y="381"/>
    </contour>
  </outline>
</glyph>
<glyph name="guillemotleft" format="1">
  <advance width="448"/>
  <unicode hex="00AB"/>
  <outline>
    <contour>
      <point x="272" y="221" type="curve" smooth="yes"/>
      <point x="383" y="97" type="line" smooth="yes"/>
      <point x="396" y="83"/>
      <point x="394" y="61"/>
      <point x="380" y="48" type="curve" smooth="yes"/>
      <point x="366" y="35"/>
      <point x="344" y="37"/>
      <point x="331" y="51" type="curve" smooth="yes"/>
      <point x="220" y="175" type="line" smooth="yes"/>
      <point x="207" y="189"/>
      <point x="209" y="211"/>
      <point x="223" y="224" type="curve" smooth="yes"/>
      <point x="237" y="237"/>
      <point x="259" y="235"/>
    </contour>
    <contour>
      <point x="383" y="303" type="curve" smooth="yes"/>
      <point x="272" y="179" type="line" smooth="yes"/>
      <point x="259" y="165"/>
      <point x="237" y="163"/>
      <point x="223" y="176" type="curve" smooth="yes"/>
      <point x="209" y="189"/>
      <point x="207" y="211"/>
      <point x="220" y="225" type="curve" smooth="yes"/>
      <point x="331" y="349" type="line" smooth="yes"/>
      <point x="344" y="363"/>
      <point x="366" y="365"/>
      <point x="380" y="352" type="curve" smooth="yes"/>
      <point x="394" y="339"/>
      <point x="396" y="317"/>
    </contour>
    <contour>
      <point x="102" y="221" type="curve" smooth="yes"/>
      <point x="213" y="97" type="line" smooth="yes"/>
      <point x="226" y="83"/>
      <point x="224" y="61"/>
      <point x="210" y="48" type="curve" smooth="yes"/>
      <point x="196" y="35"/>
      <point x="174" y="37"/>
      <point x="161" y="51" type="curve" smooth="yes"/>
      <point x="50" y="175" type="line" smooth="yes"/>
      <point x="37" y="189"/>
      <point x="39" y="211"/>
      <point x="53" y="224" type="curve" smooth="yes"/>
      <point x="67" y="237"/>
      <point x="89" y="235"/>
    </contour>
    <contour>
      <point x="213" y="303" type="curve" smooth="yes"/>
      <point x="102" y="179" type="line" smooth="yes"/>
      <point x="89" y="165"/>
      <point x="67" y="163"/>
      <point x="53" y="176" type="curve" smooth="yes"/>
      <point x="39" y="189"/>
      <point x="37" y="211"/>
      <point x="50" y="225" type="curve" smooth="yes"/>
      <point x="161" y="349" type="line" smooth="yes"/>
      <point x="174" y="363"/>
      <point x="196" y="365"/>
      <point x="210" y="352" type="curve" smooth="yes"/>
      <point x="224" y="339"/>
      <point x="226" y="317"/>
    </contour>
  </outline>
</glyph>
<glyph name="logicalnot" format="1">
  <advance width="491"/>
  <unicode hex="00AC"/>
  <outline>
    <contour>
      <point x="114" y="294" type="curve" smooth="yes"/>
      <point x="377" y="294" type="line" smooth="yes"/>
      <point x="396" y="294"/>
      <point x="412" y="278"/>
      <point x="412" y="259" type="curve" smooth="yes"/>
      <point x="412" y="240"/>
      <point x="396" y="224"/>
      <point x="377" y="224" type="curve" smooth="yes"/>
      <point x="114" y="224" type="line" smooth="yes"/>
      <point x="95" y="224"/>
      <point x="79" y="240"/>
      <point x="79" y="259" type="curve" smooth="yes"/>
      <point x="79" y="278"/>
      <point x="95" y="294"/>
    </contour>
    <contour>
      <point x="412" y="253" type="curve" smooth="yes"/>
      <point x="412" y="152" type="line" smooth="yes"/>
      <point x="412" y="133"/>
      <point x="396" y="117"/>
      <point x="377" y="117" type="curve" smooth="yes"/>
      <point x="358" y="117"/>
      <point x="342" y="133"/>
      <point x="342" y="152" type="curve" smooth="yes"/>
      <point x="342" y="253" type="line" smooth="yes"/>
      <point x="342" y="272"/>
      <point x="358" y="288"/>
      <point x="377" y="288" type="curve" smooth="yes"/>
      <point x="396" y="288"/>
      <point x="412" y="272"/>
    </contour>
  </outline>
</glyph>
<glyph name="registered" format="1">
  <advance width="570"/>
  <unicode hex="00AE"/>
  <outline>
    <contour>
      <point x="282" y="574" type="curve" smooth="yes"/>
      <point x="189" y="574"/>
      <point x="125" y="509"/>
      <point x="125" y="416" type="curve" smooth="yes"/>
      <point x="125" y="327"/>
      <point x="189" y="251"/>
      <point x="289" y="251" type="curve" smooth="yes"/>
      <point x="382" y="251"/>
      <point x="451" y="320"/>
      <point x="451" y="413" type="curve" smooth="yes"/>
      <point x="451" y="506"/>
      <point x="381" y="574"/>
    </contour>
    <contour>
      <point x="240" y="422" type="curve" smooth="yes"/>
      <point x="287" y="422" type="line" smooth="yes"/>
      <point x="304" y="422"/>
      <point x="315" y="432"/>
      <point x="315" y="446" type="curve" smooth="yes"/>
      <point x="315" y="462"/>
      <point x="301" y="467"/>
      <point x="287" y="467" type="curve" smooth="yes"/>
      <point x="230" y="467" type="line"/>
      <point x="265" y="502" type="line"/>
      <point x="265" y="326" type="line" smooth="yes"/>
      <point x="265" y="307"/>
      <point x="249" y="291"/>
      <point x="230" y="291" type="curve" smooth="yes"/>
      <point x="211" y="291"/>
      <point x="195" y="307"/>
      <point x="195" y="326" type="curve" smooth="yes"/>
      <point x="195" y="502" type="line" smooth="yes"/>
      <point x="195" y="521"/>
      <point x="211" y="537"/>
      <point x="230" y="537" type="curve" smooth="yes"/>
      <point x="287" y="537" type="line" smooth="yes"/>
      <point x="349" y="537"/>
      <point x="385" y="500"/>
      <point x="385" y="446" type="curve" smooth="yes"/>
      <point x="385" y="396"/>
      <point x="356" y="352"/>
      <point x="287" y="352" type="curve" smooth="yes"/>
      <point x="240" y="352" type="line" smooth="yes"/>
      <point x="221" y="352"/>
      <point x="205" y="368"/>
      <point x="205" y="387" type="curve" smooth="yes"/>
      <point x="205" y="406"/>
      <point x="221" y="422"/>
    </contour>
    <contour>
      <point x="341" y="404" type="curve" smooth="yes"/>
      <point x="388" y="349" type="line" smooth="yes"/>
      <point x="400" y="334"/>
      <point x="398" y="312"/>
      <point x="384" y="299" type="curve" smooth="yes"/>
      <point x="369" y="287"/>
      <point x="347" y="289"/>
      <point x="334" y="303" type="curve" smooth="yes"/>
      <point x="287" y="358" type="line" smooth="yes"/>
      <point x="275" y="373"/>
      <point x="277" y="395"/>
      <point x="291" y="408" type="curve" smooth="yes"/>
      <point x="306" y="420"/>
      <point x="328" y="418"/>
    </contour>
    <contour>
      <point x="282" y="644" type="curve" smooth="yes"/>
      <point x="425" y="644"/>
      <point x="521" y="544"/>
      <point x="521" y="413" type="curve" smooth="yes"/>
      <point x="521" y="280"/>
      <point x="422" y="181"/>
      <point x="289" y="181" type="curve" smooth="yes"/>
      <point x="147" y="181"/>
      <point x="55" y="289"/>
      <point x="55" y="416" type="curve" smooth="yes"/>
      <point x="55" y="551"/>
      <point x="147" y="644"/>
    </contour>
  </outline>
</glyph>
<glyph name="macron" format="1">
  <advance width="500"/>
  <unicode hex="00AF"/>
  <outline>
    <contour>
      <point x="355" y="509" type="curve" smooth="yes"/>
      <point x="146" y="509" type="line" smooth="yes"/>
      <point x="127" y="509"/>
      <point x="111" y="525"/>
      <point x="111" y="544" type="curve" smooth="yes"/>
      <point x="111" y="563"/>
      <point x="127" y="579"/>
      <point x="146" y="579" type="curve" smooth="yes"/>
      <point x="355" y="579" type="line" smooth="yes"/>
      <point x="374" y="579"/>
      <point x="390" y="563"/>
      <point x="390" y="544" type="curve" smooth="yes"/>
      <point x="390" y="525"/>
      <point x="374" y="509"/>
    </contour>
  </outline>
</glyph>
<glyph name="degree" format="1">
  <advance width="369"/>
  <unicode hex="00B0"/>
  <outline>
    <contour>
      <point x="185" y="558" type="curve" smooth="yes"/>
      <point x="271" y="558"/>
      <point x="323" y="497"/>
      <point x="323" y="419" type="curve" smooth="yes"/>
      <point x="323" y="345"/>
      <point x="270" y="285"/>
      <point x="185" y="285" type="curve" smooth="yes"/>
      <point x="98" y="285"/>
      <point x="46" y="344"/>
      <point x="46" y="419" type="curve"/>
      <point x="46" y="495"/>
      <point x="97" y="558"/>
    </contour>
    <contour>
      <point x="185" y="488" type="curve" smooth="yes"/>
      <point x="141" y="488"/>
      <point x="116" y="457"/>
      <point x="116" y="419" type="curve" smooth="yes"/>
      <point x="116" y="382"/>
      <point x="144" y="355"/>
      <point x="185" y="355" type="curve" smooth="yes"/>
      <point x="226" y="355"/>
      <point x="253" y="383"/>
      <point x="253" y="419" type="curve" smooth="yes"/>
      <point x="253" y="457"/>
      <point x="227" y="488"/>
    </contour>
  </outline>
</glyph>
<glyph name="plusminus" format="1">
  <advance width="491"/>
  <unicode hex="00B1"/>
  <outline>
    <contour>
      <point x="92" y="351" type="curve" smooth="yes"/>
      <point x="398" y="351" type="line" smooth="yes"/>
      <point x="417" y="351"/>
      <point x="433" y="335"/>
      <point x="433" y="316" type="curve" smooth="yes"/>
      <point x="433" y="297"/>
      <point x="417" y="281"/>
      <point x="398" y="281" type="curve" smooth="yes"/>
      <point x="92" y="281" type="line" smooth="yes"/>
      <point x="73" y="281"/>
      <point x="57" y="297"/>
      <point x="57" y="316" type="curve" smooth="yes"/>
      <point x="57" y="335"/>
      <point x="73" y="351"/>
    </contour>
    <contour>
      <point x="210" y="207" type="curve" smooth="yes"/>
      <point x="210" y="424" type="line" smooth="yes"/>
      <point x="210" y="443"/>
      <point x="226" y="459"/>
      <point x="245" y="459" type="curve" smooth="yes"/>
      <point x="264" y="459"/>
      <point x="280" y="443"/>
      <point x="280" y="424" type="curve" smooth="yes"/>
      <point x="280" y="207" type="line" smooth="yes"/>
      <point x="280" y="188"/>
      <point x="264" y="172"/>
      <point x="245" y="172" type="curve" smooth="yes"/>
      <point x="226" y="172"/>
      <point x="210" y="188"/>
    </contour>
    <contour>
      <point x="92" y="127" type="curve" smooth="yes"/>
      <point x="398" y="127" type="line" smooth="yes"/>
      <point x="417" y="127"/>
      <point x="433" y="111"/>
      <point x="433" y="92" type="curve" smooth="yes"/>
      <point x="433" y="73"/>
      <point x="417" y="57"/>
      <point x="398" y="57" type="curve" smooth="yes"/>
      <point x="92" y="57" type="line" smooth="yes"/>
      <point x="73" y="57"/>
      <point x="57" y="73"/>
      <point x="57" y="92" type="curve" smooth="yes"/>
      <point x="57" y="111"/>
      <point x="73" y="127"/>
    </contour>
  </outline>
</glyph>
<glyph name="acute" format="1">
  <advance width="500"/>
  <unicode hex="00B4"/>
  <outline>
    <contour>
      <point x="310" y="573" type="curve" smooth="yes"/>
      <point x="278" y="539"/>
      <point x="259" y="516"/>
      <point x="240" y="487" type="curve" smooth="yes"/>
      <point x="230" y="471"/>
      <point x="208" y="466"/>
      <point x="192" y="477" type="curve" smooth="yes"/>
      <point x="176" y="487"/>
      <point x="171" y="509"/>
      <point x="182" y="525" type="curve" smooth="yes"/>
      <point x="203" y="558"/>
      <point x="224" y="583"/>
      <point x="260" y="621" type="curve" smooth="yes"/>
      <point x="273" y="635"/>
      <point x="295" y="635"/>
      <point x="309" y="622" type="curve" smooth="yes"/>
      <point x="323" y="609"/>
      <point x="323" y="587"/>
    </contour>
  </outline>
</glyph>
<glyph name="paragraph" format="1">
  <advance width="566"/>
  <unicode hex="00B6"/>
  <outline>
    <contour>
      <point x="403" y="33" type="curve" smooth="yes"/>
      <point x="403" y="518" type="line"/>
      <point x="438" y="483" type="line"/>
      <point x="250" y="483" type="line" smooth="yes"/>
      <point x="172" y="483"/>
      <point x="117" y="435"/>
      <point x="117" y="364" type="curve" smooth="yes"/>
      <point x="117" y="297"/>
      <point x="163" y="244"/>
      <point x="250" y="244" type="curve" smooth="yes"/>
      <point x="306" y="244" type="line" smooth="yes"/>
      <point x="325" y="244"/>
      <point x="341" y="228"/>
      <point x="341" y="209" type="curve" smooth="yes"/>
      <point x="341" y="190"/>
      <point x="325" y="174"/>
      <point x="306" y="174" type="curve" smooth="yes"/>
      <point x="250" y="174" type="line" smooth="yes"/>
      <point x="111" y="174"/>
      <point x="47" y="261"/>
      <point x="47" y="364" type="curve"/>
      <point x="47" y="473"/>
      <point x="126" y="553"/>
      <point x="250" y="553" type="curve" smooth="yes"/>
      <point x="438" y="553" type="line" smooth="yes"/>
      <point x="457" y="553"/>
      <point x="473" y="537"/>
      <point x="473" y="518" type="curve" smooth="yes"/>
      <point x="473" y="33" type="line" smooth="yes"/>
      <point x="473" y="14"/>
      <point x="457" y="-2"/>
      <point x="438" y="-2" type="curve" smooth="yes"/>
      <point x="419" y="-2"/>
      <point x="403" y="14"/>
    </contour>
    <contour>
      <point x="271" y="33" type="curve" smooth="yes"/>
      <point x="271" y="516" type="line" smooth="yes"/>
      <point x="271" y="535"/>
      <point x="287" y="551"/>
      <point x="306" y="551" type="curve" smooth="yes"/>
      <point x="325" y="551"/>
      <point x="341" y="535"/>
      <point x="341" y="516" type="curve" smooth="yes"/>
      <point x="341" y="33" type="line" smooth="yes"/>
      <point x="341" y="14"/>
      <point x="325" y="-2"/>
      <point x="306" y="-2" type="curve" smooth="yes"/>
      <point x="287" y="-2"/>
      <point x="271" y="14"/>
    </contour>
  </outline>
</glyph>
<glyph name="cedilla" format="1">
  <advance width="500"/>
  <unicode hex="00B8"/>
  <outline>
    <contour>
      <point x="318" y="-99" type="curve" smooth="yes"/>
      <point x="293" y="-124"/>
      <point x="253" y="-163"/>
      <point x="230" y="-186" type="curve" smooth="yes"/>
      <point x="216" y="-199"/>
      <point x="194" y="-199"/>
      <point x="180" y="-186" type="curve" smooth="yes"/>
      <point x="167" y="-172"/>
      <point x="167" y="-150"/>
      <point x="180" y="-136" type="curve" smooth="yes"/>
      <point x="203" y="-113"/>
      <point x="243" y="-74"/>
      <point x="268" y="-49" type="curve" smooth="yes"/>
      <point x="282" y="-36"/>
      <point x="304" y="-36"/>
      <point x="318" y="-49" type="curve" smooth="yes"/>
      <point x="331" y="-63"/>
      <point x="331" y="-85"/>
    </contour>
  </outline>
</glyph>
<glyph name="ordmasculine" format="1">
  <advance width="448"/>
  <unicode hex="00BA"/>
  <outline>
    <contour>
      <point x="224" y="552" type="curve" smooth="yes"/>
      <point x="314" y="552"/>
      <point x="372" y="484"/>
      <point x="372" y="401" type="curve" smooth="yes"/>
      <point x="372" y="317"/>
      <point x="315" y="254"/>
      <point x="224" y="254" type="curve" smooth="yes"/>
      <point x="133" y="254"/>
      <point x="75" y="317"/>
      <point x="75" y="401" type="curve" smooth="yes"/>
      <point x="75" y="483"/>
      <point x="132" y="552"/>
    </contour>
    <contour>
      <point x="224" y="482" type="curve" smooth="yes"/>
      <point x="174" y="482"/>
      <point x="145" y="445"/>
      <point x="145" y="401" type="curve" smooth="yes"/>
      <point x="145" y="357"/>
      <point x="177" y="324"/>
      <point x="224" y="324" type="curve" smooth="yes"/>
      <point x="271" y="324"/>
      <point x="302" y="357"/>
      <point x="302" y="401" type="curve" smooth="yes"/>
      <point x="302" y="444"/>
      <point x="272" y="482"/>
    </contour>
    <contour>
      <point x="103" y="209" type="curve" smooth="yes"/>
      <point x="352" y="209" type="line" smooth="yes"/>
      <point x="371" y="209"/>
      <point x="387" y="193"/>
      <point x="387" y="174" type="curve" smooth="yes"/>
      <point x="387" y="155"/>
      <point x="371" y="139"/>
      <point x="352" y="139" type="curve" smooth="yes"/>
      <point x="103" y="139" type="line" smooth="yes"/>
      <point x="84" y="139"/>
      <point x="68" y="155"/>
      <point x="68" y="174" type="curve" smooth="yes"/>
      <point x="68" y="193"/>
      <point x="84" y="209"/>
    </contour>
  </outline>
</glyph>
<glyph name="guillemotright" format="1">
  <advance width="448"/>
  <unicode hex="00BB"/>
  <outline>
    <contour>
      <point x="65" y="97" type="curve" smooth="yes"/>
      <point x="176" y="221" type="line" smooth="yes"/>
      <point x="189" y="235"/>
      <point x="211" y="237"/>
      <point x="225" y="224" type="curve" smooth="yes"/>
      <point x="239" y="211"/>
      <point x="241" y="189"/>
      <point x="228" y="175" type="curve" smooth="yes"/>
      <point x="117" y="51" type="line" smooth="yes"/>
      <point x="104" y="37"/>
      <point x="82" y="35"/>
      <point x="68" y="48" type="curve" smooth="yes"/>
      <point x="54" y="61"/>
      <point x="52" y="83"/>
    </contour>
    <contour>
      <point x="176" y="179" type="curve" smooth="yes"/>
      <point x="65" y="303" type="line" smooth="yes"/>
      <point x="52" y="317"/>
      <point x="54" y="339"/>
      <point x="68" y="352" type="curve" smooth="yes"/>
      <point x="82" y="365"/>
      <point x="104" y="363"/>
      <point x="117" y="349" type="curve" smooth="yes"/>
      <point x="228" y="225" type="line" smooth="yes"/>
      <point x="241" y="211"/>
      <point x="239" y="189"/>
      <point x="225" y="176" type="curve" smooth="yes"/>
      <point x="211" y="163"/>
      <point x="189" y="165"/>
    </contour>
    <contour>
      <point x="235" y="97" type="curve" smooth="yes"/>
      <point x="346" y="221" type="line" smooth="yes"/>
      <point x="359" y="235"/>
      <point x="381" y="237"/>
      <point x="395" y="224" type="curve" smooth="yes"/>
      <point x="409" y="211"/>
      <point x="411" y="189"/>
      <point x="398" y="175" type="curve" smooth="yes"/>
      <point x="287" y="51" type="line" smooth="yes"/>
      <point x="274" y="37"/>
      <point x="252" y="35"/>
      <point x="238" y="48" type="curve" smooth="yes"/>
      <point x="224" y="61"/>
      <point x="222" y="83"/>
    </contour>
    <contour>
      <point x="346" y="179" type="curve" smooth="yes"/>
      <point x="235" y="303" type="line" smooth="yes"/>
      <point x="222" y="317"/>
      <point x="224" y="339"/>
      <point x="238" y="352" type="curve" smooth="yes"/>
      <point x="252" y="365"/>
      <point x="274" y="363"/>
      <point x="287" y="349" type="curve" smooth="yes"/>
      <point x="398" y="225" type="line" smooth="yes"/>
      <point x="411" y="211"/>
      <point x="409" y="189"/>
      <point x="395" y="176" type="curve" smooth="yes"/>
      <point x="381" y="163"/>
      <point x="359" y="165"/>
    </contour>
  </outline>
</glyph>
